<?xml version="1.0" standalone="no"?>
 <!DOCTYPE svg PUBLIC "-//W3C//DTD SVG 1.1//EN" 
 "http://www.w3.org/Graphics/SVG/1.1/DTD/svg11.dtd"> 
<svg xmlns="http://www.w3.org/2000/svg" version="1.1" 
    width="16.6878cm" height="12.1234cm" viewBox="0 0 65700 47730 ">
<title>SVG Picture created as hecomi_R-brd.svg date 2018/12/18 09:15:35 </title>
  <desc>Picture generated by PCBNEW </desc>
<g style="fill:#000000; fill-opacity:1;stroke:#000000; stroke-opacity:1;
stroke-linecap:round; stroke-linejoin:round; "
 transform="translate(0 0) scale(1 1)">
</g>
<g style="fill:#000000; fill-opacity:0.0; 
stroke:#000000; stroke-width:-0.000393701; stroke-opacity:1; 
stroke-linecap:round; stroke-linejoin:round;">
</g>
<g style="fill:#008400; fill-opacity:0.0; 
stroke:#008400; stroke-width:-0.000393701; stroke-opacity:1; 
stroke-linecap:round; stroke-linejoin:round;">
</g>
<g style="fill:#008400; fill-opacity:0.0; 
stroke:#008400; stroke-width:59.0551; stroke-opacity:1; 
stroke-linecap:round; stroke-linejoin:round;">
<path d="M42283 27066
L42283 24311
" />
<path d="M42283 24311
L47795 24311
" />
<path d="M47795 24311
L47795 29822
" />
<path d="M47795 29822
L42283 29822
" />
<path d="M42283 29822
L42283 27066
" />
<path d="M54470 27066
L54470 24311
" />
<path d="M54470 24311
L59982 24311
" />
<path d="M59982 24311
L59982 29822
" />
<path d="M59982 29822
L54470 29822
" />
<path d="M54470 29822
L54470 27066
" />
<path d="M8533 34566
L8533 31811
" />
<path d="M8533 31811
L14045 31811
" />
<path d="M14045 31811
L14045 37322
" />
<path d="M14045 37322
L8533 37322
" />
<path d="M8533 37322
L8533 34566
" />
<path d="M16033 34566
L16033 31811
" />
<path d="M16033 31811
L21545 31811
" />
<path d="M21545 31811
L21545 37322
" />
<path d="M21545 37322
L16033 37322
" />
<path d="M16033 37322
L16033 34566
" />
<path d="M23533 34566
L23533 31811
" />
<path d="M23533 31811
L29045 31811
" />
<path d="M29045 31811
L29045 37322
" />
<path d="M29045 37322
L23533 37322
" />
<path d="M23533 37322
L23533 34566
" />
<path d="M31033 34566
L31033 31811
" />
<path d="M31033 31811
L36545 31811
" />
<path d="M36545 31811
L36545 37322
" />
<path d="M36545 37322
L31033 37322
" />
<path d="M31033 37322
L31033 34566
" />
<path d="M38533 34566
L38533 31811
" />
<path d="M38533 31811
L44045 31811
" />
<path d="M44045 31811
L44045 37322
" />
<path d="M44045 37322
L38533 37322
" />
<path d="M38533 37322
L38533 34566
" />
<path d="M32908 42066
L32908 39311
" />
<path d="M32908 39311
L38420 39311
" />
<path d="M38420 39311
L38420 44822
" />
<path d="M38420 44822
L32908 44822
" />
<path d="M32908 44822
L32908 42066
" />
<path d="M48845 34566
L48845 31811
" />
<path d="M48845 31811
L54357 31811
" />
<path d="M54357 31811
L54357 37322
" />
<path d="M54357 37322
L48845 37322
" />
<path d="M48845 37322
L48845 34566
" />
<path d="M59158 34566
L59158 31811
" />
<path d="M59158 31811
L64670 31811
" />
<path d="M64670 31811
L64670 37322
" />
<path d="M64670 37322
L59158 37322
" />
<path d="M59158 37322
L59158 34566
" />
<path d="M2908 42066
L2908 39311
" />
<path d="M2908 39311
L8420 39311
" />
<path d="M8420 39311
L8420 44822
" />
<path d="M8420 44822
L2908 44822
" />
<path d="M2908 44822
L2908 42066
" />
<path d="M10408 42066
L10408 39311
" />
<path d="M10408 39311
L15920 39311
" />
<path d="M15920 39311
L15920 44822
" />
<path d="M15920 44822
L10408 44822
" />
<path d="M10408 44822
L10408 42066
" />
<path d="M17908 42066
L17908 39311
" />
<path d="M17908 39311
L23420 39311
" />
<path d="M23420 39311
L23420 44822
" />
<path d="M23420 44822
L17908 44822
" />
<path d="M17908 44822
L17908 42066
" />
<path d="M25408 42066
L25408 39311
" />
<path d="M25408 39311
L30920 39311
" />
<path d="M30920 39311
L30920 44822
" />
<path d="M30920 44822
L25408 44822
" />
<path d="M25408 44822
L25408 42066
" />
<path d="M40408 42066
L40408 39311
" />
<path d="M40408 39311
L45920 39311
" />
<path d="M45920 39311
L45920 44822
" />
<path d="M45920 44822
L40408 44822
" />
<path d="M40408 44822
L40408 42066
" />
<path d="M1033 34566
L1033 31811
" />
<path d="M1033 31811
L6545 31811
" />
<path d="M6545 31811
L6545 37322
" />
<path d="M6545 37322
L1033 37322
" />
<path d="M1033 37322
L1033 34566
" />
<path d="M14158 12066
L14158 9311
" />
<path d="M14158 9311
L19670 9311
" />
<path d="M19670 9311
L19670 14822
" />
<path d="M19670 14822
L14158 14822
" />
<path d="M14158 14822
L14158 12066
" />
<path d="M34783 27066
L34783 24311
" />
<path d="M34783 24311
L40295 24311
" />
<path d="M40295 24311
L40295 29822
" />
<path d="M40295 29822
L34783 29822
" />
<path d="M34783 29822
L34783 27066
" />
<path d="M21658 12066
L21658 9311
" />
<path d="M21658 9311
L27170 9311
" />
<path d="M27170 9311
L27170 14822
" />
<path d="M27170 14822
L21658 14822
" />
<path d="M21658 14822
L21658 12066
" />
<path d="M29158 12066
L29158 9311
" />
<path d="M29158 9311
L34670 9311
" />
<path d="M34670 9311
L34670 14822
" />
<path d="M34670 14822
L29158 14822
" />
<path d="M29158 14822
L29158 12066
" />
<path d="M36658 12066
L36658 9311
" />
<path d="M36658 9311
L42170 9311
" />
<path d="M42170 9311
L42170 14822
" />
<path d="M42170 14822
L36658 14822
" />
<path d="M36658 14822
L36658 12066
" />
<path d="M51658 12066
L51658 9311
" />
<path d="M51658 9311
L57170 9311
" />
<path d="M57170 9311
L57170 14822
" />
<path d="M57170 14822
L51658 14822
" />
<path d="M51658 14822
L51658 12066
" />
<path d="M59158 12066
L59158 9311
" />
<path d="M59158 9311
L64670 9311
" />
<path d="M64670 9311
L64670 14822
" />
<path d="M64670 14822
L59158 14822
" />
<path d="M59158 14822
L59158 12066
" />
<path d="M2908 19566
L2908 16811
" />
<path d="M2908 16811
L8420 16811
" />
<path d="M8420 16811
L8420 22322
" />
<path d="M8420 22322
L2908 22322
" />
<path d="M2908 22322
L2908 19566
" />
<path d="M27283 27066
L27283 24311
" />
<path d="M27283 24311
L32795 24311
" />
<path d="M32795 24311
L32795 29822
" />
<path d="M32795 29822
L27283 29822
" />
<path d="M27283 29822
L27283 27066
" />
<path d="M17908 19566
L17908 16811
" />
<path d="M17908 16811
L23420 16811
" />
<path d="M23420 16811
L23420 22322
" />
<path d="M23420 22322
L17908 22322
" />
<path d="M17908 22322
L17908 19566
" />
<path d="M25408 19566
L25408 16811
" />
<path d="M25408 16811
L30920 16811
" />
<path d="M30920 16811
L30920 22322
" />
<path d="M30920 22322
L25408 22322
" />
<path d="M25408 22322
L25408 19566
" />
<path d="M40408 19566
L40408 16811
" />
<path d="M40408 16811
L45920 16811
" />
<path d="M45920 16811
L45920 22322
" />
<path d="M45920 22322
L40408 22322
" />
<path d="M40408 22322
L40408 19566
" />
<path d="M47908 19566
L47908 16811
" />
<path d="M47908 16811
L53420 16811
" />
<path d="M53420 16811
L53420 22322
" />
<path d="M53420 22322
L47908 22322
" />
<path d="M47908 22322
L47908 19566
" />
<path d="M57283 19566
L57283 16811
" />
<path d="M57283 16811
L62795 16811
" />
<path d="M62795 16811
L62795 22322
" />
<path d="M62795 22322
L57283 22322
" />
<path d="M57283 22322
L57283 19566
" />
<path d="M4783 27066
L4783 24311
" />
<path d="M4783 24311
L10295 24311
" />
<path d="M10295 24311
L10295 29822
" />
<path d="M10295 29822
L4783 29822
" />
<path d="M4783 29822
L4783 27066
" />
<path d="M12283 27066
L12283 24311
" />
<path d="M12283 24311
L17795 24311
" />
<path d="M17795 24311
L17795 29822
" />
<path d="M17795 29822
L12283 29822
" />
<path d="M12283 29822
L12283 27066
" />
<path d="M19783 27066
L19783 24311
" />
<path d="M19783 24311
L25295 24311
" />
<path d="M25295 24311
L25295 29822
" />
<path d="M25295 29822
L19783 29822
" />
<path d="M19783 29822
L19783 27066
" />
<path d="M10408 19566
L10408 16811
" />
<path d="M10408 16811
L15920 16811
" />
<path d="M15920 16811
L15920 22322
" />
<path d="M15920 22322
L10408 22322
" />
<path d="M10408 22322
L10408 19566
" />
<path d="M6658 12066
L6658 9311
" />
<path d="M6658 9311
L12170 9311
" />
<path d="M12170 9311
L12170 14822
" />
<path d="M12170 14822
L6658 14822
" />
<path d="M6658 14822
L6658 12066
" />
<path d="M44158 12066
L44158 9311
" />
<path d="M44158 9311
L49670 9311
" />
<path d="M49670 9311
L49670 14822
" />
<path d="M49670 14822
L44158 14822
" />
<path d="M44158 14822
L44158 12066
" />
<path d="M32908 19566
L32908 16811
" />
<path d="M32908 16811
L38420 16811
" />
<path d="M38420 16811
L38420 22322
" />
<path d="M38420 22322
L32908 22322
" />
<path d="M32908 22322
L32908 19566
" />
</g>
<g style="fill:#000000; fill-opacity:0.0; 
stroke:#000000; stroke-width:59.0551; stroke-opacity:1; 
stroke-linecap:round; stroke-linejoin:round;">
</g>
<g style="fill:#C2C200; fill-opacity:0.0; 
stroke:#C2C200; stroke-width:59.0551; stroke-opacity:1; 
stroke-linecap:round; stroke-linejoin:round;">
<circle cx="58164.4" cy="30816.9" r="433.071" /> 
<circle cx="3789.37" cy="8316.93" r="433.071" /> 
<circle cx="31914.4" cy="8316.93" r="433.071" /> 
<circle cx="58164.4" cy="8316.93" r="433.071" /> 
<circle cx="7539.37" cy="30816.9" r="433.071" /> 
<circle cx="31914.4" cy="45816.9" r="433.071" /> 
<circle cx="58164.4" cy="45816.9" r="433.071" /> 
<circle cx="30039.4" cy="30816.9" r="433.071" /> 
<circle cx="9414.37" cy="45816.9" r="433.071" /> 
</g>
<g style="fill:#000000; fill-opacity:0.0; 
stroke:#000000; stroke-width:59.0551; stroke-opacity:1; 
stroke-linecap:round; stroke-linejoin:round;">
</g>
<g style="fill:#C2C200; fill-opacity:0.0; 
stroke:#C2C200; stroke-width:59.0551; stroke-opacity:1; 
stroke-linecap:round; stroke-linejoin:round;">
<path d="M2914.37 816.93 A1000 1000 0.0 0 0 1914.37 1816.93 " />
<path d="M969.614 15819.4 A1000 1000 0.0 0 0 39.3705 16816.9 " />
<path d="M984.127 15814.5 A1000 1000 0.0 0 0 1914.37 14816.9 " />
<path d="M39.3705 22316.9 A1000 1000 0.0 0 0 1039.37 23316.9 " />
<path d="M3789.37 24316.9 A1000 1000 0.0 0 0 2789.37 23316.9 " />
<path d="M2789.37 30816.9 A1000 1000 0.0 0 0 3789.37 29816.9 " />
<path d="M1039.37 30816.9 A1000 1000 0.0 0 0 39.3705 31816.9 " />
<path d="M39.3705 37316.9 A1000 1000 0.0 0 0 969.614 38314.5 " />
<path d="M1914.37 39316.9 A1000 1000 0.0 0 0 984.127 38319.4 " />
<path d="M1914.37 46691.9 A1000 1000 0.0 0 0 2914.37 47691.9 " />
<path d="M64664.4 47691.9 A1000 1000 0.0 0 0 65664.4 46691.9 " />
<path d="M65664.4 1816.93 A1000 1000 0.0 0 0 64664.4 816.93 " />
<path d="M1914 14816
L1914 1816
" />
</g>
<g style="fill:#C2C200; fill-opacity:0.0; 
stroke:#C2C200; stroke-width:78.7402; stroke-opacity:1; 
stroke-linecap:round; stroke-linejoin:round;">
<path d="M65664 46691
L65664 1816
" />
<path d="M2914 47691
L64664 47691
" />
<path d="M1914 39316
L1914 46691
" />
<path d="M39 31816
L39 37316
" />
<path d="M2789 30816
L1039 30816
" />
<path d="M3789 24316
L3789 29816
" />
<path d="M1039 23316
L2789 23316
" />
<path d="M39 16816
L39 22316
" />
<path d="M64664 816
L2914 816
" />
</g> 
</svg>
