M48
;DRILL file {KiCad (5.0.0)} date 12/18/18 11:16:50
;FORMAT={3:3/ absolute / metric / suppress leading zeros}
FMAT,2
METRIC,TZ
T1C0.400
T2C0.850
T3C0.900
T4C1.000
T5C1.100
T6C3.000
T7C0.800
T8C0.900
T9C1.750
T10C2.200
T11C3.988
%
G90
G05
M71
T1
X44768Y-66675
X45403Y7620
X45403Y4445
X46673Y-85725
X46673Y-104775
X56832Y-47625
X57150Y-59531
X57150Y-66675
X58738Y7620
X58738Y4445
X58738Y-28575
X59531Y-33338
X60643Y-85725
X61913Y-10160
X61913Y-40481
X63861Y-6495
X64294Y-28575
X64453Y-66675
X64876Y-11767
X66358Y-104775
X66675Y-47625
X68263Y1905
X69533Y-28575
X70168Y-12065
X70803Y1905
X71438Y-40481
X71438Y-85725
X73819Y-78581
X75882Y-2540
X75882Y-47625
X79057Y5080
X80962Y-66675
X84138Y-2540
X85408Y-104775
X86678Y-28575
X88583Y-12065
X90488Y-85725
X93663Y-11430
X94298Y-47625
X95250Y-78581
X100012Y-66675
X101918Y-28575
X103188Y-18415
X103188Y-22225
X103823Y-635
X104458Y-104775
X106998Y-12065
X107156Y-40481
X107632Y-22225
X107632Y-26670
X109538Y-85725
X110807Y-20955
X113348Y-47625
X114618Y-635
X116523Y-26670
X119063Y-66675
X122873Y-34290
X122873Y-50800
X122873Y-104775
X123507Y-20955
X123507Y-26670
X126206Y-40481
X128588Y-21431
X128588Y-23813
X128588Y-85725
X131128Y-29210
X132398Y-39370
X132398Y-46355
X134302Y4445
X134302Y-32385
X135573Y-104775
X136023Y-43835
X138112Y-66675
X139382Y-39370
X144463Y-50800
X145098Y-46355
X146362Y-48141
X147638Y4445
X147638Y-43180
X147638Y-66675
X148908Y-104775
X151448Y-46990
X153987Y-40005
X158433Y-104775
X159068Y-53975
X159068Y-57785
X171450Y4763
X171450Y0
X176213Y-104775
X184721Y-13208
X187008Y-21336
X194374Y-21590
X195263Y4763
X195263Y0
X196406Y-16764
X196914Y-30988
X196914Y-45974
X196914Y-59690
X196914Y-74422
X196914Y-82042
X196914Y-91694
X196914Y-100330
X196914Y-104902
X38735Y-34798
X38735Y-36322
X55245Y-32258
X55245Y-33782
X57785Y-34798
X57785Y-36322
X74295Y-32258
X74295Y-33782
X162560Y-15748
X162560Y-17272
X179070Y-13208
X179070Y-14732
X133985Y-91948
X133985Y-93472
X150495Y-89408
X150495Y-90932
X38735Y-91948
X38735Y-93472
X55245Y-89408
X55245Y-90932
X155416Y-72898
X155416Y-74422
X171926Y-70358
X171926Y-71882
X129222Y-72898
X129222Y-74422
X145732Y-70358
X145732Y-71882
X76835Y-34798
X76835Y-36322
X93345Y-32258
X93345Y-33782
X176848Y-34798
X176848Y-36322
X193358Y-32258
X193358Y-33782
X67310Y-15748
X67310Y-17272
X83820Y-13208
X83820Y-14732
X105410Y-15748
X105410Y-17272
X121920Y-13208
X121920Y-14732
X95885Y-91948
X95885Y-93472
X112395Y-89408
X112395Y-90932
X169704Y-53848
X169704Y-55372
X186214Y-51308
X186214Y-52832
X110172Y-72898
X110172Y-74422
X126682Y-70358
X126682Y-71882
X114935Y-34798
X114935Y-36322
X131445Y-32258
X131445Y-33782
X81597Y-53848
X81597Y-55372
X98108Y-51308
X98108Y-52832
X100648Y-53848
X100648Y-55372
X117158Y-51308
X117158Y-52832
X138748Y-53848
X138748Y-55372
X155258Y-51308
X155258Y-52832
X72072Y-72898
X72072Y-74422
X88583Y-70358
X88583Y-71882
X91122Y-72898
X91122Y-74422
X107632Y-70358
X107632Y-71882
X119698Y-53848
X119698Y-55372
X136208Y-51308
X136208Y-52832
X62548Y-53848
X62548Y-55372
X79057Y-51308
X79057Y-52832
X181610Y-15748
X181610Y-17272
X198120Y-13208
X198120Y-14732
X53023Y-72898
X53023Y-74422
X69533Y-70358
X69533Y-71882
X43498Y-53848
X43498Y-55372
X60008Y-51308
X60008Y-52832
X124460Y-15748
X124460Y-17272
X140970Y-13208
X140970Y-14732
X57785Y-91948
X57785Y-93472
X74295Y-89408
X74295Y-90932
X153035Y-34798
X153035Y-36322
X169545Y-32258
X169545Y-33782
X143510Y-15748
X143510Y-17272
X160020Y-13208
X160020Y-14732
X133985Y-34798
X133985Y-36322
X150495Y-32258
X150495Y-33782
X86360Y-15748
X86360Y-17272
X102870Y-13208
X102870Y-14732
X181610Y-72898
X181610Y-74422
X198120Y-70358
X198120Y-71882
X48260Y-15748
X48260Y-17272
X64770Y-13208
X64770Y-14732
X95885Y-34798
X95885Y-36322
X112395Y-32258
X112395Y-33782
X114935Y-91948
X114935Y-93472
X131445Y-89408
X131445Y-90932
X76835Y-91948
X76835Y-93472
X93345Y-89408
X93345Y-90932
X33972Y-72898
X33972Y-74422
X50482Y-70358
X50482Y-71882
T2
X125730Y6985
X125730Y4445
X125730Y-3175
X128270Y-3175
X130810Y-3175
X133350Y-3175
X135890Y-3175
X138430Y-3175
X140970Y6985
X140970Y4445
X140970Y-3175
T4
X119062Y4763
X119062Y2222
X119062Y-318
X119062Y-2858
X161925Y-57150
X161925Y-59690
X161925Y-62230
T5
X67628Y7620
X67628Y-7620
X70168Y7620
X70168Y-7620
X72707Y7620
X72707Y-7620
X75248Y7620
X75248Y-7620
X77788Y7620
X77788Y-7620
X80328Y7620
X80328Y-7620
X82868Y7620
X82868Y-7620
X85408Y7620
X85408Y-7620
X87948Y7620
X87948Y-7620
X90488Y7620
X90488Y-7620
X93027Y7620
X93027Y-7620
X95568Y7620
X95568Y-7620
T6
X43815Y-35560
X50165Y-33020
X62865Y-35560
X69215Y-33020
X167640Y-16510
X173990Y-13970
X139065Y-92710
X145415Y-90170
X43815Y-92710
X50165Y-90170
X160496Y-73660
X166846Y-71120
X134302Y-73660
X140652Y-71120
X81915Y-35560
X88265Y-33020
X181928Y-35560
X188278Y-33020
X72390Y-16510
X78740Y-13970
X110490Y-16510
X116840Y-13970
X100965Y-92710
X107315Y-90170
X174784Y-54610
X181134Y-52070
X115252Y-73660
X121602Y-71120
X120015Y-35560
X126365Y-33020
X86678Y-54610
X93027Y-52070
X105728Y-54610
X112078Y-52070
X143828Y-54610
X150178Y-52070
X77153Y-73660
X83503Y-71120
X96202Y-73660
X102552Y-71120
X124778Y-54610
X131128Y-52070
X67628Y-54610
X73977Y-52070
X186690Y-16510
X193040Y-13970
X58103Y-73660
X64453Y-71120
X48578Y-54610
X54928Y-52070
X129540Y-16510
X135890Y-13970
X62865Y-92710
X69215Y-90170
X158115Y-35560
X164465Y-33020
X148590Y-16510
X154940Y-13970
X139065Y-35560
X145415Y-33020
X91440Y-16510
X97790Y-13970
X186690Y-73660
X193040Y-71120
X53340Y-16510
X59690Y-13970
X100965Y-35560
X107315Y-33020
X120015Y-92710
X126365Y-90170
X81915Y-92710
X88265Y-90170
X39053Y-73660
X45403Y-71120
T7
X42863Y7925
X42863Y925
X52388Y7925
X52388Y925
T8
X153472Y7285
X155772Y7285
T9
X52070Y-19050
X62230Y-19050
X99695Y-38100
X109855Y-38100
X118745Y-95250
X128905Y-95250
X80645Y-95250
X90805Y-95250
X37783Y-76200
X47943Y-76200
X42545Y-38100
X52705Y-38100
X61595Y-38100
X71755Y-38100
X166370Y-19050
X176530Y-19050
X137795Y-95250
X147955Y-95250
X42545Y-95250
X52705Y-95250
X159226Y-76200
X169386Y-76200
X133032Y-76200
X143192Y-76200
X80645Y-38100
X90805Y-38100
X180658Y-38100
X190818Y-38100
X71120Y-19050
X81280Y-19050
X109220Y-19050
X119380Y-19050
X99695Y-95250
X109855Y-95250
X173514Y-57150
X183674Y-57150
X113982Y-76200
X124142Y-76200
X118745Y-38100
X128905Y-38100
X85408Y-57150
X95568Y-57150
X104458Y-57150
X114618Y-57150
X142558Y-57150
X152718Y-57150
X75882Y-76200
X86043Y-76200
X94932Y-76200
X105092Y-76200
X123508Y-57150
X133668Y-57150
X66358Y-57150
X76518Y-57150
X185420Y-19050
X195580Y-19050
X56832Y-76200
X66993Y-76200
X47308Y-57150
X57468Y-57150
X128270Y-19050
X138430Y-19050
X61595Y-95250
X71755Y-95250
X156845Y-38100
X167005Y-38100
X147320Y-19050
X157480Y-19050
X137795Y-38100
X147955Y-38100
X90170Y-19050
X100330Y-19050
X185420Y-76200
X195580Y-76200
T10
X42863Y-9525
X114300Y-104775
X57150Y-104775
X52388Y-66675
X109538Y-66675
X180975Y-9525
X180975Y-104775
X114300Y-9525
X180975Y-66675
T11
X57150Y-19050
X104775Y-38100
X123825Y-95250
X85725Y-95250
X42863Y-76200
X47625Y-38100
X66675Y-38100
X171450Y-19050
X142875Y-95250
X47625Y-95250
X164306Y-76200
X138112Y-76200
X85725Y-38100
X185738Y-38100
X76200Y-19050
X114300Y-19050
X104775Y-95250
X178594Y-57150
X119062Y-76200
X123825Y-38100
X90488Y-57150
X109538Y-57150
X147638Y-57150
X80962Y-76200
X100012Y-76200
X128588Y-57150
X71438Y-57150
X190500Y-19050
X61913Y-76200
X52388Y-57150
X133350Y-19050
X66675Y-95250
X161925Y-38100
X152400Y-19050
X142875Y-38100
X95250Y-19050
X190500Y-76200
T3
X40563Y6125G85X40563Y6525
G05
X40563Y3125G85X40563Y3525
G05
X40563Y-875G85X40563Y-475
G05
X45163Y-1975G85X45163Y-1575
G05
X50088Y6125G85X50088Y6525
G05
X50088Y3125G85X50088Y3525
G05
X50088Y-875G85X50088Y-475
G05
X54688Y-1975G85X54688Y-1575
G05
T0
M30
