G04 #@! TF.GenerationSoftware,KiCad,Pcbnew,(5.0.0)*
G04 #@! TF.CreationDate,2018-12-18T11:16:47+09:00*
G04 #@! TF.ProjectId,hecomi_R,6865636F6D695F522E6B696361645F70,rev?*
G04 #@! TF.SameCoordinates,Original*
G04 #@! TF.FileFunction,Legend,Top*
G04 #@! TF.FilePolarity,Positive*
%FSLAX46Y46*%
G04 Gerber Fmt 4.6, Leading zero omitted, Abs format (unit mm)*
G04 Created by KiCad (PCBNEW (5.0.0)) date 12/18/18 11:16:47*
%MOMM*%
%LPD*%
G01*
G04 APERTURE LIST*
%ADD10C,0.120000*%
%ADD11C,0.150000*%
%ADD12C,0.010000*%
G04 APERTURE END LIST*
D10*
G04 #@! TO.C,J1*
X160595000Y-55820000D02*
X161925000Y-55820000D01*
X160595000Y-57150000D02*
X160595000Y-55820000D01*
X160595000Y-58420000D02*
X163255000Y-58420000D01*
X163255000Y-58420000D02*
X163255000Y-63560000D01*
X160595000Y-58420000D02*
X160595000Y-63560000D01*
X160595000Y-63560000D02*
X163255000Y-63560000D01*
G04 #@! TO.C,J3*
X117732000Y6092500D02*
X119062000Y6092500D01*
X117732000Y4762500D02*
X117732000Y6092500D01*
X117732000Y3492500D02*
X120392000Y3492500D01*
X120392000Y3492500D02*
X120392000Y-4187500D01*
X117732000Y3492500D02*
X117732000Y-4187500D01*
X117732000Y-4187500D02*
X120392000Y-4187500D01*
D11*
G04 #@! TO.C,U1*
X102947500Y6000000D02*
X102947500Y0D01*
X111947500Y6000000D02*
X102947500Y6000000D01*
X111947500Y-6000000D02*
X111947500Y6000000D01*
X102947500Y-6000000D02*
X111947500Y-6000000D01*
X102947500Y0D02*
X102947500Y-6000000D01*
X102947500Y3500000D02*
X99447500Y3500000D01*
X102947500Y-3500000D02*
X102947500Y3500000D01*
X99447500Y-3500000D02*
X102947500Y-3500000D01*
X96837500Y8890000D02*
X66357500Y8890000D01*
X96837500Y8890000D02*
X96837500Y3810000D01*
X96837500Y3810000D02*
X99377500Y3810000D01*
X99377500Y3810000D02*
X99377500Y-3810000D01*
X99377500Y-3810000D02*
X96837500Y-3810000D01*
X96837500Y-3810000D02*
X96837500Y-8890000D01*
X96837500Y-8890000D02*
X66357500Y-8890000D01*
X66357500Y-8890000D02*
X66357500Y8890000D01*
D12*
G04 #@! TO.C,LOGO1*
G36*
X171450000Y-89492667D02*
X173402707Y-89492667D01*
X173378854Y-90486475D01*
X173355000Y-91480284D01*
X171508565Y-91484038D01*
X170839330Y-91481350D01*
X170304346Y-91470575D01*
X169912785Y-91452114D01*
X169673817Y-91426367D01*
X169598371Y-91400396D01*
X169579782Y-91293163D01*
X169563814Y-91042641D01*
X169551264Y-90674861D01*
X169542933Y-90215857D01*
X169539619Y-89691663D01*
X169539806Y-89492667D01*
X169545000Y-87672334D01*
X171450000Y-87624454D01*
X171450000Y-89492667D01*
X171450000Y-89492667D01*
G37*
X171450000Y-89492667D02*
X173402707Y-89492667D01*
X173378854Y-90486475D01*
X173355000Y-91480284D01*
X171508565Y-91484038D01*
X170839330Y-91481350D01*
X170304346Y-91470575D01*
X169912785Y-91452114D01*
X169673817Y-91426367D01*
X169598371Y-91400396D01*
X169579782Y-91293163D01*
X169563814Y-91042641D01*
X169551264Y-90674861D01*
X169542933Y-90215857D01*
X169539619Y-89691663D01*
X169539806Y-89492667D01*
X169545000Y-87672334D01*
X171450000Y-87624454D01*
X171450000Y-89492667D01*
G36*
X179070000Y-95250000D02*
X177161049Y-95250000D01*
X177174104Y-94339834D01*
X177180332Y-93961960D01*
X177187018Y-93648164D01*
X177193262Y-93436303D01*
X177197246Y-93366167D01*
X177280450Y-93340622D01*
X177498300Y-93319987D01*
X177816132Y-93306600D01*
X178138667Y-93302667D01*
X179070000Y-93302667D01*
X179070000Y-95250000D01*
X179070000Y-95250000D01*
G37*
X179070000Y-95250000D02*
X177161049Y-95250000D01*
X177174104Y-94339834D01*
X177180332Y-93961960D01*
X177187018Y-93648164D01*
X177193262Y-93436303D01*
X177197246Y-93366167D01*
X177280450Y-93340622D01*
X177498300Y-93319987D01*
X177816132Y-93306600D01*
X178138667Y-93302667D01*
X179070000Y-93302667D01*
X179070000Y-95250000D01*
G36*
X167084181Y-93308063D02*
X167389151Y-93322693D01*
X167588911Y-93344218D01*
X167650087Y-93366167D01*
X167655362Y-93472236D01*
X167661780Y-93709769D01*
X167668442Y-94040909D01*
X167673229Y-94339834D01*
X167686284Y-95250000D01*
X165777334Y-95250000D01*
X165777334Y-93302667D01*
X166708667Y-93302667D01*
X167084181Y-93308063D01*
X167084181Y-93308063D01*
G37*
X167084181Y-93308063D02*
X167389151Y-93322693D01*
X167588911Y-93344218D01*
X167650087Y-93366167D01*
X167655362Y-93472236D01*
X167661780Y-93709769D01*
X167668442Y-94040909D01*
X167673229Y-94339834D01*
X167686284Y-95250000D01*
X165777334Y-95250000D01*
X165777334Y-93302667D01*
X166708667Y-93302667D01*
X167084181Y-93308063D01*
G36*
X179070000Y-98086334D02*
X179112334Y-99017667D01*
X180890334Y-99017667D01*
X180914273Y-99970167D01*
X180938213Y-100922667D01*
X179070000Y-100922667D01*
X179070000Y-102870000D01*
X167678559Y-102870000D01*
X167680446Y-101917500D01*
X167682334Y-100965000D01*
X166751000Y-100922667D01*
X165819667Y-100880334D01*
X165819667Y-99017667D01*
X166680445Y-99017667D01*
X166698047Y-99017353D01*
X167680493Y-99017353D01*
X167680493Y-100922667D01*
X179070000Y-100922667D01*
X179070000Y-99017353D01*
X167680493Y-99017353D01*
X166698047Y-99017353D01*
X167048641Y-99011099D01*
X167353121Y-98993390D01*
X167554356Y-98967536D01*
X167611778Y-98947111D01*
X167641420Y-98837336D01*
X167664925Y-98597786D01*
X167679301Y-98267991D01*
X167682334Y-98015778D01*
X167682334Y-97155000D01*
X179027667Y-97155000D01*
X179070000Y-98086334D01*
X179070000Y-98086334D01*
G37*
X179070000Y-98086334D02*
X179112334Y-99017667D01*
X180890334Y-99017667D01*
X180914273Y-99970167D01*
X180938213Y-100922667D01*
X179070000Y-100922667D01*
X179070000Y-102870000D01*
X167678559Y-102870000D01*
X167680446Y-101917500D01*
X167682334Y-100965000D01*
X166751000Y-100922667D01*
X165819667Y-100880334D01*
X165819667Y-99017667D01*
X166680445Y-99017667D01*
X166698047Y-99017353D01*
X167680493Y-99017353D01*
X167680493Y-100922667D01*
X179070000Y-100922667D01*
X179070000Y-99017353D01*
X167680493Y-99017353D01*
X166698047Y-99017353D01*
X167048641Y-99011099D01*
X167353121Y-98993390D01*
X167554356Y-98967536D01*
X167611778Y-98947111D01*
X167641420Y-98837336D01*
X167664925Y-98597786D01*
X167679301Y-98267991D01*
X167682334Y-98015778D01*
X167682334Y-97155000D01*
X179027667Y-97155000D01*
X179070000Y-98086334D01*
G36*
X163830000Y-91486313D02*
X163004500Y-91480250D01*
X162638950Y-91481000D01*
X162332545Y-91487978D01*
X162128048Y-91499888D01*
X162073167Y-91508486D01*
X162051412Y-91548733D01*
X162032642Y-91661040D01*
X162016672Y-91855417D01*
X162003316Y-92141875D01*
X161992387Y-92530423D01*
X161983699Y-93031072D01*
X161977068Y-93653831D01*
X161972306Y-94408712D01*
X161969228Y-95305724D01*
X161967648Y-96354877D01*
X161967334Y-97206392D01*
X161967334Y-102870000D01*
X160022253Y-102870000D01*
X159977667Y-97155000D01*
X158199667Y-97155000D01*
X158175727Y-96202500D01*
X158151788Y-95250000D01*
X156294667Y-95250000D01*
X156294667Y-93302667D01*
X157226000Y-93302667D01*
X157667336Y-93308501D01*
X157958601Y-93327421D01*
X158118701Y-93361555D01*
X158166427Y-93408500D01*
X158171447Y-93534350D01*
X158177599Y-93787458D01*
X158183950Y-94125764D01*
X158187594Y-94361000D01*
X158199667Y-95207667D01*
X159108206Y-95231681D01*
X160016745Y-95255696D01*
X160039539Y-93369015D01*
X160062334Y-91482334D01*
X161967334Y-91434454D01*
X161967334Y-87630000D01*
X163830000Y-87630000D01*
X163830000Y-91486313D01*
X163830000Y-91486313D01*
G37*
X163830000Y-91486313D02*
X163004500Y-91480250D01*
X162638950Y-91481000D01*
X162332545Y-91487978D01*
X162128048Y-91499888D01*
X162073167Y-91508486D01*
X162051412Y-91548733D01*
X162032642Y-91661040D01*
X162016672Y-91855417D01*
X162003316Y-92141875D01*
X161992387Y-92530423D01*
X161983699Y-93031072D01*
X161977068Y-93653831D01*
X161972306Y-94408712D01*
X161969228Y-95305724D01*
X161967648Y-96354877D01*
X161967334Y-97206392D01*
X161967334Y-102870000D01*
X160022253Y-102870000D01*
X159977667Y-97155000D01*
X158199667Y-97155000D01*
X158175727Y-96202500D01*
X158151788Y-95250000D01*
X156294667Y-95250000D01*
X156294667Y-93302667D01*
X157226000Y-93302667D01*
X157667336Y-93308501D01*
X157958601Y-93327421D01*
X158118701Y-93361555D01*
X158166427Y-93408500D01*
X158171447Y-93534350D01*
X158177599Y-93787458D01*
X158183950Y-94125764D01*
X158187594Y-94361000D01*
X158199667Y-95207667D01*
X159108206Y-95231681D01*
X160016745Y-95255696D01*
X160039539Y-93369015D01*
X160062334Y-91482334D01*
X161967334Y-91434454D01*
X161967334Y-87630000D01*
X163830000Y-87630000D01*
X163830000Y-91486313D01*
G36*
X165777334Y-102870000D02*
X165777334Y-104732667D01*
X161967334Y-104732667D01*
X161967334Y-102870000D01*
X165777334Y-102870000D01*
X165777334Y-102870000D01*
G37*
X165777334Y-102870000D02*
X165777334Y-104732667D01*
X161967334Y-104732667D01*
X161967334Y-102870000D01*
X165777334Y-102870000D01*
G36*
X180932667Y-104732667D02*
X180932667Y-106680000D01*
X173411445Y-106680000D01*
X172297505Y-106679379D01*
X171232132Y-106677575D01*
X170227473Y-106674679D01*
X169295676Y-106670782D01*
X168448886Y-106665974D01*
X167699252Y-106660345D01*
X167058921Y-106653986D01*
X166540040Y-106646988D01*
X166154757Y-106639441D01*
X165915217Y-106631435D01*
X165833778Y-106623556D01*
X165810792Y-106520596D01*
X165792317Y-106285635D01*
X165780515Y-105955989D01*
X165777334Y-105649889D01*
X165777334Y-104732667D01*
X180932667Y-104732667D01*
X180932667Y-104732667D01*
G37*
X180932667Y-104732667D02*
X180932667Y-106680000D01*
X173411445Y-106680000D01*
X172297505Y-106679379D01*
X171232132Y-106677575D01*
X170227473Y-106674679D01*
X169295676Y-106670782D01*
X168448886Y-106665974D01*
X167699252Y-106660345D01*
X167058921Y-106653986D01*
X166540040Y-106646988D01*
X166154757Y-106639441D01*
X165915217Y-106631435D01*
X165833778Y-106623556D01*
X165810792Y-106520596D01*
X165792317Y-106285635D01*
X165780515Y-105955989D01*
X165777334Y-105649889D01*
X165777334Y-104732667D01*
X180932667Y-104732667D01*
G36*
X180932667Y-102873179D02*
X182858834Y-102850423D01*
X184785000Y-102827667D01*
X184785000Y-93345000D01*
X183811112Y-93302667D01*
X182837225Y-93260334D01*
X182837667Y-89535000D01*
X182033334Y-89521061D01*
X181666025Y-89514222D01*
X181351788Y-89507507D01*
X181136981Y-89501946D01*
X181080834Y-89499895D01*
X181015564Y-89479828D01*
X180972669Y-89407975D01*
X180947593Y-89255445D01*
X180935780Y-88993348D01*
X180932676Y-88592793D01*
X180932667Y-88560207D01*
X180932667Y-87627748D01*
X178075954Y-87650041D01*
X175219240Y-87672334D01*
X175218454Y-88552755D01*
X175217348Y-88965196D01*
X175196316Y-89242760D01*
X175127475Y-89411731D01*
X174982940Y-89498393D01*
X174734829Y-89529031D01*
X174355258Y-89529929D01*
X174183811Y-89528059D01*
X173439667Y-89521118D01*
X173415727Y-88575559D01*
X173391788Y-87630000D01*
X175169788Y-87630000D01*
X175193727Y-86680754D01*
X175217667Y-85731509D01*
X182837667Y-85729915D01*
X182883225Y-89487151D01*
X183834113Y-89511076D01*
X184785000Y-89535000D01*
X184807787Y-91418834D01*
X184830573Y-93302667D01*
X186690000Y-93302667D01*
X186690000Y-102870000D01*
X184827334Y-102870000D01*
X184827334Y-104732667D01*
X180932667Y-104732667D01*
X180932667Y-102873179D01*
X180932667Y-102873179D01*
G37*
X180932667Y-102873179D02*
X182858834Y-102850423D01*
X184785000Y-102827667D01*
X184785000Y-93345000D01*
X183811112Y-93302667D01*
X182837225Y-93260334D01*
X182837667Y-89535000D01*
X182033334Y-89521061D01*
X181666025Y-89514222D01*
X181351788Y-89507507D01*
X181136981Y-89501946D01*
X181080834Y-89499895D01*
X181015564Y-89479828D01*
X180972669Y-89407975D01*
X180947593Y-89255445D01*
X180935780Y-88993348D01*
X180932676Y-88592793D01*
X180932667Y-88560207D01*
X180932667Y-87627748D01*
X178075954Y-87650041D01*
X175219240Y-87672334D01*
X175218454Y-88552755D01*
X175217348Y-88965196D01*
X175196316Y-89242760D01*
X175127475Y-89411731D01*
X174982940Y-89498393D01*
X174734829Y-89529031D01*
X174355258Y-89529929D01*
X174183811Y-89528059D01*
X173439667Y-89521118D01*
X173415727Y-88575559D01*
X173391788Y-87630000D01*
X175169788Y-87630000D01*
X175193727Y-86680754D01*
X175217667Y-85731509D01*
X182837667Y-85729915D01*
X182883225Y-89487151D01*
X183834113Y-89511076D01*
X184785000Y-89535000D01*
X184807787Y-91418834D01*
X184830573Y-93302667D01*
X186690000Y-93302667D01*
X186690000Y-102870000D01*
X184827334Y-102870000D01*
X184827334Y-104732667D01*
X180932667Y-104732667D01*
X180932667Y-102873179D01*
G36*
X163830000Y-86708542D02*
X163832996Y-86298266D01*
X163845074Y-86027417D01*
X163870863Y-85866149D01*
X163914998Y-85784612D01*
X163978167Y-85753811D01*
X164087920Y-85747814D01*
X164341766Y-85742965D01*
X164714470Y-85739245D01*
X165180797Y-85736634D01*
X165715509Y-85735112D01*
X166293372Y-85734660D01*
X166889150Y-85735257D01*
X167477607Y-85736885D01*
X168033507Y-85739523D01*
X168531615Y-85743152D01*
X168946694Y-85747751D01*
X169253510Y-85753302D01*
X169396834Y-85758050D01*
X169480050Y-85769386D01*
X169534646Y-85813527D01*
X169566647Y-85920219D01*
X169582076Y-86119212D01*
X169586959Y-86440254D01*
X169587334Y-86698667D01*
X169587334Y-87630000D01*
X163830000Y-87630000D01*
X163830000Y-86708542D01*
X163830000Y-86708542D01*
G37*
X163830000Y-86708542D02*
X163832996Y-86298266D01*
X163845074Y-86027417D01*
X163870863Y-85866149D01*
X163914998Y-85784612D01*
X163978167Y-85753811D01*
X164087920Y-85747814D01*
X164341766Y-85742965D01*
X164714470Y-85739245D01*
X165180797Y-85736634D01*
X165715509Y-85735112D01*
X166293372Y-85734660D01*
X166889150Y-85735257D01*
X167477607Y-85736885D01*
X168033507Y-85739523D01*
X168531615Y-85743152D01*
X168946694Y-85747751D01*
X169253510Y-85753302D01*
X169396834Y-85758050D01*
X169480050Y-85769386D01*
X169534646Y-85813527D01*
X169566647Y-85920219D01*
X169582076Y-86119212D01*
X169586959Y-86440254D01*
X169587334Y-86698667D01*
X169587334Y-87630000D01*
X163830000Y-87630000D01*
X163830000Y-86708542D01*
G04 #@! TO.C,J1*
D11*
X161591666Y-54272380D02*
X161591666Y-54986666D01*
X161544047Y-55129523D01*
X161448809Y-55224761D01*
X161305952Y-55272380D01*
X161210714Y-55272380D01*
X162591666Y-55272380D02*
X162020238Y-55272380D01*
X162305952Y-55272380D02*
X162305952Y-54272380D01*
X162210714Y-54415238D01*
X162115476Y-54510476D01*
X162020238Y-54558095D01*
G04 #@! TO.C,J3*
X118728666Y7640119D02*
X118728666Y6925833D01*
X118681047Y6782976D01*
X118585809Y6687738D01*
X118442952Y6640119D01*
X118347714Y6640119D01*
X119109619Y7640119D02*
X119728666Y7640119D01*
X119395333Y7259166D01*
X119538190Y7259166D01*
X119633428Y7211547D01*
X119681047Y7163928D01*
X119728666Y7068690D01*
X119728666Y6830595D01*
X119681047Y6735357D01*
X119633428Y6687738D01*
X119538190Y6640119D01*
X119252476Y6640119D01*
X119157238Y6687738D01*
X119109619Y6735357D01*
G04 #@! TO.C,U1*
X111614166Y-3052380D02*
X111947500Y-4052380D01*
X112280833Y-3052380D01*
X112947500Y-3528571D02*
X113090357Y-3576190D01*
X113137976Y-3623809D01*
X113185595Y-3719047D01*
X113185595Y-3861904D01*
X113137976Y-3957142D01*
X113090357Y-4004761D01*
X112995119Y-4052380D01*
X112614166Y-4052380D01*
X112614166Y-3052380D01*
X112947500Y-3052380D01*
X113042738Y-3100000D01*
X113090357Y-3147619D01*
X113137976Y-3242857D01*
X113137976Y-3338095D01*
X113090357Y-3433333D01*
X113042738Y-3480952D01*
X112947500Y-3528571D01*
X112614166Y-3528571D01*
X113614166Y-3052380D02*
X113614166Y-3861904D01*
X113661785Y-3957142D01*
X113709404Y-4004761D01*
X113804642Y-4052380D01*
X113995119Y-4052380D01*
X114090357Y-4004761D01*
X114137976Y-3957142D01*
X114185595Y-3861904D01*
X114185595Y-3052380D01*
X114614166Y-4004761D02*
X114757023Y-4052380D01*
X114995119Y-4052380D01*
X115090357Y-4004761D01*
X115137976Y-3957142D01*
X115185595Y-3861904D01*
X115185595Y-3766666D01*
X115137976Y-3671428D01*
X115090357Y-3623809D01*
X114995119Y-3576190D01*
X114804642Y-3528571D01*
X114709404Y-3480952D01*
X114661785Y-3433333D01*
X114614166Y-3338095D01*
X114614166Y-3242857D01*
X114661785Y-3147619D01*
X114709404Y-3100000D01*
X114804642Y-3052380D01*
X115042738Y-3052380D01*
X115185595Y-3100000D01*
X112566547Y-1652380D02*
X112566547Y-652380D01*
X112804642Y-652380D01*
X112947500Y-700000D01*
X113042738Y-795238D01*
X113090357Y-890476D01*
X113137976Y-1080952D01*
X113137976Y-1223809D01*
X113090357Y-1414285D01*
X113042738Y-1509523D01*
X112947500Y-1604761D01*
X112804642Y-1652380D01*
X112566547Y-1652380D01*
X113566547Y-1271428D02*
X114328452Y-1271428D01*
X112566547Y747619D02*
X112566547Y1747619D01*
X112804642Y1747619D01*
X112947500Y1700000D01*
X113042738Y1604761D01*
X113090357Y1509523D01*
X113137976Y1319047D01*
X113137976Y1176190D01*
X113090357Y985714D01*
X113042738Y890476D01*
X112947500Y795238D01*
X112804642Y747619D01*
X112566547Y747619D01*
X113566547Y1128571D02*
X114328452Y1128571D01*
X113947500Y747619D02*
X113947500Y1509523D01*
X112685595Y4100000D02*
X112590357Y4147619D01*
X112447500Y4147619D01*
X112304642Y4100000D01*
X112209404Y4004761D01*
X112161785Y3909523D01*
X112114166Y3719047D01*
X112114166Y3576190D01*
X112161785Y3385714D01*
X112209404Y3290476D01*
X112304642Y3195238D01*
X112447500Y3147619D01*
X112542738Y3147619D01*
X112685595Y3195238D01*
X112733214Y3242857D01*
X112733214Y3576190D01*
X112542738Y3576190D01*
X113161785Y3147619D02*
X113161785Y4147619D01*
X113733214Y3147619D01*
X113733214Y4147619D01*
X114209404Y3147619D02*
X114209404Y4147619D01*
X114447500Y4147619D01*
X114590357Y4100000D01*
X114685595Y4004761D01*
X114733214Y3909523D01*
X114780833Y3719047D01*
X114780833Y3576190D01*
X114733214Y3385714D01*
X114685595Y3290476D01*
X114590357Y3195238D01*
X114447500Y3147619D01*
X114209404Y3147619D01*
G04 #@! TO.C,SW41*
X152812476Y11980238D02*
X152955333Y11932619D01*
X153193428Y11932619D01*
X153288666Y11980238D01*
X153336285Y12027857D01*
X153383904Y12123095D01*
X153383904Y12218333D01*
X153336285Y12313571D01*
X153288666Y12361190D01*
X153193428Y12408809D01*
X153002952Y12456428D01*
X152907714Y12504047D01*
X152860095Y12551666D01*
X152812476Y12646904D01*
X152812476Y12742142D01*
X152860095Y12837380D01*
X152907714Y12885000D01*
X153002952Y12932619D01*
X153241047Y12932619D01*
X153383904Y12885000D01*
X153717238Y12932619D02*
X153955333Y11932619D01*
X154145809Y12646904D01*
X154336285Y11932619D01*
X154574380Y12932619D01*
X155383904Y12599285D02*
X155383904Y11932619D01*
X155145809Y12980238D02*
X154907714Y12265952D01*
X155526761Y12265952D01*
X156431523Y11932619D02*
X155860095Y11932619D01*
X156145809Y11932619D02*
X156145809Y12932619D01*
X156050571Y12789761D01*
X155955333Y12694523D01*
X155860095Y12646904D01*
G04 #@! TD*
M02*
