G04 #@! TF.GenerationSoftware,KiCad,Pcbnew,(5.0.0)*
G04 #@! TF.CreationDate,2018-12-18T11:16:47+09:00*
G04 #@! TF.ProjectId,hecomi_R,6865636F6D695F522E6B696361645F70,rev?*
G04 #@! TF.SameCoordinates,Original*
G04 #@! TF.FileFunction,Profile,NP*
%FSLAX46Y46*%
G04 Gerber Fmt 4.6, Leading zero omitted, Abs format (unit mm)*
G04 Created by KiCad (PCBNEW (5.0.0)) date 12/18/18 11:16:47*
%MOMM*%
%LPD*%
G01*
G04 APERTURE LIST*
%ADD10C,0.200000*%
%ADD11C,0.150000*%
G04 APERTURE END LIST*
D10*
X40481250Y-107156250D02*
G75*
G02X38100000Y-104775000I0J2381250D01*
G01*
X200025000Y-104775000D02*
G75*
G02X197643750Y-107156250I-2381250J0D01*
G01*
D11*
X38100000Y6985000D02*
G75*
G02X40640000Y9525000I2540000J0D01*
G01*
X35700319Y-28581187D02*
G75*
G03X33337500Y-31115000I177181J-2533813D01*
G01*
X35737181Y-28568813D02*
G75*
G03X38100000Y-26035000I-177181J2533813D01*
G01*
X35877500Y-47625000D02*
G75*
G02X33337500Y-45085000I0J2540000D01*
G01*
X40322500Y-47625000D02*
G75*
G02X42862500Y-50165000I0J-2540000D01*
G01*
X42862500Y-64135000D02*
G75*
G02X40322500Y-66675000I-2540000J0D01*
G01*
X33337500Y-69215000D02*
G75*
G02X35877500Y-66675000I2540000J0D01*
G01*
X35700319Y-85718813D02*
G75*
G02X33337500Y-83185000I177181J2533813D01*
G01*
X35737181Y-85731187D02*
G75*
G02X38100000Y-88265000I-177181J-2533813D01*
G01*
X197485000Y9525000D02*
G75*
G02X200025000Y6985000I0J-2540000D01*
G01*
X38100000Y-26035000D02*
X38100000Y6985000D01*
D10*
X200025000Y-104775000D02*
X200025000Y6985000D01*
X40481250Y-107156250D02*
X197643750Y-107156250D01*
X38100000Y-88265000D02*
X38100000Y-104775000D01*
X33337500Y-69215000D02*
X33337500Y-83185000D01*
X40322500Y-66675000D02*
X35877500Y-66675000D01*
X42862500Y-50165000D02*
X42862500Y-64135000D01*
X35877500Y-47625000D02*
X40322500Y-47625000D01*
X33337500Y-31115000D02*
X33337500Y-45085000D01*
X197485000Y9525000D02*
X40640000Y9525000D01*
M02*
