M48
;DRILL file {KiCad (5.0.0)} date 12/18/18 10:24:32
;FORMAT={3:3/ absolute / metric / suppress leading zeros}
FMAT,2
METRIC,TZ
T1C0.400
T2C0.600
T3C0.850
T4C0.900
T5C1.000
T6C1.100
T7C3.000
T8C0.800
T9C0.900
T10C1.750
T11C2.200
T12C3.988
%
G90
G05
M71
T1
X33972Y-91948
X33972Y-93472
X50482Y-89408
X50482Y-90932
X91122Y-72898
X91122Y-74422
X107632Y-70358
X107632Y-71882
X95885Y-34798
X95885Y-36322
X112395Y-32258
X112395Y-33782
X29210Y-15748
X29210Y-17272
X45720Y-13208
X45720Y-14732
X57785Y-91948
X57785Y-93472
X74295Y-89408
X74295Y-90932
X48260Y-15748
X48260Y-17272
X64770Y-13208
X64770Y-14732
X36354Y-53848
X36354Y-55372
X52864Y-51308
X52864Y-52832
X133985Y-34798
X133985Y-36322
X150495Y-32258
X150495Y-33782
X76835Y-91948
X76835Y-93472
X93345Y-89408
X93345Y-90932
X114935Y-34798
X114935Y-36322
X131445Y-32258
X131445Y-33782
X119698Y-53848
X119698Y-55372
X136208Y-51308
X136208Y-52832
X110172Y-72898
X110172Y-74422
X126682Y-70358
X126682Y-71882
X95885Y-91948
X95885Y-93472
X112395Y-89408
X112395Y-90932
X72072Y-72898
X72072Y-74422
X88583Y-70358
X88583Y-71882
X86360Y-15748
X86360Y-17272
X102870Y-13208
X102870Y-14732
X62548Y-53848
X62548Y-55372
X79057Y-51308
X79057Y-52832
X67310Y-15748
X67310Y-17272
X83820Y-13208
X83820Y-14732
X114935Y-91948
X114935Y-93472
X131445Y-89408
X131445Y-90932
X41116Y-72898
X41116Y-74422
X57626Y-70358
X57626Y-71882
X105410Y-15748
X105410Y-17272
X121920Y-13208
X121920Y-14732
X81597Y-53848
X81597Y-55372
X98108Y-51308
X98108Y-52832
X129222Y-72898
X129222Y-74422
X145732Y-70358
X145732Y-71882
X133985Y-91948
X133985Y-93472
X150495Y-89408
X150495Y-90932
X33972Y-34798
X33972Y-36322
X50482Y-32258
X50482Y-33782
X57785Y-34798
X57785Y-36322
X74295Y-32258
X74295Y-33782
X143510Y-15748
X143510Y-17272
X160020Y-13208
X160020Y-14732
X148272Y-72898
X148272Y-74422
X164782Y-70358
X164782Y-71882
X138748Y-53848
X138748Y-55372
X155258Y-51308
X155258Y-52832
X76835Y-34798
X76835Y-36322
X93345Y-32258
X93345Y-33782
X124460Y-15748
X124460Y-17272
X140970Y-13208
X140970Y-14732
X153035Y-34798
X153035Y-36322
X169545Y-32258
X169545Y-33782
X100648Y-53848
X100648Y-55372
X117158Y-51308
X117158Y-52832
T2
X31052Y6350
X34862Y3048
X35116Y-25146
X37037Y-4944
X37148Y4572
X40196Y4826
X42482Y5588
X42482Y-21336
X45022Y-23876
X48324Y-41656
X49086Y-25654
X50392Y-14454
X50610Y-46736
X70168Y7112
X75756Y7112
X90488Y762
X92266Y6858
X97092Y6858
X111316Y6858
X121984Y6858
X122555Y-16108
X132652Y4826
T3
X87376Y7112
X87376Y4572
X87376Y-3048
X89916Y-3048
X92456Y-3048
X94996Y-3048
X97536Y-3048
X100076Y-3048
X102616Y7112
X102616Y4572
X102616Y-3048
T5
X33020Y-55880
X33020Y-58420
X33020Y-60960
X83185Y4445
X83185Y1905
X83185Y-635
X83185Y-3175
T6
X33655Y7620
X33655Y-7620
X36195Y7620
X36195Y-7620
X38735Y7620
X38735Y-7620
X41275Y7620
X41275Y-7620
X43815Y7620
X43815Y-7620
X46355Y7620
X46355Y-7620
X48895Y7620
X48895Y-7620
X51435Y7620
X51435Y-7620
X53975Y7620
X53975Y-7620
X56515Y7620
X56515Y-7620
X59055Y7620
X59055Y-7620
X61595Y7620
X61595Y-7620
T7
X62865Y-92710
X69215Y-90170
X53340Y-16510
X59690Y-13970
X41434Y-54610
X47784Y-52070
X139065Y-35560
X145415Y-33020
X81915Y-92710
X88265Y-90170
X120015Y-35560
X126365Y-33020
X124778Y-54610
X131128Y-52070
X115252Y-73660
X121602Y-71120
X100965Y-92710
X107315Y-90170
X77153Y-73660
X83503Y-71120
X91440Y-16510
X97790Y-13970
X67628Y-54610
X73977Y-52070
X72390Y-16510
X78740Y-13970
X120015Y-92710
X126365Y-90170
X46196Y-73660
X52546Y-71120
X110490Y-16510
X116840Y-13970
X86678Y-54610
X93027Y-52070
X134302Y-73660
X140652Y-71120
X139065Y-92710
X145415Y-90170
X39053Y-35560
X45403Y-33020
X62865Y-35560
X69215Y-33020
X148590Y-16510
X154940Y-13970
X153352Y-73660
X159702Y-71120
X143828Y-54610
X150178Y-52070
X81915Y-35560
X88265Y-33020
X129540Y-16510
X135890Y-13970
X158115Y-35560
X164465Y-33020
X105728Y-54610
X112078Y-52070
X39053Y-92710
X45403Y-90170
X96202Y-73660
X102552Y-71120
X100965Y-35560
X107315Y-33020
X34290Y-16510
X40640Y-13970
T8
X152400Y7925
X152400Y925
X142875Y7925
X142875Y925
T9
X29926Y642
X29926Y-1658
T10
X37783Y-95250
X47943Y-95250
X94932Y-76200
X105092Y-76200
X99695Y-38100
X109855Y-38100
X33020Y-19050
X43180Y-19050
X61595Y-95250
X71755Y-95250
X52070Y-19050
X62230Y-19050
X40164Y-57150
X50324Y-57150
X137795Y-38100
X147955Y-38100
X80645Y-95250
X90805Y-95250
X118745Y-38100
X128905Y-38100
X123508Y-57150
X133668Y-57150
X113982Y-76200
X124142Y-76200
X99695Y-95250
X109855Y-95250
X75882Y-76200
X86043Y-76200
X90170Y-19050
X100330Y-19050
X66358Y-57150
X76518Y-57150
X71120Y-19050
X81280Y-19050
X118745Y-95250
X128905Y-95250
X44926Y-76200
X55086Y-76200
X109220Y-19050
X119380Y-19050
X85408Y-57150
X95568Y-57150
X133032Y-76200
X143192Y-76200
X137795Y-95250
X147955Y-95250
X37783Y-38100
X47943Y-38100
X61595Y-38100
X71755Y-38100
X147320Y-19050
X157480Y-19050
X152082Y-76200
X162242Y-76200
X142558Y-57150
X152718Y-57150
X80645Y-38100
X90805Y-38100
X128270Y-19050
X138430Y-19050
X156845Y-38100
X167005Y-38100
X104458Y-57150
X114618Y-57150
T11
X95250Y-28575
X100012Y-66675
X142875Y-28575
X138112Y-66675
X57150Y-85725
X47625Y-28575
X57150Y-66675
X133350Y-85725
X95250Y-85725
T12
X138112Y-76200
X142875Y-95250
X42863Y-38100
X66675Y-38100
X152400Y-19050
X157162Y-76200
X147638Y-57150
X85725Y-38100
X133350Y-19050
X161925Y-38100
X109538Y-57150
X42863Y-95250
X100012Y-76200
X104775Y-38100
X38100Y-19050
X66675Y-95250
X57150Y-19050
X45244Y-57150
X142875Y-38100
X85725Y-95250
X123825Y-38100
X128588Y-57150
X119062Y-76200
X104775Y-95250
X80962Y-76200
X95250Y-19050
X71438Y-57150
X76200Y-19050
X123825Y-95250
X50006Y-76200
X114300Y-19050
X90488Y-57150
T4
X150100Y6125G85X150100Y6525
G05
X150100Y3125G85X150100Y3525
G05
X150100Y-875G85X150100Y-475
G05
X154700Y-1975G85X154700Y-1575
G05
X140575Y6125G85X140575Y6525
G05
X140575Y3125G85X140575Y3525
G05
X140575Y-875G85X140575Y-475
G05
X145175Y-1975G85X145175Y-1575
G05
T0
M30
