G04 #@! TF.GenerationSoftware,KiCad,Pcbnew,(5.0.0)*
G04 #@! TF.CreationDate,2018-12-18T10:24:29+09:00*
G04 #@! TF.ProjectId,hecomi,6865636F6D692E6B696361645F706362,rev?*
G04 #@! TF.SameCoordinates,Original*
G04 #@! TF.FileFunction,Legend,Bot*
G04 #@! TF.FilePolarity,Positive*
%FSLAX46Y46*%
G04 Gerber Fmt 4.6, Leading zero omitted, Abs format (unit mm)*
G04 Created by KiCad (PCBNEW (5.0.0)) date 12/18/18 10:24:29*
%MOMM*%
%LPD*%
G01*
G04 APERTURE LIST*
%ADD10C,0.300000*%
%ADD11C,0.150000*%
%ADD12C,0.120000*%
G04 APERTURE END LIST*
D10*
X80721928Y-100691071D02*
X80721928Y-99191071D01*
X80079071Y-100691071D02*
X80079071Y-99905357D01*
X80150500Y-99762500D01*
X80293357Y-99691071D01*
X80507642Y-99691071D01*
X80650500Y-99762500D01*
X80721928Y-99833928D01*
X78793357Y-100619642D02*
X78936214Y-100691071D01*
X79221928Y-100691071D01*
X79364785Y-100619642D01*
X79436214Y-100476785D01*
X79436214Y-99905357D01*
X79364785Y-99762500D01*
X79221928Y-99691071D01*
X78936214Y-99691071D01*
X78793357Y-99762500D01*
X78721928Y-99905357D01*
X78721928Y-100048214D01*
X79436214Y-100191071D01*
X77436214Y-100619642D02*
X77579071Y-100691071D01*
X77864785Y-100691071D01*
X78007642Y-100619642D01*
X78079071Y-100548214D01*
X78150500Y-100405357D01*
X78150500Y-99976785D01*
X78079071Y-99833928D01*
X78007642Y-99762500D01*
X77864785Y-99691071D01*
X77579071Y-99691071D01*
X77436214Y-99762500D01*
X76579071Y-100691071D02*
X76721928Y-100619642D01*
X76793357Y-100548214D01*
X76864785Y-100405357D01*
X76864785Y-99976785D01*
X76793357Y-99833928D01*
X76721928Y-99762500D01*
X76579071Y-99691071D01*
X76364785Y-99691071D01*
X76221928Y-99762500D01*
X76150500Y-99833928D01*
X76079071Y-99976785D01*
X76079071Y-100405357D01*
X76150500Y-100548214D01*
X76221928Y-100619642D01*
X76364785Y-100691071D01*
X76579071Y-100691071D01*
X75436214Y-100691071D02*
X75436214Y-99691071D01*
X75436214Y-99833928D02*
X75364785Y-99762500D01*
X75221928Y-99691071D01*
X75007642Y-99691071D01*
X74864785Y-99762500D01*
X74793357Y-99905357D01*
X74793357Y-100691071D01*
X74793357Y-99905357D02*
X74721928Y-99762500D01*
X74579071Y-99691071D01*
X74364785Y-99691071D01*
X74221928Y-99762500D01*
X74150500Y-99905357D01*
X74150500Y-100691071D01*
X73436214Y-100691071D02*
X73436214Y-99691071D01*
X73436214Y-99191071D02*
X73507642Y-99262500D01*
X73436214Y-99333928D01*
X73364785Y-99262500D01*
X73436214Y-99191071D01*
X73436214Y-99333928D01*
X72293357Y-101262500D02*
X72364785Y-101191071D01*
X72507642Y-100976785D01*
X72579071Y-100833928D01*
X72650500Y-100619642D01*
X72721928Y-100262500D01*
X72721928Y-99976785D01*
X72650500Y-99619642D01*
X72579071Y-99405357D01*
X72507642Y-99262500D01*
X72364785Y-99048214D01*
X72293357Y-98976785D01*
X71079071Y-100691071D02*
X71079071Y-99905357D01*
X71150500Y-99762500D01*
X71293357Y-99691071D01*
X71579071Y-99691071D01*
X71721928Y-99762500D01*
X71079071Y-100619642D02*
X71221928Y-100691071D01*
X71579071Y-100691071D01*
X71721928Y-100619642D01*
X71793357Y-100476785D01*
X71793357Y-100333928D01*
X71721928Y-100191071D01*
X71579071Y-100119642D01*
X71221928Y-100119642D01*
X71079071Y-100048214D01*
X70150500Y-100691071D02*
X70293357Y-100619642D01*
X70364785Y-100476785D01*
X70364785Y-99191071D01*
X69579071Y-99691071D02*
X69579071Y-101191071D01*
X69579071Y-99762500D02*
X69436214Y-99691071D01*
X69150500Y-99691071D01*
X69007642Y-99762500D01*
X68936214Y-99833928D01*
X68864785Y-99976785D01*
X68864785Y-100405357D01*
X68936214Y-100548214D01*
X69007642Y-100619642D01*
X69150500Y-100691071D01*
X69436214Y-100691071D01*
X69579071Y-100619642D01*
X68221928Y-100691071D02*
X68221928Y-99191071D01*
X67579071Y-100691071D02*
X67579071Y-99905357D01*
X67650500Y-99762500D01*
X67793357Y-99691071D01*
X68007642Y-99691071D01*
X68150500Y-99762500D01*
X68221928Y-99833928D01*
X66221928Y-100691071D02*
X66221928Y-99905357D01*
X66293357Y-99762500D01*
X66436214Y-99691071D01*
X66721928Y-99691071D01*
X66864785Y-99762500D01*
X66221928Y-100619642D02*
X66364785Y-100691071D01*
X66721928Y-100691071D01*
X66864785Y-100619642D01*
X66936214Y-100476785D01*
X66936214Y-100333928D01*
X66864785Y-100191071D01*
X66721928Y-100119642D01*
X66364785Y-100119642D01*
X66221928Y-100048214D01*
X65650500Y-101262500D02*
X65579071Y-101191071D01*
X65436214Y-100976785D01*
X65364785Y-100833928D01*
X65293357Y-100619642D01*
X65221928Y-100262500D01*
X65221928Y-99976785D01*
X65293357Y-99619642D01*
X65364785Y-99405357D01*
X65436214Y-99262500D01*
X65579071Y-99048214D01*
X65650500Y-98976785D01*
X62721928Y-100691071D02*
X62721928Y-99191071D01*
X62721928Y-100619642D02*
X62864785Y-100691071D01*
X63150500Y-100691071D01*
X63293357Y-100619642D01*
X63364785Y-100548214D01*
X63436214Y-100405357D01*
X63436214Y-99976785D01*
X63364785Y-99833928D01*
X63293357Y-99762500D01*
X63150500Y-99691071D01*
X62864785Y-99691071D01*
X62721928Y-99762500D01*
X61436214Y-100619642D02*
X61579071Y-100691071D01*
X61864785Y-100691071D01*
X62007642Y-100619642D01*
X62079071Y-100476785D01*
X62079071Y-99905357D01*
X62007642Y-99762500D01*
X61864785Y-99691071D01*
X61579071Y-99691071D01*
X61436214Y-99762500D01*
X61364785Y-99905357D01*
X61364785Y-100048214D01*
X62079071Y-100191071D01*
X60793357Y-100619642D02*
X60650500Y-100691071D01*
X60364785Y-100691071D01*
X60221928Y-100619642D01*
X60150500Y-100476785D01*
X60150500Y-100405357D01*
X60221928Y-100262500D01*
X60364785Y-100191071D01*
X60579071Y-100191071D01*
X60721928Y-100119642D01*
X60793357Y-99976785D01*
X60793357Y-99905357D01*
X60721928Y-99762500D01*
X60579071Y-99691071D01*
X60364785Y-99691071D01*
X60221928Y-99762500D01*
X59507642Y-100691071D02*
X59507642Y-99691071D01*
X59507642Y-99191071D02*
X59579071Y-99262500D01*
X59507642Y-99333928D01*
X59436214Y-99262500D01*
X59507642Y-99191071D01*
X59507642Y-99333928D01*
X58150500Y-99691071D02*
X58150500Y-100905357D01*
X58221928Y-101048214D01*
X58293357Y-101119642D01*
X58436214Y-101191071D01*
X58650500Y-101191071D01*
X58793357Y-101119642D01*
X58150500Y-100619642D02*
X58293357Y-100691071D01*
X58579071Y-100691071D01*
X58721928Y-100619642D01*
X58793357Y-100548214D01*
X58864785Y-100405357D01*
X58864785Y-99976785D01*
X58793357Y-99833928D01*
X58721928Y-99762500D01*
X58579071Y-99691071D01*
X58293357Y-99691071D01*
X58150500Y-99762500D01*
X57436214Y-99691071D02*
X57436214Y-100691071D01*
X57436214Y-99833928D02*
X57364785Y-99762500D01*
X57221928Y-99691071D01*
X57007642Y-99691071D01*
X56864785Y-99762500D01*
X56793357Y-99905357D01*
X56793357Y-100691071D01*
X55507642Y-100619642D02*
X55650500Y-100691071D01*
X55936214Y-100691071D01*
X56079071Y-100619642D01*
X56150500Y-100476785D01*
X56150500Y-99905357D01*
X56079071Y-99762500D01*
X55936214Y-99691071D01*
X55650500Y-99691071D01*
X55507642Y-99762500D01*
X55436214Y-99905357D01*
X55436214Y-100048214D01*
X56150500Y-100191071D01*
X54150500Y-100691071D02*
X54150500Y-99191071D01*
X54150500Y-100619642D02*
X54293357Y-100691071D01*
X54579071Y-100691071D01*
X54721928Y-100619642D01*
X54793357Y-100548214D01*
X54864785Y-100405357D01*
X54864785Y-99976785D01*
X54793357Y-99833928D01*
X54721928Y-99762500D01*
X54579071Y-99691071D01*
X54293357Y-99691071D01*
X54150500Y-99762500D01*
X52293357Y-100691071D02*
X52293357Y-99191071D01*
X52293357Y-99762500D02*
X52150500Y-99691071D01*
X51864785Y-99691071D01*
X51721928Y-99762500D01*
X51650500Y-99833928D01*
X51579071Y-99976785D01*
X51579071Y-100405357D01*
X51650500Y-100548214D01*
X51721928Y-100619642D01*
X51864785Y-100691071D01*
X52150500Y-100691071D01*
X52293357Y-100619642D01*
X51079071Y-99691071D02*
X50721928Y-100691071D01*
X50364785Y-99691071D02*
X50721928Y-100691071D01*
X50864785Y-101048214D01*
X50936214Y-101119642D01*
X51079071Y-101191071D01*
X48721928Y-100619642D02*
X48579071Y-100691071D01*
X48293357Y-100691071D01*
X48150500Y-100619642D01*
X48079071Y-100476785D01*
X48079071Y-100405357D01*
X48150500Y-100262500D01*
X48293357Y-100191071D01*
X48507642Y-100191071D01*
X48650500Y-100119642D01*
X48721928Y-99976785D01*
X48721928Y-99905357D01*
X48650500Y-99762500D01*
X48507642Y-99691071D01*
X48293357Y-99691071D01*
X48150500Y-99762500D01*
X47436214Y-100691071D02*
X47436214Y-99191071D01*
X47293357Y-100119642D02*
X46864785Y-100691071D01*
X46864785Y-99691071D02*
X47436214Y-100262500D01*
X46364785Y-99691071D02*
X46007642Y-100691071D01*
X45650500Y-99691071D02*
X46007642Y-100691071D01*
X46150500Y-101048214D01*
X46221928Y-101119642D01*
X46364785Y-101191071D01*
X45079071Y-100691071D02*
X45079071Y-99191071D01*
X44436214Y-100691071D02*
X44436214Y-99905357D01*
X44507642Y-99762500D01*
X44650500Y-99691071D01*
X44864785Y-99691071D01*
X45007642Y-99762500D01*
X45079071Y-99833928D01*
X43721928Y-100691071D02*
X43721928Y-99691071D01*
X43721928Y-99191071D02*
X43793357Y-99262500D01*
X43721928Y-99333928D01*
X43650500Y-99262500D01*
X43721928Y-99191071D01*
X43721928Y-99333928D01*
X42364785Y-99691071D02*
X42364785Y-100905357D01*
X42436214Y-101048214D01*
X42507642Y-101119642D01*
X42650500Y-101191071D01*
X42864785Y-101191071D01*
X43007642Y-101119642D01*
X42364785Y-100619642D02*
X42507642Y-100691071D01*
X42793357Y-100691071D01*
X42936214Y-100619642D01*
X43007642Y-100548214D01*
X43079071Y-100405357D01*
X43079071Y-99976785D01*
X43007642Y-99833928D01*
X42936214Y-99762500D01*
X42793357Y-99691071D01*
X42507642Y-99691071D01*
X42364785Y-99762500D01*
X41650500Y-100691071D02*
X41650500Y-99191071D01*
X41007642Y-100691071D02*
X41007642Y-99905357D01*
X41079071Y-99762500D01*
X41221928Y-99691071D01*
X41436214Y-99691071D01*
X41579071Y-99762500D01*
X41650500Y-99833928D01*
X40650500Y-100833928D02*
X39507642Y-100833928D01*
X39293357Y-99691071D02*
X39007642Y-100691071D01*
X38721928Y-99976785D01*
X38436214Y-100691071D01*
X38150500Y-99691071D01*
X37364785Y-100691071D02*
X37507642Y-100619642D01*
X37579071Y-100548214D01*
X37650500Y-100405357D01*
X37650500Y-99976785D01*
X37579071Y-99833928D01*
X37507642Y-99762500D01*
X37364785Y-99691071D01*
X37150500Y-99691071D01*
X37007642Y-99762500D01*
X36936214Y-99833928D01*
X36864785Y-99976785D01*
X36864785Y-100405357D01*
X36936214Y-100548214D01*
X37007642Y-100619642D01*
X37150500Y-100691071D01*
X37364785Y-100691071D01*
X36221928Y-100691071D02*
X36221928Y-99691071D01*
X36221928Y-99976785D02*
X36150500Y-99833928D01*
X36079071Y-99762500D01*
X35936214Y-99691071D01*
X35793357Y-99691071D01*
X35293357Y-100691071D02*
X35293357Y-99191071D01*
X35150500Y-100119642D02*
X34721928Y-100691071D01*
X34721928Y-99691071D02*
X35293357Y-100262500D01*
X34150500Y-100619642D02*
X34007642Y-100691071D01*
X33721928Y-100691071D01*
X33579071Y-100619642D01*
X33507642Y-100476785D01*
X33507642Y-100405357D01*
X33579071Y-100262500D01*
X33721928Y-100191071D01*
X33936214Y-100191071D01*
X34079071Y-100119642D01*
X34150500Y-99976785D01*
X34150500Y-99905357D01*
X34079071Y-99762500D01*
X33936214Y-99691071D01*
X33721928Y-99691071D01*
X33579071Y-99762500D01*
D11*
G04 #@! TO.C,J2*
X149600000Y11525000D02*
X155200000Y11525000D01*
X155200000Y9525000D02*
X155200000Y11525000D01*
X149600000Y9525000D02*
X149600000Y11525000D01*
X155450000Y9525000D02*
X155450000Y-2575000D01*
X149350000Y9525000D02*
X149350000Y-2575000D01*
X149350000Y-2575000D02*
X155450000Y-2575000D01*
X149350000Y9525000D02*
X155450000Y9525000D01*
G04 #@! TO.C,J3*
X140075000Y11525000D02*
X145675000Y11525000D01*
X145675000Y9525000D02*
X145675000Y11525000D01*
X140075000Y9525000D02*
X140075000Y11525000D01*
X145925000Y9525000D02*
X145925000Y-2575000D01*
X139825000Y9525000D02*
X139825000Y-2575000D01*
X139825000Y-2575000D02*
X145925000Y-2575000D01*
X139825000Y9525000D02*
X145925000Y9525000D01*
D12*
G04 #@! TO.C,D1*
X47355000Y-21300000D02*
X47355000Y-17400000D01*
X45355000Y-21300000D02*
X45355000Y-17400000D01*
X47355000Y-21300000D02*
X45355000Y-21300000D01*
G04 #@! TO.C,D2*
X66405000Y-21300000D02*
X66405000Y-17400000D01*
X64405000Y-21300000D02*
X64405000Y-17400000D01*
X66405000Y-21300000D02*
X64405000Y-21300000D01*
G04 #@! TO.C,D3*
X85455000Y-21300000D02*
X85455000Y-17400000D01*
X83455000Y-21300000D02*
X83455000Y-17400000D01*
X85455000Y-21300000D02*
X83455000Y-21300000D01*
G04 #@! TO.C,D4*
X104505000Y-21300000D02*
X104505000Y-17400000D01*
X102505000Y-21300000D02*
X102505000Y-17400000D01*
X104505000Y-21300000D02*
X102505000Y-21300000D01*
G04 #@! TO.C,D5*
X123555000Y-21300000D02*
X123555000Y-17400000D01*
X121555000Y-21300000D02*
X121555000Y-17400000D01*
X123555000Y-21300000D02*
X121555000Y-21300000D01*
G04 #@! TO.C,D6*
X142605000Y-21300000D02*
X142605000Y-17400000D01*
X140605000Y-21300000D02*
X140605000Y-17400000D01*
X142605000Y-21300000D02*
X140605000Y-21300000D01*
G04 #@! TO.C,D7*
X161655000Y-21300000D02*
X161655000Y-17400000D01*
X159655000Y-21300000D02*
X159655000Y-17400000D01*
X161655000Y-21300000D02*
X159655000Y-21300000D01*
G04 #@! TO.C,D8*
X52117500Y-40350000D02*
X52117500Y-36450000D01*
X50117500Y-40350000D02*
X50117500Y-36450000D01*
X52117500Y-40350000D02*
X50117500Y-40350000D01*
G04 #@! TO.C,D9*
X75930000Y-40350000D02*
X75930000Y-36450000D01*
X73930000Y-40350000D02*
X73930000Y-36450000D01*
X75930000Y-40350000D02*
X73930000Y-40350000D01*
G04 #@! TO.C,D10*
X94980000Y-40350000D02*
X94980000Y-36450000D01*
X92980000Y-40350000D02*
X92980000Y-36450000D01*
X94980000Y-40350000D02*
X92980000Y-40350000D01*
G04 #@! TO.C,D11*
X114030000Y-40350000D02*
X114030000Y-36450000D01*
X112030000Y-40350000D02*
X112030000Y-36450000D01*
X114030000Y-40350000D02*
X112030000Y-40350000D01*
G04 #@! TO.C,D12*
X133080000Y-40350000D02*
X133080000Y-36450000D01*
X131080000Y-40350000D02*
X131080000Y-36450000D01*
X133080000Y-40350000D02*
X131080000Y-40350000D01*
G04 #@! TO.C,D13*
X152130000Y-40350000D02*
X152130000Y-36450000D01*
X150130000Y-40350000D02*
X150130000Y-36450000D01*
X152130000Y-40350000D02*
X150130000Y-40350000D01*
G04 #@! TO.C,D14*
X171180000Y-40350000D02*
X171180000Y-36450000D01*
X169180000Y-40350000D02*
X169180000Y-36450000D01*
X171180000Y-40350000D02*
X169180000Y-40350000D01*
G04 #@! TO.C,D15*
X54498800Y-59400000D02*
X54498800Y-55500000D01*
X52498800Y-59400000D02*
X52498800Y-55500000D01*
X54498800Y-59400000D02*
X52498800Y-59400000D01*
G04 #@! TO.C,D16*
X80692500Y-59400000D02*
X80692500Y-55500000D01*
X78692500Y-59400000D02*
X78692500Y-55500000D01*
X80692500Y-59400000D02*
X78692500Y-59400000D01*
G04 #@! TO.C,D17*
X99742500Y-59400000D02*
X99742500Y-55500000D01*
X97742500Y-59400000D02*
X97742500Y-55500000D01*
X99742500Y-59400000D02*
X97742500Y-59400000D01*
G04 #@! TO.C,D18*
X118792000Y-59400000D02*
X118792000Y-55500000D01*
X116792000Y-59400000D02*
X116792000Y-55500000D01*
X118792000Y-59400000D02*
X116792000Y-59400000D01*
G04 #@! TO.C,D19*
X137842000Y-59400000D02*
X137842000Y-55500000D01*
X135842000Y-59400000D02*
X135842000Y-55500000D01*
X137842000Y-59400000D02*
X135842000Y-59400000D01*
G04 #@! TO.C,D20*
X156892000Y-59400000D02*
X156892000Y-55500000D01*
X154892000Y-59400000D02*
X154892000Y-55500000D01*
X156892000Y-59400000D02*
X154892000Y-59400000D01*
G04 #@! TO.C,D22*
X59261200Y-78450000D02*
X59261200Y-74550000D01*
X57261200Y-78450000D02*
X57261200Y-74550000D01*
X59261200Y-78450000D02*
X57261200Y-78450000D01*
G04 #@! TO.C,D23*
X90217500Y-78450000D02*
X90217500Y-74550000D01*
X88217500Y-78450000D02*
X88217500Y-74550000D01*
X90217500Y-78450000D02*
X88217500Y-78450000D01*
G04 #@! TO.C,D24*
X109268000Y-78450000D02*
X109268000Y-74550000D01*
X107268000Y-78450000D02*
X107268000Y-74550000D01*
X109268000Y-78450000D02*
X107268000Y-78450000D01*
G04 #@! TO.C,D25*
X128318000Y-78450000D02*
X128318000Y-74550000D01*
X126318000Y-78450000D02*
X126318000Y-74550000D01*
X128318000Y-78450000D02*
X126318000Y-78450000D01*
G04 #@! TO.C,D26*
X147368000Y-78450000D02*
X147368000Y-74550000D01*
X145368000Y-78450000D02*
X145368000Y-74550000D01*
X147368000Y-78450000D02*
X145368000Y-78450000D01*
G04 #@! TO.C,D27*
X166418000Y-78450000D02*
X166418000Y-74550000D01*
X164418000Y-78450000D02*
X164418000Y-74550000D01*
X166418000Y-78450000D02*
X164418000Y-78450000D01*
G04 #@! TO.C,D29*
X52117500Y-97500000D02*
X52117500Y-93600000D01*
X50117500Y-97500000D02*
X50117500Y-93600000D01*
X52117500Y-97500000D02*
X50117500Y-97500000D01*
G04 #@! TO.C,D30*
X75930000Y-97500000D02*
X75930000Y-93600000D01*
X73930000Y-97500000D02*
X73930000Y-93600000D01*
X75930000Y-97500000D02*
X73930000Y-97500000D01*
G04 #@! TO.C,D31*
X94980000Y-97500000D02*
X94980000Y-93600000D01*
X92980000Y-97500000D02*
X92980000Y-93600000D01*
X94980000Y-97500000D02*
X92980000Y-97500000D01*
G04 #@! TO.C,D32*
X114030000Y-97500000D02*
X114030000Y-93600000D01*
X112030000Y-97500000D02*
X112030000Y-93600000D01*
X114030000Y-97500000D02*
X112030000Y-97500000D01*
G04 #@! TO.C,D33*
X133080000Y-97500000D02*
X133080000Y-93600000D01*
X131080000Y-97500000D02*
X131080000Y-93600000D01*
X133080000Y-97500000D02*
X131080000Y-97500000D01*
G04 #@! TO.C,D34*
X152130000Y-97500000D02*
X152130000Y-93600000D01*
X150130000Y-97500000D02*
X150130000Y-93600000D01*
X152130000Y-97500000D02*
X150130000Y-97500000D01*
G04 #@! TO.C,J1*
X31690000Y-62290000D02*
X33020000Y-62290000D01*
X31690000Y-60960000D02*
X31690000Y-62290000D01*
X31690000Y-59690000D02*
X34350000Y-59690000D01*
X34350000Y-59690000D02*
X34350000Y-54550000D01*
X31690000Y-59690000D02*
X31690000Y-54550000D01*
X31690000Y-54550000D02*
X34350000Y-54550000D01*
D11*
G04 #@! TO.C,SW36*
X27726000Y-2008000D02*
X28976000Y-2008000D01*
X27726000Y992000D02*
X27726000Y-2008000D01*
X28976000Y992000D02*
X27726000Y992000D01*
X28976000Y2992000D02*
X31476000Y2992000D01*
X28976000Y-4008000D02*
X28976000Y2992000D01*
X31476000Y-4008000D02*
X28976000Y-4008000D01*
X31476000Y-508000D02*
X31476000Y-4008000D01*
X31476000Y2992000D02*
X31476000Y-508000D01*
G04 #@! TO.C,J4*
X89916000Y10287000D02*
X100076000Y10287000D01*
X89916000Y4572000D02*
X89916000Y10287000D01*
X100076000Y4572000D02*
X89916000Y4572000D01*
X100076000Y10287000D02*
X100076000Y4572000D01*
X89756000Y4572000D02*
X92136000Y4572000D01*
X89756000Y9652000D02*
X89756000Y4572000D01*
X84996000Y9652000D02*
X89756000Y9652000D01*
X84996000Y4572000D02*
X84996000Y9652000D01*
X100236000Y4572000D02*
X90716000Y4572000D01*
X100236000Y9652000D02*
X100236000Y4572000D01*
X102616000Y9652000D02*
X100236000Y9652000D01*
X104996000Y9652000D02*
X102616000Y9652000D01*
X104996000Y9652000D02*
X104996000Y4572000D01*
X84996000Y4572000D02*
X84996000Y-3048000D01*
X104996000Y4572000D02*
X104996000Y-3048000D01*
X84996000Y-4948000D02*
X87376000Y-4948000D01*
X84996000Y-3048000D02*
X84996000Y-4948000D01*
X104996000Y-4948000D02*
X85956000Y-4948000D01*
X104996000Y-3048000D02*
X104996000Y-4948000D01*
G04 #@! TO.C,U1*
X68975000Y-6000000D02*
X68975000Y-3000000D01*
X77975000Y-6000000D02*
X68975000Y-6000000D01*
X77975000Y6000000D02*
X77975000Y-6000000D01*
X68975000Y6000000D02*
X77975000Y6000000D01*
X68975000Y0D02*
X68975000Y6000000D01*
X65405000Y-3500000D02*
X65405000Y0D01*
X68905000Y-3500000D02*
X65405000Y-3500000D01*
X68905000Y3500000D02*
X68905000Y-3500000D01*
X65405000Y3500000D02*
X68905000Y3500000D01*
X65405000Y0D02*
X65405000Y3500000D01*
X32385000Y-8890000D02*
X32385000Y8890000D01*
X32385000Y8890000D02*
X62865000Y8890000D01*
X62865000Y8890000D02*
X62865000Y3810000D01*
X62865000Y3810000D02*
X65405000Y3810000D01*
X65405000Y3810000D02*
X65405000Y-3810000D01*
X65405000Y-3810000D02*
X62865000Y-3810000D01*
X62865000Y-3810000D02*
X62865000Y-8890000D01*
X62865000Y-8890000D02*
X32385000Y-8890000D01*
G04 #@! TO.C,SW22*
X44815723Y-83604761D02*
X44672866Y-83652380D01*
X44434771Y-83652380D01*
X44339533Y-83604761D01*
X44291914Y-83557142D01*
X44244295Y-83461904D01*
X44244295Y-83366666D01*
X44291914Y-83271428D01*
X44339533Y-83223809D01*
X44434771Y-83176190D01*
X44625247Y-83128571D01*
X44720485Y-83080952D01*
X44768104Y-83033333D01*
X44815723Y-82938095D01*
X44815723Y-82842857D01*
X44768104Y-82747619D01*
X44720485Y-82700000D01*
X44625247Y-82652380D01*
X44387152Y-82652380D01*
X44244295Y-82700000D01*
X43910961Y-82652380D02*
X43672866Y-83652380D01*
X43482390Y-82938095D01*
X43291914Y-83652380D01*
X43053819Y-82652380D01*
X42720485Y-82747619D02*
X42672866Y-82700000D01*
X42577628Y-82652380D01*
X42339533Y-82652380D01*
X42244295Y-82700000D01*
X42196676Y-82747619D01*
X42149057Y-82842857D01*
X42149057Y-82938095D01*
X42196676Y-83080952D01*
X42768104Y-83652380D01*
X42149057Y-83652380D01*
X41768104Y-82747619D02*
X41720485Y-82700000D01*
X41625247Y-82652380D01*
X41387152Y-82652380D01*
X41291914Y-82700000D01*
X41244295Y-82747619D01*
X41196676Y-82842857D01*
X41196676Y-82938095D01*
X41244295Y-83080952D01*
X41815723Y-83652380D01*
X41196676Y-83652380D01*
G04 #@! TO.C,SW23*
X75772023Y-83604761D02*
X75629166Y-83652380D01*
X75391071Y-83652380D01*
X75295833Y-83604761D01*
X75248214Y-83557142D01*
X75200595Y-83461904D01*
X75200595Y-83366666D01*
X75248214Y-83271428D01*
X75295833Y-83223809D01*
X75391071Y-83176190D01*
X75581547Y-83128571D01*
X75676785Y-83080952D01*
X75724404Y-83033333D01*
X75772023Y-82938095D01*
X75772023Y-82842857D01*
X75724404Y-82747619D01*
X75676785Y-82700000D01*
X75581547Y-82652380D01*
X75343452Y-82652380D01*
X75200595Y-82700000D01*
X74867261Y-82652380D02*
X74629166Y-83652380D01*
X74438690Y-82938095D01*
X74248214Y-83652380D01*
X74010119Y-82652380D01*
X73676785Y-82747619D02*
X73629166Y-82700000D01*
X73533928Y-82652380D01*
X73295833Y-82652380D01*
X73200595Y-82700000D01*
X73152976Y-82747619D01*
X73105357Y-82842857D01*
X73105357Y-82938095D01*
X73152976Y-83080952D01*
X73724404Y-83652380D01*
X73105357Y-83652380D01*
X72772023Y-82652380D02*
X72152976Y-82652380D01*
X72486309Y-83033333D01*
X72343452Y-83033333D01*
X72248214Y-83080952D01*
X72200595Y-83128571D01*
X72152976Y-83223809D01*
X72152976Y-83461904D01*
X72200595Y-83557142D01*
X72248214Y-83604761D01*
X72343452Y-83652380D01*
X72629166Y-83652380D01*
X72724404Y-83604761D01*
X72772023Y-83557142D01*
G04 #@! TO.C,SW25*
X113871523Y-83604761D02*
X113728666Y-83652380D01*
X113490571Y-83652380D01*
X113395333Y-83604761D01*
X113347714Y-83557142D01*
X113300095Y-83461904D01*
X113300095Y-83366666D01*
X113347714Y-83271428D01*
X113395333Y-83223809D01*
X113490571Y-83176190D01*
X113681047Y-83128571D01*
X113776285Y-83080952D01*
X113823904Y-83033333D01*
X113871523Y-82938095D01*
X113871523Y-82842857D01*
X113823904Y-82747619D01*
X113776285Y-82700000D01*
X113681047Y-82652380D01*
X113442952Y-82652380D01*
X113300095Y-82700000D01*
X112966761Y-82652380D02*
X112728666Y-83652380D01*
X112538190Y-82938095D01*
X112347714Y-83652380D01*
X112109619Y-82652380D01*
X111776285Y-82747619D02*
X111728666Y-82700000D01*
X111633428Y-82652380D01*
X111395333Y-82652380D01*
X111300095Y-82700000D01*
X111252476Y-82747619D01*
X111204857Y-82842857D01*
X111204857Y-82938095D01*
X111252476Y-83080952D01*
X111823904Y-83652380D01*
X111204857Y-83652380D01*
X110300095Y-82652380D02*
X110776285Y-82652380D01*
X110823904Y-83128571D01*
X110776285Y-83080952D01*
X110681047Y-83033333D01*
X110442952Y-83033333D01*
X110347714Y-83080952D01*
X110300095Y-83128571D01*
X110252476Y-83223809D01*
X110252476Y-83461904D01*
X110300095Y-83557142D01*
X110347714Y-83604761D01*
X110442952Y-83652380D01*
X110681047Y-83652380D01*
X110776285Y-83604761D01*
X110823904Y-83557142D01*
G04 #@! TO.C,SW26*
X132921523Y-83604761D02*
X132778666Y-83652380D01*
X132540571Y-83652380D01*
X132445333Y-83604761D01*
X132397714Y-83557142D01*
X132350095Y-83461904D01*
X132350095Y-83366666D01*
X132397714Y-83271428D01*
X132445333Y-83223809D01*
X132540571Y-83176190D01*
X132731047Y-83128571D01*
X132826285Y-83080952D01*
X132873904Y-83033333D01*
X132921523Y-82938095D01*
X132921523Y-82842857D01*
X132873904Y-82747619D01*
X132826285Y-82700000D01*
X132731047Y-82652380D01*
X132492952Y-82652380D01*
X132350095Y-82700000D01*
X132016761Y-82652380D02*
X131778666Y-83652380D01*
X131588190Y-82938095D01*
X131397714Y-83652380D01*
X131159619Y-82652380D01*
X130826285Y-82747619D02*
X130778666Y-82700000D01*
X130683428Y-82652380D01*
X130445333Y-82652380D01*
X130350095Y-82700000D01*
X130302476Y-82747619D01*
X130254857Y-82842857D01*
X130254857Y-82938095D01*
X130302476Y-83080952D01*
X130873904Y-83652380D01*
X130254857Y-83652380D01*
X129397714Y-82652380D02*
X129588190Y-82652380D01*
X129683428Y-82700000D01*
X129731047Y-82747619D01*
X129826285Y-82890476D01*
X129873904Y-83080952D01*
X129873904Y-83461904D01*
X129826285Y-83557142D01*
X129778666Y-83604761D01*
X129683428Y-83652380D01*
X129492952Y-83652380D01*
X129397714Y-83604761D01*
X129350095Y-83557142D01*
X129302476Y-83461904D01*
X129302476Y-83223809D01*
X129350095Y-83128571D01*
X129397714Y-83080952D01*
X129492952Y-83033333D01*
X129683428Y-83033333D01*
X129778666Y-83080952D01*
X129826285Y-83128571D01*
X129873904Y-83223809D01*
G04 #@! TO.C,SW27*
X151971523Y-83604761D02*
X151828666Y-83652380D01*
X151590571Y-83652380D01*
X151495333Y-83604761D01*
X151447714Y-83557142D01*
X151400095Y-83461904D01*
X151400095Y-83366666D01*
X151447714Y-83271428D01*
X151495333Y-83223809D01*
X151590571Y-83176190D01*
X151781047Y-83128571D01*
X151876285Y-83080952D01*
X151923904Y-83033333D01*
X151971523Y-82938095D01*
X151971523Y-82842857D01*
X151923904Y-82747619D01*
X151876285Y-82700000D01*
X151781047Y-82652380D01*
X151542952Y-82652380D01*
X151400095Y-82700000D01*
X151066761Y-82652380D02*
X150828666Y-83652380D01*
X150638190Y-82938095D01*
X150447714Y-83652380D01*
X150209619Y-82652380D01*
X149876285Y-82747619D02*
X149828666Y-82700000D01*
X149733428Y-82652380D01*
X149495333Y-82652380D01*
X149400095Y-82700000D01*
X149352476Y-82747619D01*
X149304857Y-82842857D01*
X149304857Y-82938095D01*
X149352476Y-83080952D01*
X149923904Y-83652380D01*
X149304857Y-83652380D01*
X148971523Y-82652380D02*
X148304857Y-82652380D01*
X148733428Y-83652380D01*
G04 #@! TO.C,SW29*
X37672023Y-102654761D02*
X37529166Y-102702380D01*
X37291071Y-102702380D01*
X37195833Y-102654761D01*
X37148214Y-102607142D01*
X37100595Y-102511904D01*
X37100595Y-102416666D01*
X37148214Y-102321428D01*
X37195833Y-102273809D01*
X37291071Y-102226190D01*
X37481547Y-102178571D01*
X37576785Y-102130952D01*
X37624404Y-102083333D01*
X37672023Y-101988095D01*
X37672023Y-101892857D01*
X37624404Y-101797619D01*
X37576785Y-101750000D01*
X37481547Y-101702380D01*
X37243452Y-101702380D01*
X37100595Y-101750000D01*
X36767261Y-101702380D02*
X36529166Y-102702380D01*
X36338690Y-101988095D01*
X36148214Y-102702380D01*
X35910119Y-101702380D01*
X35576785Y-101797619D02*
X35529166Y-101750000D01*
X35433928Y-101702380D01*
X35195833Y-101702380D01*
X35100595Y-101750000D01*
X35052976Y-101797619D01*
X35005357Y-101892857D01*
X35005357Y-101988095D01*
X35052976Y-102130952D01*
X35624404Y-102702380D01*
X35005357Y-102702380D01*
X34529166Y-102702380D02*
X34338690Y-102702380D01*
X34243452Y-102654761D01*
X34195833Y-102607142D01*
X34100595Y-102464285D01*
X34052976Y-102273809D01*
X34052976Y-101892857D01*
X34100595Y-101797619D01*
X34148214Y-101750000D01*
X34243452Y-101702380D01*
X34433928Y-101702380D01*
X34529166Y-101750000D01*
X34576785Y-101797619D01*
X34624404Y-101892857D01*
X34624404Y-102130952D01*
X34576785Y-102226190D01*
X34529166Y-102273809D01*
X34433928Y-102321428D01*
X34243452Y-102321428D01*
X34148214Y-102273809D01*
X34100595Y-102226190D01*
X34052976Y-102130952D01*
G04 #@! TO.C,SW30*
X61484523Y-102654761D02*
X61341666Y-102702380D01*
X61103571Y-102702380D01*
X61008333Y-102654761D01*
X60960714Y-102607142D01*
X60913095Y-102511904D01*
X60913095Y-102416666D01*
X60960714Y-102321428D01*
X61008333Y-102273809D01*
X61103571Y-102226190D01*
X61294047Y-102178571D01*
X61389285Y-102130952D01*
X61436904Y-102083333D01*
X61484523Y-101988095D01*
X61484523Y-101892857D01*
X61436904Y-101797619D01*
X61389285Y-101750000D01*
X61294047Y-101702380D01*
X61055952Y-101702380D01*
X60913095Y-101750000D01*
X60579761Y-101702380D02*
X60341666Y-102702380D01*
X60151190Y-101988095D01*
X59960714Y-102702380D01*
X59722619Y-101702380D01*
X59436904Y-101702380D02*
X58817857Y-101702380D01*
X59151190Y-102083333D01*
X59008333Y-102083333D01*
X58913095Y-102130952D01*
X58865476Y-102178571D01*
X58817857Y-102273809D01*
X58817857Y-102511904D01*
X58865476Y-102607142D01*
X58913095Y-102654761D01*
X59008333Y-102702380D01*
X59294047Y-102702380D01*
X59389285Y-102654761D01*
X59436904Y-102607142D01*
X58198809Y-101702380D02*
X58103571Y-101702380D01*
X58008333Y-101750000D01*
X57960714Y-101797619D01*
X57913095Y-101892857D01*
X57865476Y-102083333D01*
X57865476Y-102321428D01*
X57913095Y-102511904D01*
X57960714Y-102607142D01*
X58008333Y-102654761D01*
X58103571Y-102702380D01*
X58198809Y-102702380D01*
X58294047Y-102654761D01*
X58341666Y-102607142D01*
X58389285Y-102511904D01*
X58436904Y-102321428D01*
X58436904Y-102083333D01*
X58389285Y-101892857D01*
X58341666Y-101797619D01*
X58294047Y-101750000D01*
X58198809Y-101702380D01*
G04 #@! TO.C,SW32*
X99584523Y-102654761D02*
X99441666Y-102702380D01*
X99203571Y-102702380D01*
X99108333Y-102654761D01*
X99060714Y-102607142D01*
X99013095Y-102511904D01*
X99013095Y-102416666D01*
X99060714Y-102321428D01*
X99108333Y-102273809D01*
X99203571Y-102226190D01*
X99394047Y-102178571D01*
X99489285Y-102130952D01*
X99536904Y-102083333D01*
X99584523Y-101988095D01*
X99584523Y-101892857D01*
X99536904Y-101797619D01*
X99489285Y-101750000D01*
X99394047Y-101702380D01*
X99155952Y-101702380D01*
X99013095Y-101750000D01*
X98679761Y-101702380D02*
X98441666Y-102702380D01*
X98251190Y-101988095D01*
X98060714Y-102702380D01*
X97822619Y-101702380D01*
X97536904Y-101702380D02*
X96917857Y-101702380D01*
X97251190Y-102083333D01*
X97108333Y-102083333D01*
X97013095Y-102130952D01*
X96965476Y-102178571D01*
X96917857Y-102273809D01*
X96917857Y-102511904D01*
X96965476Y-102607142D01*
X97013095Y-102654761D01*
X97108333Y-102702380D01*
X97394047Y-102702380D01*
X97489285Y-102654761D01*
X97536904Y-102607142D01*
X96536904Y-101797619D02*
X96489285Y-101750000D01*
X96394047Y-101702380D01*
X96155952Y-101702380D01*
X96060714Y-101750000D01*
X96013095Y-101797619D01*
X95965476Y-101892857D01*
X95965476Y-101988095D01*
X96013095Y-102130952D01*
X96584523Y-102702380D01*
X95965476Y-102702380D01*
G04 #@! TO.C,SW33*
X118634523Y-102654761D02*
X118491666Y-102702380D01*
X118253571Y-102702380D01*
X118158333Y-102654761D01*
X118110714Y-102607142D01*
X118063095Y-102511904D01*
X118063095Y-102416666D01*
X118110714Y-102321428D01*
X118158333Y-102273809D01*
X118253571Y-102226190D01*
X118444047Y-102178571D01*
X118539285Y-102130952D01*
X118586904Y-102083333D01*
X118634523Y-101988095D01*
X118634523Y-101892857D01*
X118586904Y-101797619D01*
X118539285Y-101750000D01*
X118444047Y-101702380D01*
X118205952Y-101702380D01*
X118063095Y-101750000D01*
X117729761Y-101702380D02*
X117491666Y-102702380D01*
X117301190Y-101988095D01*
X117110714Y-102702380D01*
X116872619Y-101702380D01*
X116586904Y-101702380D02*
X115967857Y-101702380D01*
X116301190Y-102083333D01*
X116158333Y-102083333D01*
X116063095Y-102130952D01*
X116015476Y-102178571D01*
X115967857Y-102273809D01*
X115967857Y-102511904D01*
X116015476Y-102607142D01*
X116063095Y-102654761D01*
X116158333Y-102702380D01*
X116444047Y-102702380D01*
X116539285Y-102654761D01*
X116586904Y-102607142D01*
X115634523Y-101702380D02*
X115015476Y-101702380D01*
X115348809Y-102083333D01*
X115205952Y-102083333D01*
X115110714Y-102130952D01*
X115063095Y-102178571D01*
X115015476Y-102273809D01*
X115015476Y-102511904D01*
X115063095Y-102607142D01*
X115110714Y-102654761D01*
X115205952Y-102702380D01*
X115491666Y-102702380D01*
X115586904Y-102654761D01*
X115634523Y-102607142D01*
G04 #@! TO.C,SW34*
X137684523Y-102654761D02*
X137541666Y-102702380D01*
X137303571Y-102702380D01*
X137208333Y-102654761D01*
X137160714Y-102607142D01*
X137113095Y-102511904D01*
X137113095Y-102416666D01*
X137160714Y-102321428D01*
X137208333Y-102273809D01*
X137303571Y-102226190D01*
X137494047Y-102178571D01*
X137589285Y-102130952D01*
X137636904Y-102083333D01*
X137684523Y-101988095D01*
X137684523Y-101892857D01*
X137636904Y-101797619D01*
X137589285Y-101750000D01*
X137494047Y-101702380D01*
X137255952Y-101702380D01*
X137113095Y-101750000D01*
X136779761Y-101702380D02*
X136541666Y-102702380D01*
X136351190Y-101988095D01*
X136160714Y-102702380D01*
X135922619Y-101702380D01*
X135636904Y-101702380D02*
X135017857Y-101702380D01*
X135351190Y-102083333D01*
X135208333Y-102083333D01*
X135113095Y-102130952D01*
X135065476Y-102178571D01*
X135017857Y-102273809D01*
X135017857Y-102511904D01*
X135065476Y-102607142D01*
X135113095Y-102654761D01*
X135208333Y-102702380D01*
X135494047Y-102702380D01*
X135589285Y-102654761D01*
X135636904Y-102607142D01*
X134160714Y-102035714D02*
X134160714Y-102702380D01*
X134398809Y-101654761D02*
X134636904Y-102369047D01*
X134017857Y-102369047D01*
G04 #@! TO.C,SW20*
X142447523Y-64554761D02*
X142304666Y-64602380D01*
X142066571Y-64602380D01*
X141971333Y-64554761D01*
X141923714Y-64507142D01*
X141876095Y-64411904D01*
X141876095Y-64316666D01*
X141923714Y-64221428D01*
X141971333Y-64173809D01*
X142066571Y-64126190D01*
X142257047Y-64078571D01*
X142352285Y-64030952D01*
X142399904Y-63983333D01*
X142447523Y-63888095D01*
X142447523Y-63792857D01*
X142399904Y-63697619D01*
X142352285Y-63650000D01*
X142257047Y-63602380D01*
X142018952Y-63602380D01*
X141876095Y-63650000D01*
X141542761Y-63602380D02*
X141304666Y-64602380D01*
X141114190Y-63888095D01*
X140923714Y-64602380D01*
X140685619Y-63602380D01*
X140352285Y-63697619D02*
X140304666Y-63650000D01*
X140209428Y-63602380D01*
X139971333Y-63602380D01*
X139876095Y-63650000D01*
X139828476Y-63697619D01*
X139780857Y-63792857D01*
X139780857Y-63888095D01*
X139828476Y-64030952D01*
X140399904Y-64602380D01*
X139780857Y-64602380D01*
X139161809Y-63602380D02*
X139066571Y-63602380D01*
X138971333Y-63650000D01*
X138923714Y-63697619D01*
X138876095Y-63792857D01*
X138828476Y-63983333D01*
X138828476Y-64221428D01*
X138876095Y-64411904D01*
X138923714Y-64507142D01*
X138971333Y-64554761D01*
X139066571Y-64602380D01*
X139161809Y-64602380D01*
X139257047Y-64554761D01*
X139304666Y-64507142D01*
X139352285Y-64411904D01*
X139399904Y-64221428D01*
X139399904Y-63983333D01*
X139352285Y-63792857D01*
X139304666Y-63697619D01*
X139257047Y-63650000D01*
X139161809Y-63602380D01*
G04 #@! TO.C,SW24*
X94821523Y-83604761D02*
X94678666Y-83652380D01*
X94440571Y-83652380D01*
X94345333Y-83604761D01*
X94297714Y-83557142D01*
X94250095Y-83461904D01*
X94250095Y-83366666D01*
X94297714Y-83271428D01*
X94345333Y-83223809D01*
X94440571Y-83176190D01*
X94631047Y-83128571D01*
X94726285Y-83080952D01*
X94773904Y-83033333D01*
X94821523Y-82938095D01*
X94821523Y-82842857D01*
X94773904Y-82747619D01*
X94726285Y-82700000D01*
X94631047Y-82652380D01*
X94392952Y-82652380D01*
X94250095Y-82700000D01*
X93916761Y-82652380D02*
X93678666Y-83652380D01*
X93488190Y-82938095D01*
X93297714Y-83652380D01*
X93059619Y-82652380D01*
X92726285Y-82747619D02*
X92678666Y-82700000D01*
X92583428Y-82652380D01*
X92345333Y-82652380D01*
X92250095Y-82700000D01*
X92202476Y-82747619D01*
X92154857Y-82842857D01*
X92154857Y-82938095D01*
X92202476Y-83080952D01*
X92773904Y-83652380D01*
X92154857Y-83652380D01*
X91297714Y-82985714D02*
X91297714Y-83652380D01*
X91535809Y-82604761D02*
X91773904Y-83319047D01*
X91154857Y-83319047D01*
G04 #@! TO.C,SW2*
X51483333Y-26454761D02*
X51340476Y-26502380D01*
X51102380Y-26502380D01*
X51007142Y-26454761D01*
X50959523Y-26407142D01*
X50911904Y-26311904D01*
X50911904Y-26216666D01*
X50959523Y-26121428D01*
X51007142Y-26073809D01*
X51102380Y-26026190D01*
X51292857Y-25978571D01*
X51388095Y-25930952D01*
X51435714Y-25883333D01*
X51483333Y-25788095D01*
X51483333Y-25692857D01*
X51435714Y-25597619D01*
X51388095Y-25550000D01*
X51292857Y-25502380D01*
X51054761Y-25502380D01*
X50911904Y-25550000D01*
X50578571Y-25502380D02*
X50340476Y-26502380D01*
X50150000Y-25788095D01*
X49959523Y-26502380D01*
X49721428Y-25502380D01*
X49388095Y-25597619D02*
X49340476Y-25550000D01*
X49245238Y-25502380D01*
X49007142Y-25502380D01*
X48911904Y-25550000D01*
X48864285Y-25597619D01*
X48816666Y-25692857D01*
X48816666Y-25788095D01*
X48864285Y-25930952D01*
X49435714Y-26502380D01*
X48816666Y-26502380D01*
G04 #@! TO.C,SW12*
X118634523Y-45504761D02*
X118491666Y-45552380D01*
X118253571Y-45552380D01*
X118158333Y-45504761D01*
X118110714Y-45457142D01*
X118063095Y-45361904D01*
X118063095Y-45266666D01*
X118110714Y-45171428D01*
X118158333Y-45123809D01*
X118253571Y-45076190D01*
X118444047Y-45028571D01*
X118539285Y-44980952D01*
X118586904Y-44933333D01*
X118634523Y-44838095D01*
X118634523Y-44742857D01*
X118586904Y-44647619D01*
X118539285Y-44600000D01*
X118444047Y-44552380D01*
X118205952Y-44552380D01*
X118063095Y-44600000D01*
X117729761Y-44552380D02*
X117491666Y-45552380D01*
X117301190Y-44838095D01*
X117110714Y-45552380D01*
X116872619Y-44552380D01*
X115967857Y-45552380D02*
X116539285Y-45552380D01*
X116253571Y-45552380D02*
X116253571Y-44552380D01*
X116348809Y-44695238D01*
X116444047Y-44790476D01*
X116539285Y-44838095D01*
X115586904Y-44647619D02*
X115539285Y-44600000D01*
X115444047Y-44552380D01*
X115205952Y-44552380D01*
X115110714Y-44600000D01*
X115063095Y-44647619D01*
X115015476Y-44742857D01*
X115015476Y-44838095D01*
X115063095Y-44980952D01*
X115634523Y-45552380D01*
X115015476Y-45552380D01*
G04 #@! TO.C,SW31*
X80534523Y-102654761D02*
X80391666Y-102702380D01*
X80153571Y-102702380D01*
X80058333Y-102654761D01*
X80010714Y-102607142D01*
X79963095Y-102511904D01*
X79963095Y-102416666D01*
X80010714Y-102321428D01*
X80058333Y-102273809D01*
X80153571Y-102226190D01*
X80344047Y-102178571D01*
X80439285Y-102130952D01*
X80486904Y-102083333D01*
X80534523Y-101988095D01*
X80534523Y-101892857D01*
X80486904Y-101797619D01*
X80439285Y-101750000D01*
X80344047Y-101702380D01*
X80105952Y-101702380D01*
X79963095Y-101750000D01*
X79629761Y-101702380D02*
X79391666Y-102702380D01*
X79201190Y-101988095D01*
X79010714Y-102702380D01*
X78772619Y-101702380D01*
X78486904Y-101702380D02*
X77867857Y-101702380D01*
X78201190Y-102083333D01*
X78058333Y-102083333D01*
X77963095Y-102130952D01*
X77915476Y-102178571D01*
X77867857Y-102273809D01*
X77867857Y-102511904D01*
X77915476Y-102607142D01*
X77963095Y-102654761D01*
X78058333Y-102702380D01*
X78344047Y-102702380D01*
X78439285Y-102654761D01*
X78486904Y-102607142D01*
X76915476Y-102702380D02*
X77486904Y-102702380D01*
X77201190Y-102702380D02*
X77201190Y-101702380D01*
X77296428Y-101845238D01*
X77391666Y-101940476D01*
X77486904Y-101988095D01*
G04 #@! TO.C,SW3*
X70533333Y-26454761D02*
X70390476Y-26502380D01*
X70152380Y-26502380D01*
X70057142Y-26454761D01*
X70009523Y-26407142D01*
X69961904Y-26311904D01*
X69961904Y-26216666D01*
X70009523Y-26121428D01*
X70057142Y-26073809D01*
X70152380Y-26026190D01*
X70342857Y-25978571D01*
X70438095Y-25930952D01*
X70485714Y-25883333D01*
X70533333Y-25788095D01*
X70533333Y-25692857D01*
X70485714Y-25597619D01*
X70438095Y-25550000D01*
X70342857Y-25502380D01*
X70104761Y-25502380D01*
X69961904Y-25550000D01*
X69628571Y-25502380D02*
X69390476Y-26502380D01*
X69200000Y-25788095D01*
X69009523Y-26502380D01*
X68771428Y-25502380D01*
X68485714Y-25502380D02*
X67866666Y-25502380D01*
X68200000Y-25883333D01*
X68057142Y-25883333D01*
X67961904Y-25930952D01*
X67914285Y-25978571D01*
X67866666Y-26073809D01*
X67866666Y-26311904D01*
X67914285Y-26407142D01*
X67961904Y-26454761D01*
X68057142Y-26502380D01*
X68342857Y-26502380D01*
X68438095Y-26454761D01*
X68485714Y-26407142D01*
G04 #@! TO.C,SW4*
X89583333Y-26454761D02*
X89440476Y-26502380D01*
X89202380Y-26502380D01*
X89107142Y-26454761D01*
X89059523Y-26407142D01*
X89011904Y-26311904D01*
X89011904Y-26216666D01*
X89059523Y-26121428D01*
X89107142Y-26073809D01*
X89202380Y-26026190D01*
X89392857Y-25978571D01*
X89488095Y-25930952D01*
X89535714Y-25883333D01*
X89583333Y-25788095D01*
X89583333Y-25692857D01*
X89535714Y-25597619D01*
X89488095Y-25550000D01*
X89392857Y-25502380D01*
X89154761Y-25502380D01*
X89011904Y-25550000D01*
X88678571Y-25502380D02*
X88440476Y-26502380D01*
X88250000Y-25788095D01*
X88059523Y-26502380D01*
X87821428Y-25502380D01*
X87011904Y-25835714D02*
X87011904Y-26502380D01*
X87250000Y-25454761D02*
X87488095Y-26169047D01*
X86869047Y-26169047D01*
G04 #@! TO.C,SW5*
X108633333Y-26454761D02*
X108490476Y-26502380D01*
X108252380Y-26502380D01*
X108157142Y-26454761D01*
X108109523Y-26407142D01*
X108061904Y-26311904D01*
X108061904Y-26216666D01*
X108109523Y-26121428D01*
X108157142Y-26073809D01*
X108252380Y-26026190D01*
X108442857Y-25978571D01*
X108538095Y-25930952D01*
X108585714Y-25883333D01*
X108633333Y-25788095D01*
X108633333Y-25692857D01*
X108585714Y-25597619D01*
X108538095Y-25550000D01*
X108442857Y-25502380D01*
X108204761Y-25502380D01*
X108061904Y-25550000D01*
X107728571Y-25502380D02*
X107490476Y-26502380D01*
X107300000Y-25788095D01*
X107109523Y-26502380D01*
X106871428Y-25502380D01*
X106014285Y-25502380D02*
X106490476Y-25502380D01*
X106538095Y-25978571D01*
X106490476Y-25930952D01*
X106395238Y-25883333D01*
X106157142Y-25883333D01*
X106061904Y-25930952D01*
X106014285Y-25978571D01*
X105966666Y-26073809D01*
X105966666Y-26311904D01*
X106014285Y-26407142D01*
X106061904Y-26454761D01*
X106157142Y-26502380D01*
X106395238Y-26502380D01*
X106490476Y-26454761D01*
X106538095Y-26407142D01*
G04 #@! TO.C,SW7*
X146733333Y-26454761D02*
X146590476Y-26502380D01*
X146352380Y-26502380D01*
X146257142Y-26454761D01*
X146209523Y-26407142D01*
X146161904Y-26311904D01*
X146161904Y-26216666D01*
X146209523Y-26121428D01*
X146257142Y-26073809D01*
X146352380Y-26026190D01*
X146542857Y-25978571D01*
X146638095Y-25930952D01*
X146685714Y-25883333D01*
X146733333Y-25788095D01*
X146733333Y-25692857D01*
X146685714Y-25597619D01*
X146638095Y-25550000D01*
X146542857Y-25502380D01*
X146304761Y-25502380D01*
X146161904Y-25550000D01*
X145828571Y-25502380D02*
X145590476Y-26502380D01*
X145400000Y-25788095D01*
X145209523Y-26502380D01*
X144971428Y-25502380D01*
X144685714Y-25502380D02*
X144019047Y-25502380D01*
X144447619Y-26502380D01*
G04 #@! TO.C,SW8*
X37195833Y-45504761D02*
X37052976Y-45552380D01*
X36814880Y-45552380D01*
X36719642Y-45504761D01*
X36672023Y-45457142D01*
X36624404Y-45361904D01*
X36624404Y-45266666D01*
X36672023Y-45171428D01*
X36719642Y-45123809D01*
X36814880Y-45076190D01*
X37005357Y-45028571D01*
X37100595Y-44980952D01*
X37148214Y-44933333D01*
X37195833Y-44838095D01*
X37195833Y-44742857D01*
X37148214Y-44647619D01*
X37100595Y-44600000D01*
X37005357Y-44552380D01*
X36767261Y-44552380D01*
X36624404Y-44600000D01*
X36291071Y-44552380D02*
X36052976Y-45552380D01*
X35862500Y-44838095D01*
X35672023Y-45552380D01*
X35433928Y-44552380D01*
X34910119Y-44980952D02*
X35005357Y-44933333D01*
X35052976Y-44885714D01*
X35100595Y-44790476D01*
X35100595Y-44742857D01*
X35052976Y-44647619D01*
X35005357Y-44600000D01*
X34910119Y-44552380D01*
X34719642Y-44552380D01*
X34624404Y-44600000D01*
X34576785Y-44647619D01*
X34529166Y-44742857D01*
X34529166Y-44790476D01*
X34576785Y-44885714D01*
X34624404Y-44933333D01*
X34719642Y-44980952D01*
X34910119Y-44980952D01*
X35005357Y-45028571D01*
X35052976Y-45076190D01*
X35100595Y-45171428D01*
X35100595Y-45361904D01*
X35052976Y-45457142D01*
X35005357Y-45504761D01*
X34910119Y-45552380D01*
X34719642Y-45552380D01*
X34624404Y-45504761D01*
X34576785Y-45457142D01*
X34529166Y-45361904D01*
X34529166Y-45171428D01*
X34576785Y-45076190D01*
X34624404Y-45028571D01*
X34719642Y-44980952D01*
G04 #@! TO.C,SW18*
X104347523Y-64554761D02*
X104204666Y-64602380D01*
X103966571Y-64602380D01*
X103871333Y-64554761D01*
X103823714Y-64507142D01*
X103776095Y-64411904D01*
X103776095Y-64316666D01*
X103823714Y-64221428D01*
X103871333Y-64173809D01*
X103966571Y-64126190D01*
X104157047Y-64078571D01*
X104252285Y-64030952D01*
X104299904Y-63983333D01*
X104347523Y-63888095D01*
X104347523Y-63792857D01*
X104299904Y-63697619D01*
X104252285Y-63650000D01*
X104157047Y-63602380D01*
X103918952Y-63602380D01*
X103776095Y-63650000D01*
X103442761Y-63602380D02*
X103204666Y-64602380D01*
X103014190Y-63888095D01*
X102823714Y-64602380D01*
X102585619Y-63602380D01*
X101680857Y-64602380D02*
X102252285Y-64602380D01*
X101966571Y-64602380D02*
X101966571Y-63602380D01*
X102061809Y-63745238D01*
X102157047Y-63840476D01*
X102252285Y-63888095D01*
X101109428Y-64030952D02*
X101204666Y-63983333D01*
X101252285Y-63935714D01*
X101299904Y-63840476D01*
X101299904Y-63792857D01*
X101252285Y-63697619D01*
X101204666Y-63650000D01*
X101109428Y-63602380D01*
X100918952Y-63602380D01*
X100823714Y-63650000D01*
X100776095Y-63697619D01*
X100728476Y-63792857D01*
X100728476Y-63840476D01*
X100776095Y-63935714D01*
X100823714Y-63983333D01*
X100918952Y-64030952D01*
X101109428Y-64030952D01*
X101204666Y-64078571D01*
X101252285Y-64126190D01*
X101299904Y-64221428D01*
X101299904Y-64411904D01*
X101252285Y-64507142D01*
X101204666Y-64554761D01*
X101109428Y-64602380D01*
X100918952Y-64602380D01*
X100823714Y-64554761D01*
X100776095Y-64507142D01*
X100728476Y-64411904D01*
X100728476Y-64221428D01*
X100776095Y-64126190D01*
X100823714Y-64078571D01*
X100918952Y-64030952D01*
G04 #@! TO.C,SW10*
X80534523Y-45504761D02*
X80391666Y-45552380D01*
X80153571Y-45552380D01*
X80058333Y-45504761D01*
X80010714Y-45457142D01*
X79963095Y-45361904D01*
X79963095Y-45266666D01*
X80010714Y-45171428D01*
X80058333Y-45123809D01*
X80153571Y-45076190D01*
X80344047Y-45028571D01*
X80439285Y-44980952D01*
X80486904Y-44933333D01*
X80534523Y-44838095D01*
X80534523Y-44742857D01*
X80486904Y-44647619D01*
X80439285Y-44600000D01*
X80344047Y-44552380D01*
X80105952Y-44552380D01*
X79963095Y-44600000D01*
X79629761Y-44552380D02*
X79391666Y-45552380D01*
X79201190Y-44838095D01*
X79010714Y-45552380D01*
X78772619Y-44552380D01*
X77867857Y-45552380D02*
X78439285Y-45552380D01*
X78153571Y-45552380D02*
X78153571Y-44552380D01*
X78248809Y-44695238D01*
X78344047Y-44790476D01*
X78439285Y-44838095D01*
X77248809Y-44552380D02*
X77153571Y-44552380D01*
X77058333Y-44600000D01*
X77010714Y-44647619D01*
X76963095Y-44742857D01*
X76915476Y-44933333D01*
X76915476Y-45171428D01*
X76963095Y-45361904D01*
X77010714Y-45457142D01*
X77058333Y-45504761D01*
X77153571Y-45552380D01*
X77248809Y-45552380D01*
X77344047Y-45504761D01*
X77391666Y-45457142D01*
X77439285Y-45361904D01*
X77486904Y-45171428D01*
X77486904Y-44933333D01*
X77439285Y-44742857D01*
X77391666Y-44647619D01*
X77344047Y-44600000D01*
X77248809Y-44552380D01*
G04 #@! TO.C,SW11*
X99584523Y-45504761D02*
X99441666Y-45552380D01*
X99203571Y-45552380D01*
X99108333Y-45504761D01*
X99060714Y-45457142D01*
X99013095Y-45361904D01*
X99013095Y-45266666D01*
X99060714Y-45171428D01*
X99108333Y-45123809D01*
X99203571Y-45076190D01*
X99394047Y-45028571D01*
X99489285Y-44980952D01*
X99536904Y-44933333D01*
X99584523Y-44838095D01*
X99584523Y-44742857D01*
X99536904Y-44647619D01*
X99489285Y-44600000D01*
X99394047Y-44552380D01*
X99155952Y-44552380D01*
X99013095Y-44600000D01*
X98679761Y-44552380D02*
X98441666Y-45552380D01*
X98251190Y-44838095D01*
X98060714Y-45552380D01*
X97822619Y-44552380D01*
X96917857Y-45552380D02*
X97489285Y-45552380D01*
X97203571Y-45552380D02*
X97203571Y-44552380D01*
X97298809Y-44695238D01*
X97394047Y-44790476D01*
X97489285Y-44838095D01*
X95965476Y-45552380D02*
X96536904Y-45552380D01*
X96251190Y-45552380D02*
X96251190Y-44552380D01*
X96346428Y-44695238D01*
X96441666Y-44790476D01*
X96536904Y-44838095D01*
G04 #@! TO.C,SW13*
X137684523Y-45504761D02*
X137541666Y-45552380D01*
X137303571Y-45552380D01*
X137208333Y-45504761D01*
X137160714Y-45457142D01*
X137113095Y-45361904D01*
X137113095Y-45266666D01*
X137160714Y-45171428D01*
X137208333Y-45123809D01*
X137303571Y-45076190D01*
X137494047Y-45028571D01*
X137589285Y-44980952D01*
X137636904Y-44933333D01*
X137684523Y-44838095D01*
X137684523Y-44742857D01*
X137636904Y-44647619D01*
X137589285Y-44600000D01*
X137494047Y-44552380D01*
X137255952Y-44552380D01*
X137113095Y-44600000D01*
X136779761Y-44552380D02*
X136541666Y-45552380D01*
X136351190Y-44838095D01*
X136160714Y-45552380D01*
X135922619Y-44552380D01*
X135017857Y-45552380D02*
X135589285Y-45552380D01*
X135303571Y-45552380D02*
X135303571Y-44552380D01*
X135398809Y-44695238D01*
X135494047Y-44790476D01*
X135589285Y-44838095D01*
X134684523Y-44552380D02*
X134065476Y-44552380D01*
X134398809Y-44933333D01*
X134255952Y-44933333D01*
X134160714Y-44980952D01*
X134113095Y-45028571D01*
X134065476Y-45123809D01*
X134065476Y-45361904D01*
X134113095Y-45457142D01*
X134160714Y-45504761D01*
X134255952Y-45552380D01*
X134541666Y-45552380D01*
X134636904Y-45504761D01*
X134684523Y-45457142D01*
G04 #@! TO.C,SW14*
X156734523Y-45504761D02*
X156591666Y-45552380D01*
X156353571Y-45552380D01*
X156258333Y-45504761D01*
X156210714Y-45457142D01*
X156163095Y-45361904D01*
X156163095Y-45266666D01*
X156210714Y-45171428D01*
X156258333Y-45123809D01*
X156353571Y-45076190D01*
X156544047Y-45028571D01*
X156639285Y-44980952D01*
X156686904Y-44933333D01*
X156734523Y-44838095D01*
X156734523Y-44742857D01*
X156686904Y-44647619D01*
X156639285Y-44600000D01*
X156544047Y-44552380D01*
X156305952Y-44552380D01*
X156163095Y-44600000D01*
X155829761Y-44552380D02*
X155591666Y-45552380D01*
X155401190Y-44838095D01*
X155210714Y-45552380D01*
X154972619Y-44552380D01*
X154067857Y-45552380D02*
X154639285Y-45552380D01*
X154353571Y-45552380D02*
X154353571Y-44552380D01*
X154448809Y-44695238D01*
X154544047Y-44790476D01*
X154639285Y-44838095D01*
X153210714Y-44885714D02*
X153210714Y-45552380D01*
X153448809Y-44504761D02*
X153686904Y-45219047D01*
X153067857Y-45219047D01*
G04 #@! TO.C,SW15*
X40053323Y-64554761D02*
X39910466Y-64602380D01*
X39672371Y-64602380D01*
X39577133Y-64554761D01*
X39529514Y-64507142D01*
X39481895Y-64411904D01*
X39481895Y-64316666D01*
X39529514Y-64221428D01*
X39577133Y-64173809D01*
X39672371Y-64126190D01*
X39862847Y-64078571D01*
X39958085Y-64030952D01*
X40005704Y-63983333D01*
X40053323Y-63888095D01*
X40053323Y-63792857D01*
X40005704Y-63697619D01*
X39958085Y-63650000D01*
X39862847Y-63602380D01*
X39624752Y-63602380D01*
X39481895Y-63650000D01*
X39148561Y-63602380D02*
X38910466Y-64602380D01*
X38719990Y-63888095D01*
X38529514Y-64602380D01*
X38291419Y-63602380D01*
X37386657Y-64602380D02*
X37958085Y-64602380D01*
X37672371Y-64602380D02*
X37672371Y-63602380D01*
X37767609Y-63745238D01*
X37862847Y-63840476D01*
X37958085Y-63888095D01*
X36481895Y-63602380D02*
X36958085Y-63602380D01*
X37005704Y-64078571D01*
X36958085Y-64030952D01*
X36862847Y-63983333D01*
X36624752Y-63983333D01*
X36529514Y-64030952D01*
X36481895Y-64078571D01*
X36434276Y-64173809D01*
X36434276Y-64411904D01*
X36481895Y-64507142D01*
X36529514Y-64554761D01*
X36624752Y-64602380D01*
X36862847Y-64602380D01*
X36958085Y-64554761D01*
X37005704Y-64507142D01*
G04 #@! TO.C,SW16*
X66247023Y-64554761D02*
X66104166Y-64602380D01*
X65866071Y-64602380D01*
X65770833Y-64554761D01*
X65723214Y-64507142D01*
X65675595Y-64411904D01*
X65675595Y-64316666D01*
X65723214Y-64221428D01*
X65770833Y-64173809D01*
X65866071Y-64126190D01*
X66056547Y-64078571D01*
X66151785Y-64030952D01*
X66199404Y-63983333D01*
X66247023Y-63888095D01*
X66247023Y-63792857D01*
X66199404Y-63697619D01*
X66151785Y-63650000D01*
X66056547Y-63602380D01*
X65818452Y-63602380D01*
X65675595Y-63650000D01*
X65342261Y-63602380D02*
X65104166Y-64602380D01*
X64913690Y-63888095D01*
X64723214Y-64602380D01*
X64485119Y-63602380D01*
X63580357Y-64602380D02*
X64151785Y-64602380D01*
X63866071Y-64602380D02*
X63866071Y-63602380D01*
X63961309Y-63745238D01*
X64056547Y-63840476D01*
X64151785Y-63888095D01*
X62723214Y-63602380D02*
X62913690Y-63602380D01*
X63008928Y-63650000D01*
X63056547Y-63697619D01*
X63151785Y-63840476D01*
X63199404Y-64030952D01*
X63199404Y-64411904D01*
X63151785Y-64507142D01*
X63104166Y-64554761D01*
X63008928Y-64602380D01*
X62818452Y-64602380D01*
X62723214Y-64554761D01*
X62675595Y-64507142D01*
X62627976Y-64411904D01*
X62627976Y-64173809D01*
X62675595Y-64078571D01*
X62723214Y-64030952D01*
X62818452Y-63983333D01*
X63008928Y-63983333D01*
X63104166Y-64030952D01*
X63151785Y-64078571D01*
X63199404Y-64173809D01*
G04 #@! TO.C,SW17*
X85297023Y-64554761D02*
X85154166Y-64602380D01*
X84916071Y-64602380D01*
X84820833Y-64554761D01*
X84773214Y-64507142D01*
X84725595Y-64411904D01*
X84725595Y-64316666D01*
X84773214Y-64221428D01*
X84820833Y-64173809D01*
X84916071Y-64126190D01*
X85106547Y-64078571D01*
X85201785Y-64030952D01*
X85249404Y-63983333D01*
X85297023Y-63888095D01*
X85297023Y-63792857D01*
X85249404Y-63697619D01*
X85201785Y-63650000D01*
X85106547Y-63602380D01*
X84868452Y-63602380D01*
X84725595Y-63650000D01*
X84392261Y-63602380D02*
X84154166Y-64602380D01*
X83963690Y-63888095D01*
X83773214Y-64602380D01*
X83535119Y-63602380D01*
X82630357Y-64602380D02*
X83201785Y-64602380D01*
X82916071Y-64602380D02*
X82916071Y-63602380D01*
X83011309Y-63745238D01*
X83106547Y-63840476D01*
X83201785Y-63888095D01*
X82297023Y-63602380D02*
X81630357Y-63602380D01*
X82058928Y-64602380D01*
G04 #@! TO.C,SW19*
X123397523Y-64554761D02*
X123254666Y-64602380D01*
X123016571Y-64602380D01*
X122921333Y-64554761D01*
X122873714Y-64507142D01*
X122826095Y-64411904D01*
X122826095Y-64316666D01*
X122873714Y-64221428D01*
X122921333Y-64173809D01*
X123016571Y-64126190D01*
X123207047Y-64078571D01*
X123302285Y-64030952D01*
X123349904Y-63983333D01*
X123397523Y-63888095D01*
X123397523Y-63792857D01*
X123349904Y-63697619D01*
X123302285Y-63650000D01*
X123207047Y-63602380D01*
X122968952Y-63602380D01*
X122826095Y-63650000D01*
X122492761Y-63602380D02*
X122254666Y-64602380D01*
X122064190Y-63888095D01*
X121873714Y-64602380D01*
X121635619Y-63602380D01*
X120730857Y-64602380D02*
X121302285Y-64602380D01*
X121016571Y-64602380D02*
X121016571Y-63602380D01*
X121111809Y-63745238D01*
X121207047Y-63840476D01*
X121302285Y-63888095D01*
X120254666Y-64602380D02*
X120064190Y-64602380D01*
X119968952Y-64554761D01*
X119921333Y-64507142D01*
X119826095Y-64364285D01*
X119778476Y-64173809D01*
X119778476Y-63792857D01*
X119826095Y-63697619D01*
X119873714Y-63650000D01*
X119968952Y-63602380D01*
X120159428Y-63602380D01*
X120254666Y-63650000D01*
X120302285Y-63697619D01*
X120349904Y-63792857D01*
X120349904Y-64030952D01*
X120302285Y-64126190D01*
X120254666Y-64173809D01*
X120159428Y-64221428D01*
X119968952Y-64221428D01*
X119873714Y-64173809D01*
X119826095Y-64126190D01*
X119778476Y-64030952D01*
G04 #@! TO.C,SW9*
X61008333Y-45504761D02*
X60865476Y-45552380D01*
X60627380Y-45552380D01*
X60532142Y-45504761D01*
X60484523Y-45457142D01*
X60436904Y-45361904D01*
X60436904Y-45266666D01*
X60484523Y-45171428D01*
X60532142Y-45123809D01*
X60627380Y-45076190D01*
X60817857Y-45028571D01*
X60913095Y-44980952D01*
X60960714Y-44933333D01*
X61008333Y-44838095D01*
X61008333Y-44742857D01*
X60960714Y-44647619D01*
X60913095Y-44600000D01*
X60817857Y-44552380D01*
X60579761Y-44552380D01*
X60436904Y-44600000D01*
X60103571Y-44552380D02*
X59865476Y-45552380D01*
X59675000Y-44838095D01*
X59484523Y-45552380D01*
X59246428Y-44552380D01*
X58817857Y-45552380D02*
X58627380Y-45552380D01*
X58532142Y-45504761D01*
X58484523Y-45457142D01*
X58389285Y-45314285D01*
X58341666Y-45123809D01*
X58341666Y-44742857D01*
X58389285Y-44647619D01*
X58436904Y-44600000D01*
X58532142Y-44552380D01*
X58722619Y-44552380D01*
X58817857Y-44600000D01*
X58865476Y-44647619D01*
X58913095Y-44742857D01*
X58913095Y-44980952D01*
X58865476Y-45076190D01*
X58817857Y-45123809D01*
X58722619Y-45171428D01*
X58532142Y-45171428D01*
X58436904Y-45123809D01*
X58389285Y-45076190D01*
X58341666Y-44980952D01*
G04 #@! TO.C,SW6*
X127683333Y-26454761D02*
X127540476Y-26502380D01*
X127302380Y-26502380D01*
X127207142Y-26454761D01*
X127159523Y-26407142D01*
X127111904Y-26311904D01*
X127111904Y-26216666D01*
X127159523Y-26121428D01*
X127207142Y-26073809D01*
X127302380Y-26026190D01*
X127492857Y-25978571D01*
X127588095Y-25930952D01*
X127635714Y-25883333D01*
X127683333Y-25788095D01*
X127683333Y-25692857D01*
X127635714Y-25597619D01*
X127588095Y-25550000D01*
X127492857Y-25502380D01*
X127254761Y-25502380D01*
X127111904Y-25550000D01*
X126778571Y-25502380D02*
X126540476Y-26502380D01*
X126350000Y-25788095D01*
X126159523Y-26502380D01*
X125921428Y-25502380D01*
X125111904Y-25502380D02*
X125302380Y-25502380D01*
X125397619Y-25550000D01*
X125445238Y-25597619D01*
X125540476Y-25740476D01*
X125588095Y-25930952D01*
X125588095Y-26311904D01*
X125540476Y-26407142D01*
X125492857Y-26454761D01*
X125397619Y-26502380D01*
X125207142Y-26502380D01*
X125111904Y-26454761D01*
X125064285Y-26407142D01*
X125016666Y-26311904D01*
X125016666Y-26073809D01*
X125064285Y-25978571D01*
X125111904Y-25930952D01*
X125207142Y-25883333D01*
X125397619Y-25883333D01*
X125492857Y-25930952D01*
X125540476Y-25978571D01*
X125588095Y-26073809D01*
G04 #@! TO.C,SW1*
X32433333Y-26454761D02*
X32290476Y-26502380D01*
X32052380Y-26502380D01*
X31957142Y-26454761D01*
X31909523Y-26407142D01*
X31861904Y-26311904D01*
X31861904Y-26216666D01*
X31909523Y-26121428D01*
X31957142Y-26073809D01*
X32052380Y-26026190D01*
X32242857Y-25978571D01*
X32338095Y-25930952D01*
X32385714Y-25883333D01*
X32433333Y-25788095D01*
X32433333Y-25692857D01*
X32385714Y-25597619D01*
X32338095Y-25550000D01*
X32242857Y-25502380D01*
X32004761Y-25502380D01*
X31861904Y-25550000D01*
X31528571Y-25502380D02*
X31290476Y-26502380D01*
X31100000Y-25788095D01*
X30909523Y-26502380D01*
X30671428Y-25502380D01*
X29766666Y-26502380D02*
X30338095Y-26502380D01*
X30052380Y-26502380D02*
X30052380Y-25502380D01*
X30147619Y-25645238D01*
X30242857Y-25740476D01*
X30338095Y-25788095D01*
G04 #@! TO.C,D1*
X48807380Y-18311904D02*
X47807380Y-18311904D01*
X47807380Y-18550000D01*
X47855000Y-18692857D01*
X47950238Y-18788095D01*
X48045476Y-18835714D01*
X48235952Y-18883333D01*
X48378809Y-18883333D01*
X48569285Y-18835714D01*
X48664523Y-18788095D01*
X48759761Y-18692857D01*
X48807380Y-18550000D01*
X48807380Y-18311904D01*
X48807380Y-19835714D02*
X48807380Y-19264285D01*
X48807380Y-19550000D02*
X47807380Y-19550000D01*
X47950238Y-19454761D01*
X48045476Y-19359523D01*
X48093095Y-19264285D01*
G04 #@! TO.C,D2*
X67857380Y-18311904D02*
X66857380Y-18311904D01*
X66857380Y-18550000D01*
X66905000Y-18692857D01*
X67000238Y-18788095D01*
X67095476Y-18835714D01*
X67285952Y-18883333D01*
X67428809Y-18883333D01*
X67619285Y-18835714D01*
X67714523Y-18788095D01*
X67809761Y-18692857D01*
X67857380Y-18550000D01*
X67857380Y-18311904D01*
X66952619Y-19264285D02*
X66905000Y-19311904D01*
X66857380Y-19407142D01*
X66857380Y-19645238D01*
X66905000Y-19740476D01*
X66952619Y-19788095D01*
X67047857Y-19835714D01*
X67143095Y-19835714D01*
X67285952Y-19788095D01*
X67857380Y-19216666D01*
X67857380Y-19835714D01*
G04 #@! TO.C,D3*
X86907380Y-18311904D02*
X85907380Y-18311904D01*
X85907380Y-18550000D01*
X85955000Y-18692857D01*
X86050238Y-18788095D01*
X86145476Y-18835714D01*
X86335952Y-18883333D01*
X86478809Y-18883333D01*
X86669285Y-18835714D01*
X86764523Y-18788095D01*
X86859761Y-18692857D01*
X86907380Y-18550000D01*
X86907380Y-18311904D01*
X85907380Y-19216666D02*
X85907380Y-19835714D01*
X86288333Y-19502380D01*
X86288333Y-19645238D01*
X86335952Y-19740476D01*
X86383571Y-19788095D01*
X86478809Y-19835714D01*
X86716904Y-19835714D01*
X86812142Y-19788095D01*
X86859761Y-19740476D01*
X86907380Y-19645238D01*
X86907380Y-19359523D01*
X86859761Y-19264285D01*
X86812142Y-19216666D01*
G04 #@! TO.C,D4*
X105957380Y-18311904D02*
X104957380Y-18311904D01*
X104957380Y-18550000D01*
X105005000Y-18692857D01*
X105100238Y-18788095D01*
X105195476Y-18835714D01*
X105385952Y-18883333D01*
X105528809Y-18883333D01*
X105719285Y-18835714D01*
X105814523Y-18788095D01*
X105909761Y-18692857D01*
X105957380Y-18550000D01*
X105957380Y-18311904D01*
X105290714Y-19740476D02*
X105957380Y-19740476D01*
X104909761Y-19502380D02*
X105624047Y-19264285D01*
X105624047Y-19883333D01*
G04 #@! TO.C,D5*
X125007380Y-18311904D02*
X124007380Y-18311904D01*
X124007380Y-18550000D01*
X124055000Y-18692857D01*
X124150238Y-18788095D01*
X124245476Y-18835714D01*
X124435952Y-18883333D01*
X124578809Y-18883333D01*
X124769285Y-18835714D01*
X124864523Y-18788095D01*
X124959761Y-18692857D01*
X125007380Y-18550000D01*
X125007380Y-18311904D01*
X124007380Y-19788095D02*
X124007380Y-19311904D01*
X124483571Y-19264285D01*
X124435952Y-19311904D01*
X124388333Y-19407142D01*
X124388333Y-19645238D01*
X124435952Y-19740476D01*
X124483571Y-19788095D01*
X124578809Y-19835714D01*
X124816904Y-19835714D01*
X124912142Y-19788095D01*
X124959761Y-19740476D01*
X125007380Y-19645238D01*
X125007380Y-19407142D01*
X124959761Y-19311904D01*
X124912142Y-19264285D01*
G04 #@! TO.C,D6*
X144057380Y-18311904D02*
X143057380Y-18311904D01*
X143057380Y-18550000D01*
X143105000Y-18692857D01*
X143200238Y-18788095D01*
X143295476Y-18835714D01*
X143485952Y-18883333D01*
X143628809Y-18883333D01*
X143819285Y-18835714D01*
X143914523Y-18788095D01*
X144009761Y-18692857D01*
X144057380Y-18550000D01*
X144057380Y-18311904D01*
X143057380Y-19740476D02*
X143057380Y-19550000D01*
X143105000Y-19454761D01*
X143152619Y-19407142D01*
X143295476Y-19311904D01*
X143485952Y-19264285D01*
X143866904Y-19264285D01*
X143962142Y-19311904D01*
X144009761Y-19359523D01*
X144057380Y-19454761D01*
X144057380Y-19645238D01*
X144009761Y-19740476D01*
X143962142Y-19788095D01*
X143866904Y-19835714D01*
X143628809Y-19835714D01*
X143533571Y-19788095D01*
X143485952Y-19740476D01*
X143438333Y-19645238D01*
X143438333Y-19454761D01*
X143485952Y-19359523D01*
X143533571Y-19311904D01*
X143628809Y-19264285D01*
G04 #@! TO.C,D7*
X163107380Y-18311904D02*
X162107380Y-18311904D01*
X162107380Y-18550000D01*
X162155000Y-18692857D01*
X162250238Y-18788095D01*
X162345476Y-18835714D01*
X162535952Y-18883333D01*
X162678809Y-18883333D01*
X162869285Y-18835714D01*
X162964523Y-18788095D01*
X163059761Y-18692857D01*
X163107380Y-18550000D01*
X163107380Y-18311904D01*
X162107380Y-19216666D02*
X162107380Y-19883333D01*
X163107380Y-19454761D01*
G04 #@! TO.C,D8*
X53569880Y-37361904D02*
X52569880Y-37361904D01*
X52569880Y-37600000D01*
X52617500Y-37742857D01*
X52712738Y-37838095D01*
X52807976Y-37885714D01*
X52998452Y-37933333D01*
X53141309Y-37933333D01*
X53331785Y-37885714D01*
X53427023Y-37838095D01*
X53522261Y-37742857D01*
X53569880Y-37600000D01*
X53569880Y-37361904D01*
X52998452Y-38504761D02*
X52950833Y-38409523D01*
X52903214Y-38361904D01*
X52807976Y-38314285D01*
X52760357Y-38314285D01*
X52665119Y-38361904D01*
X52617500Y-38409523D01*
X52569880Y-38504761D01*
X52569880Y-38695238D01*
X52617500Y-38790476D01*
X52665119Y-38838095D01*
X52760357Y-38885714D01*
X52807976Y-38885714D01*
X52903214Y-38838095D01*
X52950833Y-38790476D01*
X52998452Y-38695238D01*
X52998452Y-38504761D01*
X53046071Y-38409523D01*
X53093690Y-38361904D01*
X53188928Y-38314285D01*
X53379404Y-38314285D01*
X53474642Y-38361904D01*
X53522261Y-38409523D01*
X53569880Y-38504761D01*
X53569880Y-38695238D01*
X53522261Y-38790476D01*
X53474642Y-38838095D01*
X53379404Y-38885714D01*
X53188928Y-38885714D01*
X53093690Y-38838095D01*
X53046071Y-38790476D01*
X52998452Y-38695238D01*
G04 #@! TO.C,D9*
X77382380Y-37361904D02*
X76382380Y-37361904D01*
X76382380Y-37600000D01*
X76430000Y-37742857D01*
X76525238Y-37838095D01*
X76620476Y-37885714D01*
X76810952Y-37933333D01*
X76953809Y-37933333D01*
X77144285Y-37885714D01*
X77239523Y-37838095D01*
X77334761Y-37742857D01*
X77382380Y-37600000D01*
X77382380Y-37361904D01*
X77382380Y-38409523D02*
X77382380Y-38600000D01*
X77334761Y-38695238D01*
X77287142Y-38742857D01*
X77144285Y-38838095D01*
X76953809Y-38885714D01*
X76572857Y-38885714D01*
X76477619Y-38838095D01*
X76430000Y-38790476D01*
X76382380Y-38695238D01*
X76382380Y-38504761D01*
X76430000Y-38409523D01*
X76477619Y-38361904D01*
X76572857Y-38314285D01*
X76810952Y-38314285D01*
X76906190Y-38361904D01*
X76953809Y-38409523D01*
X77001428Y-38504761D01*
X77001428Y-38695238D01*
X76953809Y-38790476D01*
X76906190Y-38838095D01*
X76810952Y-38885714D01*
G04 #@! TO.C,D10*
X96432380Y-36885714D02*
X95432380Y-36885714D01*
X95432380Y-37123809D01*
X95480000Y-37266666D01*
X95575238Y-37361904D01*
X95670476Y-37409523D01*
X95860952Y-37457142D01*
X96003809Y-37457142D01*
X96194285Y-37409523D01*
X96289523Y-37361904D01*
X96384761Y-37266666D01*
X96432380Y-37123809D01*
X96432380Y-36885714D01*
X96432380Y-38409523D02*
X96432380Y-37838095D01*
X96432380Y-38123809D02*
X95432380Y-38123809D01*
X95575238Y-38028571D01*
X95670476Y-37933333D01*
X95718095Y-37838095D01*
X95432380Y-39028571D02*
X95432380Y-39123809D01*
X95480000Y-39219047D01*
X95527619Y-39266666D01*
X95622857Y-39314285D01*
X95813333Y-39361904D01*
X96051428Y-39361904D01*
X96241904Y-39314285D01*
X96337142Y-39266666D01*
X96384761Y-39219047D01*
X96432380Y-39123809D01*
X96432380Y-39028571D01*
X96384761Y-38933333D01*
X96337142Y-38885714D01*
X96241904Y-38838095D01*
X96051428Y-38790476D01*
X95813333Y-38790476D01*
X95622857Y-38838095D01*
X95527619Y-38885714D01*
X95480000Y-38933333D01*
X95432380Y-39028571D01*
G04 #@! TO.C,D11*
X115482380Y-36885714D02*
X114482380Y-36885714D01*
X114482380Y-37123809D01*
X114530000Y-37266666D01*
X114625238Y-37361904D01*
X114720476Y-37409523D01*
X114910952Y-37457142D01*
X115053809Y-37457142D01*
X115244285Y-37409523D01*
X115339523Y-37361904D01*
X115434761Y-37266666D01*
X115482380Y-37123809D01*
X115482380Y-36885714D01*
X115482380Y-38409523D02*
X115482380Y-37838095D01*
X115482380Y-38123809D02*
X114482380Y-38123809D01*
X114625238Y-38028571D01*
X114720476Y-37933333D01*
X114768095Y-37838095D01*
X115482380Y-39361904D02*
X115482380Y-38790476D01*
X115482380Y-39076190D02*
X114482380Y-39076190D01*
X114625238Y-38980952D01*
X114720476Y-38885714D01*
X114768095Y-38790476D01*
G04 #@! TO.C,D12*
X134532380Y-36885714D02*
X133532380Y-36885714D01*
X133532380Y-37123809D01*
X133580000Y-37266666D01*
X133675238Y-37361904D01*
X133770476Y-37409523D01*
X133960952Y-37457142D01*
X134103809Y-37457142D01*
X134294285Y-37409523D01*
X134389523Y-37361904D01*
X134484761Y-37266666D01*
X134532380Y-37123809D01*
X134532380Y-36885714D01*
X134532380Y-38409523D02*
X134532380Y-37838095D01*
X134532380Y-38123809D02*
X133532380Y-38123809D01*
X133675238Y-38028571D01*
X133770476Y-37933333D01*
X133818095Y-37838095D01*
X133627619Y-38790476D02*
X133580000Y-38838095D01*
X133532380Y-38933333D01*
X133532380Y-39171428D01*
X133580000Y-39266666D01*
X133627619Y-39314285D01*
X133722857Y-39361904D01*
X133818095Y-39361904D01*
X133960952Y-39314285D01*
X134532380Y-38742857D01*
X134532380Y-39361904D01*
G04 #@! TO.C,D13*
X153582380Y-36885714D02*
X152582380Y-36885714D01*
X152582380Y-37123809D01*
X152630000Y-37266666D01*
X152725238Y-37361904D01*
X152820476Y-37409523D01*
X153010952Y-37457142D01*
X153153809Y-37457142D01*
X153344285Y-37409523D01*
X153439523Y-37361904D01*
X153534761Y-37266666D01*
X153582380Y-37123809D01*
X153582380Y-36885714D01*
X153582380Y-38409523D02*
X153582380Y-37838095D01*
X153582380Y-38123809D02*
X152582380Y-38123809D01*
X152725238Y-38028571D01*
X152820476Y-37933333D01*
X152868095Y-37838095D01*
X152582380Y-38742857D02*
X152582380Y-39361904D01*
X152963333Y-39028571D01*
X152963333Y-39171428D01*
X153010952Y-39266666D01*
X153058571Y-39314285D01*
X153153809Y-39361904D01*
X153391904Y-39361904D01*
X153487142Y-39314285D01*
X153534761Y-39266666D01*
X153582380Y-39171428D01*
X153582380Y-38885714D01*
X153534761Y-38790476D01*
X153487142Y-38742857D01*
G04 #@! TO.C,D14*
X172632380Y-36885714D02*
X171632380Y-36885714D01*
X171632380Y-37123809D01*
X171680000Y-37266666D01*
X171775238Y-37361904D01*
X171870476Y-37409523D01*
X172060952Y-37457142D01*
X172203809Y-37457142D01*
X172394285Y-37409523D01*
X172489523Y-37361904D01*
X172584761Y-37266666D01*
X172632380Y-37123809D01*
X172632380Y-36885714D01*
X172632380Y-38409523D02*
X172632380Y-37838095D01*
X172632380Y-38123809D02*
X171632380Y-38123809D01*
X171775238Y-38028571D01*
X171870476Y-37933333D01*
X171918095Y-37838095D01*
X171965714Y-39266666D02*
X172632380Y-39266666D01*
X171584761Y-39028571D02*
X172299047Y-38790476D01*
X172299047Y-39409523D01*
G04 #@! TO.C,D15*
X55951180Y-55935714D02*
X54951180Y-55935714D01*
X54951180Y-56173809D01*
X54998800Y-56316666D01*
X55094038Y-56411904D01*
X55189276Y-56459523D01*
X55379752Y-56507142D01*
X55522609Y-56507142D01*
X55713085Y-56459523D01*
X55808323Y-56411904D01*
X55903561Y-56316666D01*
X55951180Y-56173809D01*
X55951180Y-55935714D01*
X55951180Y-57459523D02*
X55951180Y-56888095D01*
X55951180Y-57173809D02*
X54951180Y-57173809D01*
X55094038Y-57078571D01*
X55189276Y-56983333D01*
X55236895Y-56888095D01*
X54951180Y-58364285D02*
X54951180Y-57888095D01*
X55427371Y-57840476D01*
X55379752Y-57888095D01*
X55332133Y-57983333D01*
X55332133Y-58221428D01*
X55379752Y-58316666D01*
X55427371Y-58364285D01*
X55522609Y-58411904D01*
X55760704Y-58411904D01*
X55855942Y-58364285D01*
X55903561Y-58316666D01*
X55951180Y-58221428D01*
X55951180Y-57983333D01*
X55903561Y-57888095D01*
X55855942Y-57840476D01*
G04 #@! TO.C,D16*
X82144880Y-55935714D02*
X81144880Y-55935714D01*
X81144880Y-56173809D01*
X81192500Y-56316666D01*
X81287738Y-56411904D01*
X81382976Y-56459523D01*
X81573452Y-56507142D01*
X81716309Y-56507142D01*
X81906785Y-56459523D01*
X82002023Y-56411904D01*
X82097261Y-56316666D01*
X82144880Y-56173809D01*
X82144880Y-55935714D01*
X82144880Y-57459523D02*
X82144880Y-56888095D01*
X82144880Y-57173809D02*
X81144880Y-57173809D01*
X81287738Y-57078571D01*
X81382976Y-56983333D01*
X81430595Y-56888095D01*
X81144880Y-58316666D02*
X81144880Y-58126190D01*
X81192500Y-58030952D01*
X81240119Y-57983333D01*
X81382976Y-57888095D01*
X81573452Y-57840476D01*
X81954404Y-57840476D01*
X82049642Y-57888095D01*
X82097261Y-57935714D01*
X82144880Y-58030952D01*
X82144880Y-58221428D01*
X82097261Y-58316666D01*
X82049642Y-58364285D01*
X81954404Y-58411904D01*
X81716309Y-58411904D01*
X81621071Y-58364285D01*
X81573452Y-58316666D01*
X81525833Y-58221428D01*
X81525833Y-58030952D01*
X81573452Y-57935714D01*
X81621071Y-57888095D01*
X81716309Y-57840476D01*
G04 #@! TO.C,D17*
X101194880Y-55935714D02*
X100194880Y-55935714D01*
X100194880Y-56173809D01*
X100242500Y-56316666D01*
X100337738Y-56411904D01*
X100432976Y-56459523D01*
X100623452Y-56507142D01*
X100766309Y-56507142D01*
X100956785Y-56459523D01*
X101052023Y-56411904D01*
X101147261Y-56316666D01*
X101194880Y-56173809D01*
X101194880Y-55935714D01*
X101194880Y-57459523D02*
X101194880Y-56888095D01*
X101194880Y-57173809D02*
X100194880Y-57173809D01*
X100337738Y-57078571D01*
X100432976Y-56983333D01*
X100480595Y-56888095D01*
X100194880Y-57792857D02*
X100194880Y-58459523D01*
X101194880Y-58030952D01*
G04 #@! TO.C,D18*
X120244380Y-55935714D02*
X119244380Y-55935714D01*
X119244380Y-56173809D01*
X119292000Y-56316666D01*
X119387238Y-56411904D01*
X119482476Y-56459523D01*
X119672952Y-56507142D01*
X119815809Y-56507142D01*
X120006285Y-56459523D01*
X120101523Y-56411904D01*
X120196761Y-56316666D01*
X120244380Y-56173809D01*
X120244380Y-55935714D01*
X120244380Y-57459523D02*
X120244380Y-56888095D01*
X120244380Y-57173809D02*
X119244380Y-57173809D01*
X119387238Y-57078571D01*
X119482476Y-56983333D01*
X119530095Y-56888095D01*
X119672952Y-58030952D02*
X119625333Y-57935714D01*
X119577714Y-57888095D01*
X119482476Y-57840476D01*
X119434857Y-57840476D01*
X119339619Y-57888095D01*
X119292000Y-57935714D01*
X119244380Y-58030952D01*
X119244380Y-58221428D01*
X119292000Y-58316666D01*
X119339619Y-58364285D01*
X119434857Y-58411904D01*
X119482476Y-58411904D01*
X119577714Y-58364285D01*
X119625333Y-58316666D01*
X119672952Y-58221428D01*
X119672952Y-58030952D01*
X119720571Y-57935714D01*
X119768190Y-57888095D01*
X119863428Y-57840476D01*
X120053904Y-57840476D01*
X120149142Y-57888095D01*
X120196761Y-57935714D01*
X120244380Y-58030952D01*
X120244380Y-58221428D01*
X120196761Y-58316666D01*
X120149142Y-58364285D01*
X120053904Y-58411904D01*
X119863428Y-58411904D01*
X119768190Y-58364285D01*
X119720571Y-58316666D01*
X119672952Y-58221428D01*
G04 #@! TO.C,D19*
X139294380Y-55935714D02*
X138294380Y-55935714D01*
X138294380Y-56173809D01*
X138342000Y-56316666D01*
X138437238Y-56411904D01*
X138532476Y-56459523D01*
X138722952Y-56507142D01*
X138865809Y-56507142D01*
X139056285Y-56459523D01*
X139151523Y-56411904D01*
X139246761Y-56316666D01*
X139294380Y-56173809D01*
X139294380Y-55935714D01*
X139294380Y-57459523D02*
X139294380Y-56888095D01*
X139294380Y-57173809D02*
X138294380Y-57173809D01*
X138437238Y-57078571D01*
X138532476Y-56983333D01*
X138580095Y-56888095D01*
X139294380Y-57935714D02*
X139294380Y-58126190D01*
X139246761Y-58221428D01*
X139199142Y-58269047D01*
X139056285Y-58364285D01*
X138865809Y-58411904D01*
X138484857Y-58411904D01*
X138389619Y-58364285D01*
X138342000Y-58316666D01*
X138294380Y-58221428D01*
X138294380Y-58030952D01*
X138342000Y-57935714D01*
X138389619Y-57888095D01*
X138484857Y-57840476D01*
X138722952Y-57840476D01*
X138818190Y-57888095D01*
X138865809Y-57935714D01*
X138913428Y-58030952D01*
X138913428Y-58221428D01*
X138865809Y-58316666D01*
X138818190Y-58364285D01*
X138722952Y-58411904D01*
G04 #@! TO.C,D20*
X158344380Y-55935714D02*
X157344380Y-55935714D01*
X157344380Y-56173809D01*
X157392000Y-56316666D01*
X157487238Y-56411904D01*
X157582476Y-56459523D01*
X157772952Y-56507142D01*
X157915809Y-56507142D01*
X158106285Y-56459523D01*
X158201523Y-56411904D01*
X158296761Y-56316666D01*
X158344380Y-56173809D01*
X158344380Y-55935714D01*
X157439619Y-56888095D02*
X157392000Y-56935714D01*
X157344380Y-57030952D01*
X157344380Y-57269047D01*
X157392000Y-57364285D01*
X157439619Y-57411904D01*
X157534857Y-57459523D01*
X157630095Y-57459523D01*
X157772952Y-57411904D01*
X158344380Y-56840476D01*
X158344380Y-57459523D01*
X157344380Y-58078571D02*
X157344380Y-58173809D01*
X157392000Y-58269047D01*
X157439619Y-58316666D01*
X157534857Y-58364285D01*
X157725333Y-58411904D01*
X157963428Y-58411904D01*
X158153904Y-58364285D01*
X158249142Y-58316666D01*
X158296761Y-58269047D01*
X158344380Y-58173809D01*
X158344380Y-58078571D01*
X158296761Y-57983333D01*
X158249142Y-57935714D01*
X158153904Y-57888095D01*
X157963428Y-57840476D01*
X157725333Y-57840476D01*
X157534857Y-57888095D01*
X157439619Y-57935714D01*
X157392000Y-57983333D01*
X157344380Y-58078571D01*
G04 #@! TO.C,D22*
X60713580Y-74985714D02*
X59713580Y-74985714D01*
X59713580Y-75223809D01*
X59761200Y-75366666D01*
X59856438Y-75461904D01*
X59951676Y-75509523D01*
X60142152Y-75557142D01*
X60285009Y-75557142D01*
X60475485Y-75509523D01*
X60570723Y-75461904D01*
X60665961Y-75366666D01*
X60713580Y-75223809D01*
X60713580Y-74985714D01*
X59808819Y-75938095D02*
X59761200Y-75985714D01*
X59713580Y-76080952D01*
X59713580Y-76319047D01*
X59761200Y-76414285D01*
X59808819Y-76461904D01*
X59904057Y-76509523D01*
X59999295Y-76509523D01*
X60142152Y-76461904D01*
X60713580Y-75890476D01*
X60713580Y-76509523D01*
X59808819Y-76890476D02*
X59761200Y-76938095D01*
X59713580Y-77033333D01*
X59713580Y-77271428D01*
X59761200Y-77366666D01*
X59808819Y-77414285D01*
X59904057Y-77461904D01*
X59999295Y-77461904D01*
X60142152Y-77414285D01*
X60713580Y-76842857D01*
X60713580Y-77461904D01*
G04 #@! TO.C,D23*
X91669880Y-74985714D02*
X90669880Y-74985714D01*
X90669880Y-75223809D01*
X90717500Y-75366666D01*
X90812738Y-75461904D01*
X90907976Y-75509523D01*
X91098452Y-75557142D01*
X91241309Y-75557142D01*
X91431785Y-75509523D01*
X91527023Y-75461904D01*
X91622261Y-75366666D01*
X91669880Y-75223809D01*
X91669880Y-74985714D01*
X90765119Y-75938095D02*
X90717500Y-75985714D01*
X90669880Y-76080952D01*
X90669880Y-76319047D01*
X90717500Y-76414285D01*
X90765119Y-76461904D01*
X90860357Y-76509523D01*
X90955595Y-76509523D01*
X91098452Y-76461904D01*
X91669880Y-75890476D01*
X91669880Y-76509523D01*
X90669880Y-76842857D02*
X90669880Y-77461904D01*
X91050833Y-77128571D01*
X91050833Y-77271428D01*
X91098452Y-77366666D01*
X91146071Y-77414285D01*
X91241309Y-77461904D01*
X91479404Y-77461904D01*
X91574642Y-77414285D01*
X91622261Y-77366666D01*
X91669880Y-77271428D01*
X91669880Y-76985714D01*
X91622261Y-76890476D01*
X91574642Y-76842857D01*
G04 #@! TO.C,D24*
X110720380Y-74985714D02*
X109720380Y-74985714D01*
X109720380Y-75223809D01*
X109768000Y-75366666D01*
X109863238Y-75461904D01*
X109958476Y-75509523D01*
X110148952Y-75557142D01*
X110291809Y-75557142D01*
X110482285Y-75509523D01*
X110577523Y-75461904D01*
X110672761Y-75366666D01*
X110720380Y-75223809D01*
X110720380Y-74985714D01*
X109815619Y-75938095D02*
X109768000Y-75985714D01*
X109720380Y-76080952D01*
X109720380Y-76319047D01*
X109768000Y-76414285D01*
X109815619Y-76461904D01*
X109910857Y-76509523D01*
X110006095Y-76509523D01*
X110148952Y-76461904D01*
X110720380Y-75890476D01*
X110720380Y-76509523D01*
X110053714Y-77366666D02*
X110720380Y-77366666D01*
X109672761Y-77128571D02*
X110387047Y-76890476D01*
X110387047Y-77509523D01*
G04 #@! TO.C,D25*
X129770380Y-74985714D02*
X128770380Y-74985714D01*
X128770380Y-75223809D01*
X128818000Y-75366666D01*
X128913238Y-75461904D01*
X129008476Y-75509523D01*
X129198952Y-75557142D01*
X129341809Y-75557142D01*
X129532285Y-75509523D01*
X129627523Y-75461904D01*
X129722761Y-75366666D01*
X129770380Y-75223809D01*
X129770380Y-74985714D01*
X128865619Y-75938095D02*
X128818000Y-75985714D01*
X128770380Y-76080952D01*
X128770380Y-76319047D01*
X128818000Y-76414285D01*
X128865619Y-76461904D01*
X128960857Y-76509523D01*
X129056095Y-76509523D01*
X129198952Y-76461904D01*
X129770380Y-75890476D01*
X129770380Y-76509523D01*
X128770380Y-77414285D02*
X128770380Y-76938095D01*
X129246571Y-76890476D01*
X129198952Y-76938095D01*
X129151333Y-77033333D01*
X129151333Y-77271428D01*
X129198952Y-77366666D01*
X129246571Y-77414285D01*
X129341809Y-77461904D01*
X129579904Y-77461904D01*
X129675142Y-77414285D01*
X129722761Y-77366666D01*
X129770380Y-77271428D01*
X129770380Y-77033333D01*
X129722761Y-76938095D01*
X129675142Y-76890476D01*
G04 #@! TO.C,D26*
X148820380Y-74985714D02*
X147820380Y-74985714D01*
X147820380Y-75223809D01*
X147868000Y-75366666D01*
X147963238Y-75461904D01*
X148058476Y-75509523D01*
X148248952Y-75557142D01*
X148391809Y-75557142D01*
X148582285Y-75509523D01*
X148677523Y-75461904D01*
X148772761Y-75366666D01*
X148820380Y-75223809D01*
X148820380Y-74985714D01*
X147915619Y-75938095D02*
X147868000Y-75985714D01*
X147820380Y-76080952D01*
X147820380Y-76319047D01*
X147868000Y-76414285D01*
X147915619Y-76461904D01*
X148010857Y-76509523D01*
X148106095Y-76509523D01*
X148248952Y-76461904D01*
X148820380Y-75890476D01*
X148820380Y-76509523D01*
X147820380Y-77366666D02*
X147820380Y-77176190D01*
X147868000Y-77080952D01*
X147915619Y-77033333D01*
X148058476Y-76938095D01*
X148248952Y-76890476D01*
X148629904Y-76890476D01*
X148725142Y-76938095D01*
X148772761Y-76985714D01*
X148820380Y-77080952D01*
X148820380Y-77271428D01*
X148772761Y-77366666D01*
X148725142Y-77414285D01*
X148629904Y-77461904D01*
X148391809Y-77461904D01*
X148296571Y-77414285D01*
X148248952Y-77366666D01*
X148201333Y-77271428D01*
X148201333Y-77080952D01*
X148248952Y-76985714D01*
X148296571Y-76938095D01*
X148391809Y-76890476D01*
G04 #@! TO.C,D27*
X167870380Y-74985714D02*
X166870380Y-74985714D01*
X166870380Y-75223809D01*
X166918000Y-75366666D01*
X167013238Y-75461904D01*
X167108476Y-75509523D01*
X167298952Y-75557142D01*
X167441809Y-75557142D01*
X167632285Y-75509523D01*
X167727523Y-75461904D01*
X167822761Y-75366666D01*
X167870380Y-75223809D01*
X167870380Y-74985714D01*
X166965619Y-75938095D02*
X166918000Y-75985714D01*
X166870380Y-76080952D01*
X166870380Y-76319047D01*
X166918000Y-76414285D01*
X166965619Y-76461904D01*
X167060857Y-76509523D01*
X167156095Y-76509523D01*
X167298952Y-76461904D01*
X167870380Y-75890476D01*
X167870380Y-76509523D01*
X166870380Y-76842857D02*
X166870380Y-77509523D01*
X167870380Y-77080952D01*
G04 #@! TO.C,D29*
X53569880Y-94035714D02*
X52569880Y-94035714D01*
X52569880Y-94273809D01*
X52617500Y-94416666D01*
X52712738Y-94511904D01*
X52807976Y-94559523D01*
X52998452Y-94607142D01*
X53141309Y-94607142D01*
X53331785Y-94559523D01*
X53427023Y-94511904D01*
X53522261Y-94416666D01*
X53569880Y-94273809D01*
X53569880Y-94035714D01*
X52665119Y-94988095D02*
X52617500Y-95035714D01*
X52569880Y-95130952D01*
X52569880Y-95369047D01*
X52617500Y-95464285D01*
X52665119Y-95511904D01*
X52760357Y-95559523D01*
X52855595Y-95559523D01*
X52998452Y-95511904D01*
X53569880Y-94940476D01*
X53569880Y-95559523D01*
X53569880Y-96035714D02*
X53569880Y-96226190D01*
X53522261Y-96321428D01*
X53474642Y-96369047D01*
X53331785Y-96464285D01*
X53141309Y-96511904D01*
X52760357Y-96511904D01*
X52665119Y-96464285D01*
X52617500Y-96416666D01*
X52569880Y-96321428D01*
X52569880Y-96130952D01*
X52617500Y-96035714D01*
X52665119Y-95988095D01*
X52760357Y-95940476D01*
X52998452Y-95940476D01*
X53093690Y-95988095D01*
X53141309Y-96035714D01*
X53188928Y-96130952D01*
X53188928Y-96321428D01*
X53141309Y-96416666D01*
X53093690Y-96464285D01*
X52998452Y-96511904D01*
G04 #@! TO.C,D30*
X77382380Y-94035714D02*
X76382380Y-94035714D01*
X76382380Y-94273809D01*
X76430000Y-94416666D01*
X76525238Y-94511904D01*
X76620476Y-94559523D01*
X76810952Y-94607142D01*
X76953809Y-94607142D01*
X77144285Y-94559523D01*
X77239523Y-94511904D01*
X77334761Y-94416666D01*
X77382380Y-94273809D01*
X77382380Y-94035714D01*
X76382380Y-94940476D02*
X76382380Y-95559523D01*
X76763333Y-95226190D01*
X76763333Y-95369047D01*
X76810952Y-95464285D01*
X76858571Y-95511904D01*
X76953809Y-95559523D01*
X77191904Y-95559523D01*
X77287142Y-95511904D01*
X77334761Y-95464285D01*
X77382380Y-95369047D01*
X77382380Y-95083333D01*
X77334761Y-94988095D01*
X77287142Y-94940476D01*
X76382380Y-96178571D02*
X76382380Y-96273809D01*
X76430000Y-96369047D01*
X76477619Y-96416666D01*
X76572857Y-96464285D01*
X76763333Y-96511904D01*
X77001428Y-96511904D01*
X77191904Y-96464285D01*
X77287142Y-96416666D01*
X77334761Y-96369047D01*
X77382380Y-96273809D01*
X77382380Y-96178571D01*
X77334761Y-96083333D01*
X77287142Y-96035714D01*
X77191904Y-95988095D01*
X77001428Y-95940476D01*
X76763333Y-95940476D01*
X76572857Y-95988095D01*
X76477619Y-96035714D01*
X76430000Y-96083333D01*
X76382380Y-96178571D01*
G04 #@! TO.C,D31*
X96432380Y-94035714D02*
X95432380Y-94035714D01*
X95432380Y-94273809D01*
X95480000Y-94416666D01*
X95575238Y-94511904D01*
X95670476Y-94559523D01*
X95860952Y-94607142D01*
X96003809Y-94607142D01*
X96194285Y-94559523D01*
X96289523Y-94511904D01*
X96384761Y-94416666D01*
X96432380Y-94273809D01*
X96432380Y-94035714D01*
X95432380Y-94940476D02*
X95432380Y-95559523D01*
X95813333Y-95226190D01*
X95813333Y-95369047D01*
X95860952Y-95464285D01*
X95908571Y-95511904D01*
X96003809Y-95559523D01*
X96241904Y-95559523D01*
X96337142Y-95511904D01*
X96384761Y-95464285D01*
X96432380Y-95369047D01*
X96432380Y-95083333D01*
X96384761Y-94988095D01*
X96337142Y-94940476D01*
X96432380Y-96511904D02*
X96432380Y-95940476D01*
X96432380Y-96226190D02*
X95432380Y-96226190D01*
X95575238Y-96130952D01*
X95670476Y-96035714D01*
X95718095Y-95940476D01*
G04 #@! TO.C,D32*
X115482380Y-94035714D02*
X114482380Y-94035714D01*
X114482380Y-94273809D01*
X114530000Y-94416666D01*
X114625238Y-94511904D01*
X114720476Y-94559523D01*
X114910952Y-94607142D01*
X115053809Y-94607142D01*
X115244285Y-94559523D01*
X115339523Y-94511904D01*
X115434761Y-94416666D01*
X115482380Y-94273809D01*
X115482380Y-94035714D01*
X114482380Y-94940476D02*
X114482380Y-95559523D01*
X114863333Y-95226190D01*
X114863333Y-95369047D01*
X114910952Y-95464285D01*
X114958571Y-95511904D01*
X115053809Y-95559523D01*
X115291904Y-95559523D01*
X115387142Y-95511904D01*
X115434761Y-95464285D01*
X115482380Y-95369047D01*
X115482380Y-95083333D01*
X115434761Y-94988095D01*
X115387142Y-94940476D01*
X114577619Y-95940476D02*
X114530000Y-95988095D01*
X114482380Y-96083333D01*
X114482380Y-96321428D01*
X114530000Y-96416666D01*
X114577619Y-96464285D01*
X114672857Y-96511904D01*
X114768095Y-96511904D01*
X114910952Y-96464285D01*
X115482380Y-95892857D01*
X115482380Y-96511904D01*
G04 #@! TO.C,D33*
X134532380Y-94035714D02*
X133532380Y-94035714D01*
X133532380Y-94273809D01*
X133580000Y-94416666D01*
X133675238Y-94511904D01*
X133770476Y-94559523D01*
X133960952Y-94607142D01*
X134103809Y-94607142D01*
X134294285Y-94559523D01*
X134389523Y-94511904D01*
X134484761Y-94416666D01*
X134532380Y-94273809D01*
X134532380Y-94035714D01*
X133532380Y-94940476D02*
X133532380Y-95559523D01*
X133913333Y-95226190D01*
X133913333Y-95369047D01*
X133960952Y-95464285D01*
X134008571Y-95511904D01*
X134103809Y-95559523D01*
X134341904Y-95559523D01*
X134437142Y-95511904D01*
X134484761Y-95464285D01*
X134532380Y-95369047D01*
X134532380Y-95083333D01*
X134484761Y-94988095D01*
X134437142Y-94940476D01*
X133532380Y-95892857D02*
X133532380Y-96511904D01*
X133913333Y-96178571D01*
X133913333Y-96321428D01*
X133960952Y-96416666D01*
X134008571Y-96464285D01*
X134103809Y-96511904D01*
X134341904Y-96511904D01*
X134437142Y-96464285D01*
X134484761Y-96416666D01*
X134532380Y-96321428D01*
X134532380Y-96035714D01*
X134484761Y-95940476D01*
X134437142Y-95892857D01*
G04 #@! TO.C,D34*
X153582380Y-94035714D02*
X152582380Y-94035714D01*
X152582380Y-94273809D01*
X152630000Y-94416666D01*
X152725238Y-94511904D01*
X152820476Y-94559523D01*
X153010952Y-94607142D01*
X153153809Y-94607142D01*
X153344285Y-94559523D01*
X153439523Y-94511904D01*
X153534761Y-94416666D01*
X153582380Y-94273809D01*
X153582380Y-94035714D01*
X152582380Y-94940476D02*
X152582380Y-95559523D01*
X152963333Y-95226190D01*
X152963333Y-95369047D01*
X153010952Y-95464285D01*
X153058571Y-95511904D01*
X153153809Y-95559523D01*
X153391904Y-95559523D01*
X153487142Y-95511904D01*
X153534761Y-95464285D01*
X153582380Y-95369047D01*
X153582380Y-95083333D01*
X153534761Y-94988095D01*
X153487142Y-94940476D01*
X152915714Y-96416666D02*
X153582380Y-96416666D01*
X152534761Y-96178571D02*
X153249047Y-95940476D01*
X153249047Y-96559523D01*
G04 #@! TO.C,J1*
X33353333Y-62742380D02*
X33353333Y-63456666D01*
X33400952Y-63599523D01*
X33496190Y-63694761D01*
X33639047Y-63742380D01*
X33734285Y-63742380D01*
X32353333Y-63742380D02*
X32924761Y-63742380D01*
X32639047Y-63742380D02*
X32639047Y-62742380D01*
X32734285Y-62885238D01*
X32829523Y-62980476D01*
X32924761Y-63028095D01*
G04 #@! TO.C,J4*
X95329333Y-5540380D02*
X95329333Y-6254666D01*
X95376952Y-6397523D01*
X95472190Y-6492761D01*
X95615047Y-6540380D01*
X95710285Y-6540380D01*
X94424571Y-5873714D02*
X94424571Y-6540380D01*
X94662666Y-5492761D02*
X94900761Y-6207047D01*
X94281714Y-6207047D01*
X86876000Y888904D02*
X86828380Y984142D01*
X86828380Y1127000D01*
X86876000Y1269857D01*
X86971238Y1365095D01*
X87066476Y1412714D01*
X87256952Y1460333D01*
X87399809Y1460333D01*
X87590285Y1412714D01*
X87685523Y1365095D01*
X87780761Y1269857D01*
X87828380Y1127000D01*
X87828380Y1031761D01*
X87780761Y888904D01*
X87733142Y841285D01*
X87399809Y841285D01*
X87399809Y1031761D01*
X87828380Y412714D02*
X86828380Y412714D01*
X87828380Y-158714D01*
X86828380Y-158714D01*
X87828380Y-634904D02*
X86828380Y-634904D01*
X86828380Y-873000D01*
X86876000Y-1015857D01*
X86971238Y-1111095D01*
X87066476Y-1158714D01*
X87256952Y-1206333D01*
X87399809Y-1206333D01*
X87590285Y-1158714D01*
X87685523Y-1111095D01*
X87780761Y-1015857D01*
X87828380Y-873000D01*
X87828380Y-634904D01*
X90273142Y793666D02*
X90320761Y841285D01*
X90368380Y984142D01*
X90368380Y1079380D01*
X90320761Y1222238D01*
X90225523Y1317476D01*
X90130285Y1365095D01*
X89939809Y1412714D01*
X89796952Y1412714D01*
X89606476Y1365095D01*
X89511238Y1317476D01*
X89416000Y1222238D01*
X89368380Y1079380D01*
X89368380Y984142D01*
X89416000Y841285D01*
X89463619Y793666D01*
X90273142Y-206333D02*
X90320761Y-158714D01*
X90368380Y-15857D01*
X90368380Y79380D01*
X90320761Y222238D01*
X90225523Y317476D01*
X90130285Y365095D01*
X89939809Y412714D01*
X89796952Y412714D01*
X89606476Y365095D01*
X89511238Y317476D01*
X89416000Y222238D01*
X89368380Y79380D01*
X89368380Y-15857D01*
X89416000Y-158714D01*
X89463619Y-206333D01*
X89463619Y-587285D02*
X89416000Y-634904D01*
X89368380Y-730142D01*
X89368380Y-968238D01*
X89416000Y-1063476D01*
X89463619Y-1111095D01*
X89558857Y-1158714D01*
X89654095Y-1158714D01*
X89796952Y-1111095D01*
X90368380Y-539666D01*
X90368380Y-1158714D01*
X92813142Y793666D02*
X92860761Y841285D01*
X92908380Y984142D01*
X92908380Y1079380D01*
X92860761Y1222238D01*
X92765523Y1317476D01*
X92670285Y1365095D01*
X92479809Y1412714D01*
X92336952Y1412714D01*
X92146476Y1365095D01*
X92051238Y1317476D01*
X91956000Y1222238D01*
X91908380Y1079380D01*
X91908380Y984142D01*
X91956000Y841285D01*
X92003619Y793666D01*
X92813142Y-206333D02*
X92860761Y-158714D01*
X92908380Y-15857D01*
X92908380Y79380D01*
X92860761Y222238D01*
X92765523Y317476D01*
X92670285Y365095D01*
X92479809Y412714D01*
X92336952Y412714D01*
X92146476Y365095D01*
X92051238Y317476D01*
X91956000Y222238D01*
X91908380Y79380D01*
X91908380Y-15857D01*
X91956000Y-158714D01*
X92003619Y-206333D01*
X92908380Y-1158714D02*
X92908380Y-587285D01*
X92908380Y-873000D02*
X91908380Y-873000D01*
X92051238Y-777761D01*
X92146476Y-682523D01*
X92194095Y-587285D01*
X94496000Y888904D02*
X94448380Y984142D01*
X94448380Y1127000D01*
X94496000Y1269857D01*
X94591238Y1365095D01*
X94686476Y1412714D01*
X94876952Y1460333D01*
X95019809Y1460333D01*
X95210285Y1412714D01*
X95305523Y1365095D01*
X95400761Y1269857D01*
X95448380Y1127000D01*
X95448380Y1031761D01*
X95400761Y888904D01*
X95353142Y841285D01*
X95019809Y841285D01*
X95019809Y1031761D01*
X95448380Y412714D02*
X94448380Y412714D01*
X95448380Y-158714D01*
X94448380Y-158714D01*
X95448380Y-634904D02*
X94448380Y-634904D01*
X94448380Y-873000D01*
X94496000Y-1015857D01*
X94591238Y-1111095D01*
X94686476Y-1158714D01*
X94876952Y-1206333D01*
X95019809Y-1206333D01*
X95210285Y-1158714D01*
X95305523Y-1111095D01*
X95400761Y-1015857D01*
X95448380Y-873000D01*
X95448380Y-634904D01*
X97988380Y1007952D02*
X96988380Y1007952D01*
X96988380Y769857D01*
X97036000Y627000D01*
X97131238Y531761D01*
X97226476Y484142D01*
X97416952Y436523D01*
X97559809Y436523D01*
X97750285Y484142D01*
X97845523Y531761D01*
X97940761Y627000D01*
X97988380Y769857D01*
X97988380Y1007952D01*
X97607428Y7952D02*
X97607428Y-753952D01*
X97988380Y-373000D02*
X97226476Y-373000D01*
X100528380Y1007952D02*
X99528380Y1007952D01*
X99528380Y769857D01*
X99576000Y627000D01*
X99671238Y531761D01*
X99766476Y484142D01*
X99956952Y436523D01*
X100099809Y436523D01*
X100290285Y484142D01*
X100385523Y531761D01*
X100480761Y627000D01*
X100528380Y769857D01*
X100528380Y1007952D01*
X100147428Y7952D02*
X100147428Y-753952D01*
X102068380Y1960333D02*
X103068380Y1627000D01*
X102068380Y1293666D01*
X102544571Y627000D02*
X102592190Y484142D01*
X102639809Y436523D01*
X102735047Y388904D01*
X102877904Y388904D01*
X102973142Y436523D01*
X103020761Y484142D01*
X103068380Y579380D01*
X103068380Y960333D01*
X102068380Y960333D01*
X102068380Y627000D01*
X102116000Y531761D01*
X102163619Y484142D01*
X102258857Y436523D01*
X102354095Y436523D01*
X102449333Y484142D01*
X102496952Y531761D01*
X102544571Y627000D01*
X102544571Y960333D01*
X102068380Y-39666D02*
X102877904Y-39666D01*
X102973142Y-87285D01*
X103020761Y-134904D01*
X103068380Y-230142D01*
X103068380Y-420619D01*
X103020761Y-515857D01*
X102973142Y-563476D01*
X102877904Y-611095D01*
X102068380Y-611095D01*
X103020761Y-1039666D02*
X103068380Y-1182523D01*
X103068380Y-1420619D01*
X103020761Y-1515857D01*
X102973142Y-1563476D01*
X102877904Y-1611095D01*
X102782666Y-1611095D01*
X102687428Y-1563476D01*
X102639809Y-1515857D01*
X102592190Y-1420619D01*
X102544571Y-1230142D01*
X102496952Y-1134904D01*
X102449333Y-1087285D01*
X102354095Y-1039666D01*
X102258857Y-1039666D01*
X102163619Y-1087285D01*
X102116000Y-1134904D01*
X102068380Y-1230142D01*
X102068380Y-1468238D01*
X102116000Y-1611095D01*
G04 #@! TO.C,U1*
X75308333Y4147619D02*
X74975000Y3147619D01*
X74641666Y4147619D01*
X73975000Y3671428D02*
X73832142Y3623809D01*
X73784523Y3576190D01*
X73736904Y3480952D01*
X73736904Y3338095D01*
X73784523Y3242857D01*
X73832142Y3195238D01*
X73927380Y3147619D01*
X74308333Y3147619D01*
X74308333Y4147619D01*
X73975000Y4147619D01*
X73879761Y4100000D01*
X73832142Y4052380D01*
X73784523Y3957142D01*
X73784523Y3861904D01*
X73832142Y3766666D01*
X73879761Y3719047D01*
X73975000Y3671428D01*
X74308333Y3671428D01*
X73308333Y4147619D02*
X73308333Y3338095D01*
X73260714Y3242857D01*
X73213095Y3195238D01*
X73117857Y3147619D01*
X72927380Y3147619D01*
X72832142Y3195238D01*
X72784523Y3242857D01*
X72736904Y3338095D01*
X72736904Y4147619D01*
X72308333Y3195238D02*
X72165476Y3147619D01*
X71927380Y3147619D01*
X71832142Y3195238D01*
X71784523Y3242857D01*
X71736904Y3338095D01*
X71736904Y3433333D01*
X71784523Y3528571D01*
X71832142Y3576190D01*
X71927380Y3623809D01*
X72117857Y3671428D01*
X72213095Y3719047D01*
X72260714Y3766666D01*
X72308333Y3861904D01*
X72308333Y3957142D01*
X72260714Y4052380D01*
X72213095Y4100000D01*
X72117857Y4147619D01*
X71879761Y4147619D01*
X71736904Y4100000D01*
X74355952Y747619D02*
X74355952Y1747619D01*
X74117857Y1747619D01*
X73975000Y1700000D01*
X73879761Y1604761D01*
X73832142Y1509523D01*
X73784523Y1319047D01*
X73784523Y1176190D01*
X73832142Y985714D01*
X73879761Y890476D01*
X73975000Y795238D01*
X74117857Y747619D01*
X74355952Y747619D01*
X73355952Y1128571D02*
X72594047Y1128571D01*
X74355952Y-1652380D02*
X74355952Y-652380D01*
X74117857Y-652380D01*
X73975000Y-700000D01*
X73879761Y-795238D01*
X73832142Y-890476D01*
X73784523Y-1080952D01*
X73784523Y-1223809D01*
X73832142Y-1414285D01*
X73879761Y-1509523D01*
X73975000Y-1604761D01*
X74117857Y-1652380D01*
X74355952Y-1652380D01*
X73355952Y-1271428D02*
X72594047Y-1271428D01*
X72975000Y-1652380D02*
X72975000Y-890476D01*
X74236904Y-3100000D02*
X74332142Y-3052380D01*
X74475000Y-3052380D01*
X74617857Y-3100000D01*
X74713095Y-3195238D01*
X74760714Y-3290476D01*
X74808333Y-3480952D01*
X74808333Y-3623809D01*
X74760714Y-3814285D01*
X74713095Y-3909523D01*
X74617857Y-4004761D01*
X74475000Y-4052380D01*
X74379761Y-4052380D01*
X74236904Y-4004761D01*
X74189285Y-3957142D01*
X74189285Y-3623809D01*
X74379761Y-3623809D01*
X73760714Y-4052380D02*
X73760714Y-3052380D01*
X73189285Y-4052380D01*
X73189285Y-3052380D01*
X72713095Y-4052380D02*
X72713095Y-3052380D01*
X72475000Y-3052380D01*
X72332142Y-3100000D01*
X72236904Y-3195238D01*
X72189285Y-3290476D01*
X72141666Y-3480952D01*
X72141666Y-3623809D01*
X72189285Y-3814285D01*
X72236904Y-3909523D01*
X72332142Y-4004761D01*
X72475000Y-4052380D01*
X72713095Y-4052380D01*
X55440714Y-452380D02*
X55440714Y547619D01*
X55059761Y547619D01*
X54964523Y500000D01*
X54916904Y452380D01*
X54869285Y357142D01*
X54869285Y214285D01*
X54916904Y119047D01*
X54964523Y71428D01*
X55059761Y23809D01*
X55440714Y23809D01*
X54440714Y-452380D02*
X54440714Y214285D01*
X54440714Y23809D02*
X54393095Y119047D01*
X54345476Y166666D01*
X54250238Y214285D01*
X54155000Y214285D01*
X53678809Y-452380D02*
X53774047Y-404761D01*
X53821666Y-357142D01*
X53869285Y-261904D01*
X53869285Y23809D01*
X53821666Y119047D01*
X53774047Y166666D01*
X53678809Y214285D01*
X53535952Y214285D01*
X53440714Y166666D01*
X53393095Y119047D01*
X53345476Y23809D01*
X53345476Y-261904D01*
X53393095Y-357142D01*
X53440714Y-404761D01*
X53535952Y-452380D01*
X53678809Y-452380D01*
X52916904Y-452380D02*
X52916904Y547619D01*
X52583571Y-166666D01*
X52250238Y547619D01*
X52250238Y-452380D01*
X51774047Y-452380D02*
X51774047Y214285D01*
X51774047Y547619D02*
X51821666Y500000D01*
X51774047Y452380D01*
X51726428Y500000D01*
X51774047Y547619D01*
X51774047Y452380D01*
X50869285Y-404761D02*
X50964523Y-452380D01*
X51155000Y-452380D01*
X51250238Y-404761D01*
X51297857Y-357142D01*
X51345476Y-261904D01*
X51345476Y23809D01*
X51297857Y119047D01*
X51250238Y166666D01*
X51155000Y214285D01*
X50964523Y214285D01*
X50869285Y166666D01*
X50440714Y-452380D02*
X50440714Y214285D01*
X50440714Y23809D02*
X50393095Y119047D01*
X50345476Y166666D01*
X50250238Y214285D01*
X50155000Y214285D01*
X49678809Y-452380D02*
X49774047Y-404761D01*
X49821666Y-357142D01*
X49869285Y-261904D01*
X49869285Y23809D01*
X49821666Y119047D01*
X49774047Y166666D01*
X49678809Y214285D01*
X49535952Y214285D01*
X49440714Y166666D01*
X49393095Y119047D01*
X49345476Y23809D01*
X49345476Y-261904D01*
X49393095Y-357142D01*
X49440714Y-404761D01*
X49535952Y-452380D01*
X49678809Y-452380D01*
X47821666Y71428D02*
X47678809Y23809D01*
X47631190Y-23809D01*
X47583571Y-119047D01*
X47583571Y-261904D01*
X47631190Y-357142D01*
X47678809Y-404761D01*
X47774047Y-452380D01*
X48155000Y-452380D01*
X48155000Y547619D01*
X47821666Y547619D01*
X47726428Y500000D01*
X47678809Y452380D01*
X47631190Y357142D01*
X47631190Y261904D01*
X47678809Y166666D01*
X47726428Y119047D01*
X47821666Y71428D01*
X48155000Y71428D01*
X46726428Y-452380D02*
X46726428Y71428D01*
X46774047Y166666D01*
X46869285Y214285D01*
X47059761Y214285D01*
X47155000Y166666D01*
X46726428Y-404761D02*
X46821666Y-452380D01*
X47059761Y-452380D01*
X47155000Y-404761D01*
X47202619Y-309523D01*
X47202619Y-214285D01*
X47155000Y-119047D01*
X47059761Y-71428D01*
X46821666Y-71428D01*
X46726428Y-23809D01*
X45821666Y-404761D02*
X45916904Y-452380D01*
X46107380Y-452380D01*
X46202619Y-404761D01*
X46250238Y-357142D01*
X46297857Y-261904D01*
X46297857Y23809D01*
X46250238Y119047D01*
X46202619Y166666D01*
X46107380Y214285D01*
X45916904Y214285D01*
X45821666Y166666D01*
X45393095Y-452380D02*
X45393095Y547619D01*
X45297857Y-71428D02*
X45012142Y-452380D01*
X45012142Y214285D02*
X45393095Y-166666D01*
X44631190Y-404761D02*
X44488333Y-452380D01*
X44250238Y-452380D01*
X44155000Y-404761D01*
X44107380Y-357142D01*
X44059761Y-261904D01*
X44059761Y-166666D01*
X44107380Y-71428D01*
X44155000Y-23809D01*
X44250238Y23809D01*
X44440714Y71428D01*
X44535952Y119047D01*
X44583571Y166666D01*
X44631190Y261904D01*
X44631190Y357142D01*
X44583571Y452380D01*
X44535952Y500000D01*
X44440714Y547619D01*
X44202619Y547619D01*
X44059761Y500000D01*
X43631190Y-452380D02*
X43631190Y214285D01*
X43631190Y547619D02*
X43678809Y500000D01*
X43631190Y452380D01*
X43583571Y500000D01*
X43631190Y547619D01*
X43631190Y452380D01*
X42726428Y-452380D02*
X42726428Y547619D01*
X42726428Y-404761D02*
X42821666Y-452380D01*
X43012142Y-452380D01*
X43107380Y-404761D01*
X43155000Y-357142D01*
X43202619Y-261904D01*
X43202619Y23809D01*
X43155000Y119047D01*
X43107380Y166666D01*
X43012142Y214285D01*
X42821666Y214285D01*
X42726428Y166666D01*
X41869285Y-404761D02*
X41964523Y-452380D01*
X42155000Y-452380D01*
X42250238Y-404761D01*
X42297857Y-309523D01*
X42297857Y71428D01*
X42250238Y166666D01*
X42155000Y214285D01*
X41964523Y214285D01*
X41869285Y166666D01*
X41821666Y71428D01*
X41821666Y-23809D01*
X42297857Y-119047D01*
G04 #@! TD*
M02*
