G04 #@! TF.GenerationSoftware,KiCad,Pcbnew,(5.0.0)*
G04 #@! TF.CreationDate,2018-12-18T10:24:29+09:00*
G04 #@! TF.ProjectId,hecomi,6865636F6D692E6B696361645F706362,rev?*
G04 #@! TF.SameCoordinates,Original*
G04 #@! TF.FileFunction,Paste,Bot*
G04 #@! TF.FilePolarity,Positive*
%FSLAX46Y46*%
G04 Gerber Fmt 4.6, Leading zero omitted, Abs format (unit mm)*
G04 Created by KiCad (PCBNEW (5.0.0)) date 12/18/18 10:24:29*
%MOMM*%
%LPD*%
G01*
G04 APERTURE LIST*
%ADD10R,2.550000X2.500000*%
%ADD11R,1.200000X0.900000*%
%ADD12R,0.800000X1.450000*%
%ADD13R,1.470000X0.900000*%
G04 APERTURE END LIST*
D10*
G04 #@! TO.C,SW22*
X42921200Y-73660000D03*
X55821200Y-71120000D03*
G04 #@! TD*
G04 #@! TO.C,SW23*
X73877500Y-73660000D03*
X86777500Y-71120000D03*
G04 #@! TD*
G04 #@! TO.C,SW25*
X111977000Y-73660000D03*
X124877000Y-71120000D03*
G04 #@! TD*
G04 #@! TO.C,SW26*
X131027000Y-73660000D03*
X143927000Y-71120000D03*
G04 #@! TD*
G04 #@! TO.C,SW27*
X150077000Y-73660000D03*
X162977000Y-71120000D03*
G04 #@! TD*
G04 #@! TO.C,SW29*
X35777500Y-92710000D03*
X48677500Y-90170000D03*
G04 #@! TD*
G04 #@! TO.C,SW30*
X59590000Y-92710000D03*
X72490000Y-90170000D03*
G04 #@! TD*
G04 #@! TO.C,SW32*
X97690000Y-92710000D03*
X110590000Y-90170000D03*
G04 #@! TD*
G04 #@! TO.C,SW33*
X116740000Y-92710000D03*
X129640000Y-90170000D03*
G04 #@! TD*
G04 #@! TO.C,SW34*
X135790000Y-92710000D03*
X148690000Y-90170000D03*
G04 #@! TD*
G04 #@! TO.C,SW20*
X140553000Y-54610000D03*
X153453000Y-52070000D03*
G04 #@! TD*
G04 #@! TO.C,SW24*
X92927000Y-73660000D03*
X105827000Y-71120000D03*
G04 #@! TD*
G04 #@! TO.C,SW2*
X50065000Y-16510000D03*
X62965000Y-13970000D03*
G04 #@! TD*
G04 #@! TO.C,SW12*
X116740000Y-35560000D03*
X129640000Y-33020000D03*
G04 #@! TD*
G04 #@! TO.C,SW31*
X78640000Y-92710000D03*
X91540000Y-90170000D03*
G04 #@! TD*
G04 #@! TO.C,SW3*
X69115000Y-16510000D03*
X82015000Y-13970000D03*
G04 #@! TD*
G04 #@! TO.C,SW4*
X88165000Y-16510000D03*
X101065000Y-13970000D03*
G04 #@! TD*
G04 #@! TO.C,SW5*
X107215000Y-16510000D03*
X120115000Y-13970000D03*
G04 #@! TD*
G04 #@! TO.C,SW7*
X145315000Y-16510000D03*
X158215000Y-13970000D03*
G04 #@! TD*
G04 #@! TO.C,SW8*
X35777500Y-35560000D03*
X48677500Y-33020000D03*
G04 #@! TD*
G04 #@! TO.C,SW18*
X102453000Y-54610000D03*
X115353000Y-52070000D03*
G04 #@! TD*
G04 #@! TO.C,SW10*
X78640000Y-35560000D03*
X91540000Y-33020000D03*
G04 #@! TD*
G04 #@! TO.C,SW11*
X97690000Y-35560000D03*
X110590000Y-33020000D03*
G04 #@! TD*
G04 #@! TO.C,SW13*
X135790000Y-35560000D03*
X148690000Y-33020000D03*
G04 #@! TD*
G04 #@! TO.C,SW14*
X154840000Y-35560000D03*
X167740000Y-33020000D03*
G04 #@! TD*
G04 #@! TO.C,SW15*
X38158800Y-54610000D03*
X51058800Y-52070000D03*
G04 #@! TD*
G04 #@! TO.C,SW16*
X64352500Y-54610000D03*
X77252500Y-52070000D03*
G04 #@! TD*
G04 #@! TO.C,SW17*
X83402500Y-54610000D03*
X96302500Y-52070000D03*
G04 #@! TD*
G04 #@! TO.C,SW19*
X121503000Y-54610000D03*
X134403000Y-52070000D03*
G04 #@! TD*
G04 #@! TO.C,SW9*
X59590000Y-35560000D03*
X72490000Y-33020000D03*
G04 #@! TD*
G04 #@! TO.C,SW6*
X126265000Y-16510000D03*
X139165000Y-13970000D03*
G04 #@! TD*
G04 #@! TO.C,SW1*
X31015000Y-16510000D03*
X43915000Y-13970000D03*
G04 #@! TD*
D11*
G04 #@! TO.C,D1*
X46355000Y-17400000D03*
X46355000Y-20700000D03*
G04 #@! TD*
G04 #@! TO.C,D2*
X65405000Y-17400000D03*
X65405000Y-20700000D03*
G04 #@! TD*
G04 #@! TO.C,D3*
X84455000Y-17400000D03*
X84455000Y-20700000D03*
G04 #@! TD*
G04 #@! TO.C,D4*
X103505000Y-17400000D03*
X103505000Y-20700000D03*
G04 #@! TD*
G04 #@! TO.C,D5*
X122555000Y-17400000D03*
X122555000Y-20700000D03*
G04 #@! TD*
G04 #@! TO.C,D6*
X141605000Y-17400000D03*
X141605000Y-20700000D03*
G04 #@! TD*
G04 #@! TO.C,D7*
X160655000Y-17400000D03*
X160655000Y-20700000D03*
G04 #@! TD*
G04 #@! TO.C,D8*
X51117500Y-36450000D03*
X51117500Y-39750000D03*
G04 #@! TD*
G04 #@! TO.C,D9*
X74930000Y-36450000D03*
X74930000Y-39750000D03*
G04 #@! TD*
G04 #@! TO.C,D10*
X93980000Y-36450000D03*
X93980000Y-39750000D03*
G04 #@! TD*
G04 #@! TO.C,D11*
X113030000Y-36450000D03*
X113030000Y-39750000D03*
G04 #@! TD*
G04 #@! TO.C,D12*
X132080000Y-36450000D03*
X132080000Y-39750000D03*
G04 #@! TD*
G04 #@! TO.C,D13*
X151130000Y-36450000D03*
X151130000Y-39750000D03*
G04 #@! TD*
G04 #@! TO.C,D14*
X170180000Y-36450000D03*
X170180000Y-39750000D03*
G04 #@! TD*
G04 #@! TO.C,D15*
X53498800Y-55500000D03*
X53498800Y-58800000D03*
G04 #@! TD*
G04 #@! TO.C,D16*
X79692500Y-55500000D03*
X79692500Y-58800000D03*
G04 #@! TD*
G04 #@! TO.C,D17*
X98742500Y-55500000D03*
X98742500Y-58800000D03*
G04 #@! TD*
G04 #@! TO.C,D18*
X117792000Y-55500000D03*
X117792000Y-58800000D03*
G04 #@! TD*
G04 #@! TO.C,D19*
X136842000Y-55500000D03*
X136842000Y-58800000D03*
G04 #@! TD*
G04 #@! TO.C,D20*
X155892000Y-55500000D03*
X155892000Y-58800000D03*
G04 #@! TD*
G04 #@! TO.C,D22*
X58261200Y-74550000D03*
X58261200Y-77850000D03*
G04 #@! TD*
G04 #@! TO.C,D23*
X89217500Y-74550000D03*
X89217500Y-77850000D03*
G04 #@! TD*
G04 #@! TO.C,D24*
X108268000Y-74550000D03*
X108268000Y-77850000D03*
G04 #@! TD*
G04 #@! TO.C,D25*
X127318000Y-74550000D03*
X127318000Y-77850000D03*
G04 #@! TD*
G04 #@! TO.C,D26*
X146368000Y-74550000D03*
X146368000Y-77850000D03*
G04 #@! TD*
G04 #@! TO.C,D27*
X165418000Y-74550000D03*
X165418000Y-77850000D03*
G04 #@! TD*
G04 #@! TO.C,D29*
X51117500Y-93600000D03*
X51117500Y-96900000D03*
G04 #@! TD*
G04 #@! TO.C,D30*
X74930000Y-93600000D03*
X74930000Y-96900000D03*
G04 #@! TD*
G04 #@! TO.C,D31*
X93980000Y-93600000D03*
X93980000Y-96900000D03*
G04 #@! TD*
G04 #@! TO.C,D32*
X113030000Y-93600000D03*
X113030000Y-96900000D03*
G04 #@! TD*
G04 #@! TO.C,D33*
X132080000Y-93600000D03*
X132080000Y-96900000D03*
G04 #@! TD*
G04 #@! TO.C,D34*
X151130000Y-93600000D03*
X151130000Y-96900000D03*
G04 #@! TD*
D12*
G04 #@! TO.C,SW36*
X29226000Y2867000D03*
X29226000Y-3883000D03*
D13*
X31211000Y1592000D03*
X31211000Y-2608000D03*
G04 #@! TD*
M02*
