G04 #@! TF.GenerationSoftware,KiCad,Pcbnew,(5.0.0)*
G04 #@! TF.CreationDate,2018-12-18T10:24:29+09:00*
G04 #@! TF.ProjectId,hecomi,6865636F6D692E6B696361645F706362,rev?*
G04 #@! TF.SameCoordinates,Original*
G04 #@! TF.FileFunction,Profile,NP*
%FSLAX46Y46*%
G04 Gerber Fmt 4.6, Leading zero omitted, Abs format (unit mm)*
G04 Created by KiCad (PCBNEW (5.0.0)) date 12/18/18 10:24:29*
%MOMM*%
%LPD*%
G01*
G04 APERTURE LIST*
%ADD10C,0.150000*%
%ADD11C,0.200000*%
G04 APERTURE END LIST*
D10*
X159385000Y9525000D02*
G75*
G02X161925000Y6985000I0J-2540000D01*
G01*
X164465000Y-28575000D02*
G75*
G02X161925000Y-26035000I0J2540000D01*
G01*
X168910000Y-28575000D02*
G75*
G02X171450000Y-31115000I0J-2540000D01*
G01*
X171450000Y-45085000D02*
G75*
G02X168910000Y-47625000I-2540000J0D01*
G01*
X161925000Y-50165000D02*
G75*
G02X164465000Y-47625000I2540000J0D01*
G01*
X164465000Y-66675000D02*
G75*
G02X161925000Y-64135000I0J2540000D01*
G01*
X168910000Y-66675000D02*
G75*
G02X171450000Y-69215000I0J-2540000D01*
G01*
X171450000Y-83185000D02*
G75*
G02X168910000Y-85725000I-2540000J0D01*
G01*
X161925000Y-88265000D02*
G75*
G02X164465000Y-85725000I2540000J0D01*
G01*
X161925000Y-102235000D02*
G75*
G02X159385000Y-104775000I-2540000J0D01*
G01*
D11*
X31115000Y-104775000D02*
G75*
G02X28575000Y-102235000I0J2540000D01*
G01*
X28575000Y6985000D02*
G75*
G02X31115000Y9525000I2540000J0D01*
G01*
D10*
X28575000Y-102235000D02*
X28575000Y-57150000D01*
X159385000Y-104775000D02*
X31115000Y-104775000D01*
X161925000Y-88265000D02*
X161925000Y-102235000D01*
X168910000Y-85725000D02*
X164465000Y-85725000D01*
X171450000Y-69215000D02*
X171450000Y-83185000D01*
X164465000Y-66675000D02*
X168910000Y-66675000D01*
X161925000Y-50165000D02*
X161925000Y-64135000D01*
X168910000Y-47625000D02*
X164465000Y-47625000D01*
X171450000Y-31115000D02*
X171450000Y-45085000D01*
X164465000Y-28575000D02*
X168910000Y-28575000D01*
X161925000Y6985000D02*
X161925000Y-26035000D01*
X31115000Y9525000D02*
X159385000Y9525000D01*
X28575000Y-57150000D02*
X28575000Y6985000D01*
M02*
