<?xml version="1.0" standalone="no"?>
 <!DOCTYPE svg PUBLIC "-//W3C//DTD SVG 1.1//EN" 
 "http://www.w3.org/Graphics/SVG/1.1/DTD/svg11.dtd"> 
<svg xmlns="http://www.w3.org/2000/svg" version="1.1" 
    width="17.145cm" height="12.7178cm" viewBox="0 0 67500 50070 ">
<title>SVG Picture created as hecomi-brd.svg date 2019/01/10 16:16:48 </title>
  <desc>Picture generated by PCBNEW </desc>
<g style="fill:#000000; fill-opacity:1;stroke:#000000; stroke-opacity:1;
stroke-linecap:round; stroke-linejoin:round; "
 transform="translate(0 0) scale(1 1)">
</g>
<g style="fill:#000000; fill-opacity:0.0; 
stroke:#000000; stroke-width:-0.000393701; stroke-opacity:1; 
stroke-linecap:round; stroke-linejoin:round;">
</g>
<g style="fill:#008400; fill-opacity:0.0; 
stroke:#008400; stroke-width:-0.000393701; stroke-opacity:1; 
stroke-linecap:round; stroke-linejoin:round;">
</g>
<g style="fill:#008400; fill-opacity:0.0; 
stroke:#008400; stroke-width:59.0551; stroke-opacity:1; 
stroke-linecap:round; stroke-linejoin:round;">
<path d="M16907 38781
L16907 36025
" />
<path d="M16907 36025
L22419 36025
" />
<path d="M22419 36025
L22419 41537
" />
<path d="M22419 41537
L16907 41537
" />
<path d="M16907 41537
L16907 38781
" />
<path d="M29094 38781
L29094 36025
" />
<path d="M29094 36025
L34606 36025
" />
<path d="M34606 36025
L34606 41537
" />
<path d="M34606 41537
L29094 41537
" />
<path d="M29094 41537
L29094 38781
" />
<path d="M44094 38781
L44094 36025
" />
<path d="M44094 36025
L49606 36025
" />
<path d="M49606 36025
L49606 41537
" />
<path d="M49606 41537
L44094 41537
" />
<path d="M44094 41537
L44094 38781
" />
<path d="M51594 38781
L51594 36025
" />
<path d="M51594 36025
L57106 36025
" />
<path d="M57106 36025
L57106 41537
" />
<path d="M57106 41537
L51594 41537
" />
<path d="M51594 41537
L51594 38781
" />
<path d="M59094 38781
L59094 36025
" />
<path d="M59094 36025
L64606 36025
" />
<path d="M64606 36025
L64606 41537
" />
<path d="M64606 41537
L59094 41537
" />
<path d="M59094 41537
L59094 38781
" />
<path d="M14094 46281
L14094 43525
" />
<path d="M14094 43525
L19606 43525
" />
<path d="M19606 43525
L19606 49037
" />
<path d="M19606 49037
L14094 49037
" />
<path d="M14094 49037
L14094 46281
" />
<path d="M23469 46281
L23469 43525
" />
<path d="M23469 43525
L28981 43525
" />
<path d="M28981 43525
L28981 49037
" />
<path d="M28981 49037
L23469 49037
" />
<path d="M23469 49037
L23469 46281
" />
<path d="M38469 46281
L38469 43525
" />
<path d="M38469 43525
L43981 43525
" />
<path d="M43981 43525
L43981 49037
" />
<path d="M43981 49037
L38469 49037
" />
<path d="M38469 49037
L38469 46281
" />
<path d="M45969 46281
L45969 43525
" />
<path d="M45969 43525
L51481 43525
" />
<path d="M51481 43525
L51481 49037
" />
<path d="M51481 49037
L45969 49037
" />
<path d="M45969 49037
L45969 46281
" />
<path d="M53469 46281
L53469 43525
" />
<path d="M53469 43525
L58981 43525
" />
<path d="M58981 43525
L58981 49037
" />
<path d="M58981 49037
L53469 49037
" />
<path d="M53469 49037
L53469 46281
" />
<path d="M55345 31281
L55345 28525
" />
<path d="M55345 28525
L60857 28525
" />
<path d="M60857 28525
L60857 34037
" />
<path d="M60857 34037
L55345 34037
" />
<path d="M55345 34037
L55345 31281
" />
<path d="M36594 38781
L36594 36025
" />
<path d="M36594 36025
L42106 36025
" />
<path d="M42106 36025
L42106 41537
" />
<path d="M42106 41537
L36594 41537
" />
<path d="M36594 41537
L36594 38781
" />
<path d="M19719 16281
L19719 13525
" />
<path d="M19719 13525
L25231 13525
" />
<path d="M25231 13525
L25231 19037
" />
<path d="M25231 19037
L19719 19037
" />
<path d="M19719 19037
L19719 16281
" />
<path d="M45969 23781
L45969 21025
" />
<path d="M45969 21025
L51481 21025
" />
<path d="M51481 21025
L51481 26537
" />
<path d="M51481 26537
L45969 26537
" />
<path d="M45969 26537
L45969 23781
" />
<path d="M30969 46281
L30969 43525
" />
<path d="M30969 43525
L36481 43525
" />
<path d="M36481 43525
L36481 49037
" />
<path d="M36481 49037
L30969 49037
" />
<path d="M30969 49037
L30969 46281
" />
<path d="M27219 16281
L27219 13525
" />
<path d="M27219 13525
L32731 13525
" />
<path d="M32731 13525
L32731 19037
" />
<path d="M32731 19037
L27219 19037
" />
<path d="M27219 19037
L27219 16281
" />
<path d="M34719 16281
L34719 13525
" />
<path d="M34719 13525
L40231 13525
" />
<path d="M40231 13525
L40231 19037
" />
<path d="M40231 19037
L34719 19037
" />
<path d="M34719 19037
L34719 16281
" />
<path d="M42219 16281
L42219 13525
" />
<path d="M42219 13525
L47731 13525
" />
<path d="M47731 13525
L47731 19037
" />
<path d="M47731 19037
L42219 19037
" />
<path d="M42219 19037
L42219 16281
" />
<path d="M57219 16281
L57219 13525
" />
<path d="M57219 13525
L62731 13525
" />
<path d="M62731 13525
L62731 19037
" />
<path d="M62731 19037
L57219 19037
" />
<path d="M57219 19037
L57219 16281
" />
<path d="M14094 23781
L14094 21025
" />
<path d="M14094 21025
L19606 21025
" />
<path d="M19606 21025
L19606 26537
" />
<path d="M19606 26537
L14094 26537
" />
<path d="M14094 26537
L14094 23781
" />
<path d="M40345 31281
L40345 28525
" />
<path d="M40345 28525
L45857 28525
" />
<path d="M45857 28525
L45857 34037
" />
<path d="M45857 34037
L40345 34037
" />
<path d="M40345 34037
L40345 31281
" />
<path d="M30969 23781
L30969 21025
" />
<path d="M30969 21025
L36481 21025
" />
<path d="M36481 21025
L36481 26537
" />
<path d="M36481 26537
L30969 26537
" />
<path d="M30969 26537
L30969 23781
" />
<path d="M38469 23781
L38469 21025
" />
<path d="M38469 21025
L43981 21025
" />
<path d="M43981 21025
L43981 26537
" />
<path d="M43981 26537
L38469 26537
" />
<path d="M38469 26537
L38469 23781
" />
<path d="M53469 23781
L53469 21025
" />
<path d="M53469 21025
L58981 21025
" />
<path d="M58981 21025
L58981 26537
" />
<path d="M58981 26537
L53469 26537
" />
<path d="M53469 26537
L53469 23781
" />
<path d="M60969 23781
L60969 21025
" />
<path d="M60969 21025
L66481 21025
" />
<path d="M66481 21025
L66481 26537
" />
<path d="M66481 26537
L60969 26537
" />
<path d="M60969 26537
L60969 23781
" />
<path d="M15032 31281
L15032 28525
" />
<path d="M15032 28525
L20544 28525
" />
<path d="M20544 28525
L20544 34037
" />
<path d="M20544 34037
L15032 34037
" />
<path d="M15032 34037
L15032 31281
" />
<path d="M25344 31281
L25344 28525
" />
<path d="M25344 28525
L30856 28525
" />
<path d="M30856 28525
L30856 34037
" />
<path d="M30856 34037
L25344 34037
" />
<path d="M25344 34037
L25344 31281
" />
<path d="M32844 31281
L32844 28525
" />
<path d="M32844 28525
L38356 28525
" />
<path d="M38356 28525
L38356 34037
" />
<path d="M38356 34037
L32844 34037
" />
<path d="M32844 34037
L32844 31281
" />
<path d="M47845 31281
L47845 28525
" />
<path d="M47845 28525
L53357 28525
" />
<path d="M53357 28525
L53357 34037
" />
<path d="M53357 34037
L47845 34037
" />
<path d="M47845 34037
L47845 31281
" />
<path d="M23469 23781
L23469 21025
" />
<path d="M23469 21025
L28981 21025
" />
<path d="M28981 21025
L28981 26537
" />
<path d="M28981 26537
L23469 26537
" />
<path d="M23469 26537
L23469 23781
" />
<path d="M49719 16281
L49719 13525
" />
<path d="M49719 13525
L55231 13525
" />
<path d="M55231 13525
L55231 19037
" />
<path d="M55231 19037
L49719 19037
" />
<path d="M49719 19037
L49719 16281
" />
<path d="M12219 16281
L12219 13525
" />
<path d="M12219 13525
L17731 13525
" />
<path d="M17731 13525
L17731 19037
" />
<path d="M17731 19037
L12219 19037
" />
<path d="M12219 19037
L12219 16281
" />
</g>
<g style="fill:#000000; fill-opacity:0.0; 
stroke:#000000; stroke-width:59.0551; stroke-opacity:1; 
stroke-linecap:round; stroke-linejoin:round;">
</g>
<g style="fill:#C2C200; fill-opacity:0.0; 
stroke:#C2C200; stroke-width:59.0551; stroke-opacity:1; 
stroke-linecap:round; stroke-linejoin:round;">
<circle cx="18725.9" cy="20031.5" r="433.071" /> 
<circle cx="37475.9" cy="20031.5" r="433.071" /> 
<circle cx="56225.9" cy="20031.5" r="433.071" /> 
<circle cx="22475.9" cy="35031.5" r="433.071" /> 
<circle cx="39350.7" cy="35031.5" r="433.071" /> 
<circle cx="54350.7" cy="35031.5" r="433.071" /> 
<circle cx="22475.9" cy="42531.5" r="433.071" /> 
<circle cx="37475.9" cy="42531.5" r="433.071" /> 
<circle cx="52475.9" cy="42531.5" r="433.071" /> 
</g>
<g style="fill:#000000; fill-opacity:0.0; 
stroke:#000000; stroke-width:59.0551; stroke-opacity:1; 
stroke-linecap:round; stroke-linejoin:round;">
</g>
<g style="fill:#C2C200; fill-opacity:0.0; 
stroke:#C2C200; stroke-width:59.0551; stroke-opacity:1; 
stroke-linecap:round; stroke-linejoin:round;">
<path d="M63725.9 6031.5 A1000 1000 0.0 0 0 62725.9 5031.5 " />
<path d="M63725.9 19031.5 A1000 1000 0.0 0 0 64725.9 20031.5 " />
<path d="M67475.9 21031.5 A1000 1000 0.0 0 0 66475.9 20031.5 " />
<path d="M66475.9 27531.5 A1000 1000 0.0 0 0 67475.9 26531.5 " />
<path d="M64725.9 27531.5 A1000 1000 0.0 0 0 63725.9 28531.5 " />
<path d="M63725.9 34031.5 A1000 1000 0.0 0 0 64725.9 35031.5 " />
<path d="M67475.9 36031.5 A1000 1000 0.0 0 0 66475.9 35031.5 " />
<path d="M66475.9 42531.5 A1000 1000 0.0 0 0 67475.9 41531.5 " />
<path d="M64725.9 42531.5 A1000 1000 0.0 0 0 63725.9 43531.5 " />
<path d="M62725.9 50031.5 A1000 1000 0.0 0 0 63725.9 49031.5 " />
</g>
<g style="fill:#C2C200; fill-opacity:0.0; 
stroke:#C2C200; stroke-width:78.7402; stroke-opacity:1; 
stroke-linecap:round; stroke-linejoin:round;">
<path d="M11225.9 49031.5 A1000 1000 0.0 0 0 12225.9 50031.5 " />
<path d="M12225.9 5031.5 A1000 1000 0.0 0 0 11225.9 6031.5 " />
</g>
<g style="fill:#C2C200; fill-opacity:0.0; 
stroke:#C2C200; stroke-width:59.0551; stroke-opacity:1; 
stroke-linecap:round; stroke-linejoin:round;">
<path d="M11225 49031
L11225 31281
" />
<path d="M62725 50031
L12225 50031
" />
<path d="M63725 43531
L63725 49031
" />
<path d="M66475 42531
L64725 42531
" />
<path d="M67475 36031
L67475 41531
" />
<path d="M64725 35031
L66475 35031
" />
<path d="M63725 28531
L63725 34031
" />
<path d="M66475 27531
L64725 27531
" />
<path d="M67475 21031
L67475 26531
" />
<path d="M64725 20031
L66475 20031
" />
<path d="M63725 6031
L63725 19031
" />
<path d="M12225 5031
L62725 5031
" />
<path d="M11225 31281
L11225 6031
" />
</g> 
</svg>
