<?xml version="1.0" standalone="no"?>
 <!DOCTYPE svg PUBLIC "-//W3C//DTD SVG 1.1//EN" 
 "http://www.w3.org/Graphics/SVG/1.1/DTD/svg11.dtd"> 
<svg xmlns="http://www.w3.org/2000/svg" version="1.1" 
    width="20.2438cm" height="14.384cm" viewBox="0 0 79700 56630 ">
<title>SVG Picture created as hecomi_R-brd.svg date 2019/01/10 17:11:40 </title>
  <desc>Picture generated by PCBNEW </desc>
<g style="fill:#000000; fill-opacity:1;stroke:#000000; stroke-opacity:1;
stroke-linecap:round; stroke-linejoin:round; "
 transform="translate(0 0) scale(1 1)">
</g>
<g style="fill:#000000; fill-opacity:0.0; 
stroke:#000000; stroke-width:-0.000393701; stroke-opacity:1; 
stroke-linecap:round; stroke-linejoin:round;">
</g>
<g style="fill:#008400; fill-opacity:0.0; 
stroke:#008400; stroke-width:-0.000393701; stroke-opacity:1; 
stroke-linecap:round; stroke-linejoin:round;">
</g>
<g style="fill:#008400; fill-opacity:0.0; 
stroke:#008400; stroke-width:59.0551; stroke-opacity:1; 
stroke-linecap:round; stroke-linejoin:round;">
<path d="M42283 36906
L42283 34150
" />
<path d="M42283 34150
L47795 34150
" />
<path d="M47795 34150
L47795 39662
" />
<path d="M47795 39662
L42283 39662
" />
<path d="M42283 39662
L42283 36906
" />
<path d="M54471 36906
L54471 34150
" />
<path d="M54471 34150
L59982 34150
" />
<path d="M59982 34150
L59982 39662
" />
<path d="M59982 39662
L54471 39662
" />
<path d="M54471 39662
L54471 36906
" />
<path d="M8533 44406
L8533 41650
" />
<path d="M8533 41650
L14045 41650
" />
<path d="M14045 41650
L14045 47162
" />
<path d="M14045 47162
L8533 47162
" />
<path d="M8533 47162
L8533 44406
" />
<path d="M16033 44406
L16033 41650
" />
<path d="M16033 41650
L21545 41650
" />
<path d="M21545 41650
L21545 47162
" />
<path d="M21545 47162
L16033 47162
" />
<path d="M16033 47162
L16033 44406
" />
<path d="M23533 44406
L23533 41650
" />
<path d="M23533 41650
L29045 41650
" />
<path d="M29045 41650
L29045 47162
" />
<path d="M29045 47162
L23533 47162
" />
<path d="M23533 47162
L23533 44406
" />
<path d="M31033 44406
L31033 41650
" />
<path d="M31033 41650
L36545 41650
" />
<path d="M36545 41650
L36545 47162
" />
<path d="M36545 47162
L31033 47162
" />
<path d="M31033 47162
L31033 44406
" />
<path d="M38533 44406
L38533 41650
" />
<path d="M38533 41650
L44045 41650
" />
<path d="M44045 41650
L44045 47162
" />
<path d="M44045 47162
L38533 47162
" />
<path d="M38533 47162
L38533 44406
" />
<path d="M32908 51906
L32908 49150
" />
<path d="M32908 49150
L38420 49150
" />
<path d="M38420 49150
L38420 54662
" />
<path d="M38420 54662
L32908 54662
" />
<path d="M32908 54662
L32908 51906
" />
<path d="M48845 44406
L48845 41650
" />
<path d="M48845 41650
L54357 41650
" />
<path d="M54357 41650
L54357 47162
" />
<path d="M54357 47162
L48845 47162
" />
<path d="M48845 47162
L48845 44406
" />
<path d="M59158 44406
L59158 41650
" />
<path d="M59158 41650
L64670 41650
" />
<path d="M64670 41650
L64670 47162
" />
<path d="M64670 47162
L59158 47162
" />
<path d="M59158 47162
L59158 44406
" />
<path d="M2908 51906
L2908 49150
" />
<path d="M2908 49150
L8420 49150
" />
<path d="M8420 49150
L8420 54662
" />
<path d="M8420 54662
L2908 54662
" />
<path d="M2908 54662
L2908 51906
" />
<path d="M10408 51906
L10408 49150
" />
<path d="M10408 49150
L15920 49150
" />
<path d="M15920 49150
L15920 54662
" />
<path d="M15920 54662
L10408 54662
" />
<path d="M10408 54662
L10408 51906
" />
<path d="M17908 51906
L17908 49150
" />
<path d="M17908 49150
L23420 49150
" />
<path d="M23420 49150
L23420 54662
" />
<path d="M23420 54662
L17908 54662
" />
<path d="M17908 54662
L17908 51906
" />
<path d="M25408 51906
L25408 49150
" />
<path d="M25408 49150
L30920 49150
" />
<path d="M30920 49150
L30920 54662
" />
<path d="M30920 54662
L25408 54662
" />
<path d="M25408 54662
L25408 51906
" />
<path d="M40408 51906
L40408 49150
" />
<path d="M40408 49150
L45920 49150
" />
<path d="M45920 49150
L45920 54662
" />
<path d="M45920 54662
L40408 54662
" />
<path d="M40408 54662
L40408 51906
" />
<path d="M1033 44406
L1033 41650
" />
<path d="M1033 41650
L6545 41650
" />
<path d="M6545 41650
L6545 47162
" />
<path d="M6545 47162
L1033 47162
" />
<path d="M1033 47162
L1033 44406
" />
<path d="M14158 21906
L14158 19150
" />
<path d="M14158 19150
L19670 19150
" />
<path d="M19670 19150
L19670 24662
" />
<path d="M19670 24662
L14158 24662
" />
<path d="M14158 24662
L14158 21906
" />
<path d="M34783 36906
L34783 34150
" />
<path d="M34783 34150
L40295 34150
" />
<path d="M40295 34150
L40295 39662
" />
<path d="M40295 39662
L34783 39662
" />
<path d="M34783 39662
L34783 36906
" />
<path d="M21658 21906
L21658 19150
" />
<path d="M21658 19150
L27170 19150
" />
<path d="M27170 19150
L27170 24662
" />
<path d="M27170 24662
L21658 24662
" />
<path d="M21658 24662
L21658 21906
" />
<path d="M29158 21906
L29158 19150
" />
<path d="M29158 19150
L34670 19150
" />
<path d="M34670 19150
L34670 24662
" />
<path d="M34670 24662
L29158 24662
" />
<path d="M29158 24662
L29158 21906
" />
<path d="M36658 21906
L36658 19150
" />
<path d="M36658 19150
L42170 19150
" />
<path d="M42170 19150
L42170 24662
" />
<path d="M42170 24662
L36658 24662
" />
<path d="M36658 24662
L36658 21906
" />
<path d="M51658 21906
L51658 19150
" />
<path d="M51658 19150
L57170 19150
" />
<path d="M57170 19150
L57170 24662
" />
<path d="M57170 24662
L51658 24662
" />
<path d="M51658 24662
L51658 21906
" />
<path d="M59158 21906
L59158 19150
" />
<path d="M59158 19150
L64670 19150
" />
<path d="M64670 19150
L64670 24662
" />
<path d="M64670 24662
L59158 24662
" />
<path d="M59158 24662
L59158 21906
" />
<path d="M2908 29406
L2908 26650
" />
<path d="M2908 26650
L8420 26650
" />
<path d="M8420 26650
L8420 32162
" />
<path d="M8420 32162
L2908 32162
" />
<path d="M2908 32162
L2908 29406
" />
<path d="M27283 36906
L27283 34150
" />
<path d="M27283 34150
L32795 34150
" />
<path d="M32795 34150
L32795 39662
" />
<path d="M32795 39662
L27283 39662
" />
<path d="M27283 39662
L27283 36906
" />
<path d="M17908 29406
L17908 26650
" />
<path d="M17908 26650
L23420 26650
" />
<path d="M23420 26650
L23420 32162
" />
<path d="M23420 32162
L17908 32162
" />
<path d="M17908 32162
L17908 29406
" />
<path d="M25408 29406
L25408 26650
" />
<path d="M25408 26650
L30920 26650
" />
<path d="M30920 26650
L30920 32162
" />
<path d="M30920 32162
L25408 32162
" />
<path d="M25408 32162
L25408 29406
" />
<path d="M40408 29406
L40408 26650
" />
<path d="M40408 26650
L45920 26650
" />
<path d="M45920 26650
L45920 32162
" />
<path d="M45920 32162
L40408 32162
" />
<path d="M40408 32162
L40408 29406
" />
<path d="M47908 29406
L47908 26650
" />
<path d="M47908 26650
L53420 26650
" />
<path d="M53420 26650
L53420 32162
" />
<path d="M53420 32162
L47908 32162
" />
<path d="M47908 32162
L47908 29406
" />
<path d="M57283 29406
L57283 26650
" />
<path d="M57283 26650
L62795 26650
" />
<path d="M62795 26650
L62795 32162
" />
<path d="M62795 32162
L57283 32162
" />
<path d="M57283 32162
L57283 29406
" />
<path d="M4783 36906
L4783 34150
" />
<path d="M4783 34150
L10295 34150
" />
<path d="M10295 34150
L10295 39662
" />
<path d="M10295 39662
L4783 39662
" />
<path d="M4783 39662
L4783 36906
" />
<path d="M12283 36906
L12283 34150
" />
<path d="M12283 34150
L17795 34150
" />
<path d="M17795 34150
L17795 39662
" />
<path d="M17795 39662
L12283 39662
" />
<path d="M12283 39662
L12283 36906
" />
<path d="M19783 36906
L19783 34150
" />
<path d="M19783 34150
L25295 34150
" />
<path d="M25295 34150
L25295 39662
" />
<path d="M25295 39662
L19783 39662
" />
<path d="M19783 39662
L19783 36906
" />
<path d="M10408 29406
L10408 26650
" />
<path d="M10408 26650
L15920 26650
" />
<path d="M15920 26650
L15920 32162
" />
<path d="M15920 32162
L10408 32162
" />
<path d="M10408 32162
L10408 29406
" />
<path d="M6658 21906
L6658 19150
" />
<path d="M6658 19150
L12170 19150
" />
<path d="M12170 19150
L12170 24662
" />
<path d="M12170 24662
L6658 24662
" />
<path d="M6658 24662
L6658 21906
" />
<path d="M44158 21906
L44158 19150
" />
<path d="M44158 19150
L49670 19150
" />
<path d="M49670 19150
L49670 24662
" />
<path d="M49670 24662
L44158 24662
" />
<path d="M44158 24662
L44158 21906
" />
<path d="M32908 29406
L32908 26650
" />
<path d="M32908 26650
L38420 26650
" />
<path d="M38420 26650
L38420 32162
" />
<path d="M38420 32162
L32908 32162
" />
<path d="M32908 32162
L32908 29406
" />
</g>
<g style="fill:#000000; fill-opacity:0.0; 
stroke:#000000; stroke-width:59.0551; stroke-opacity:1; 
stroke-linecap:round; stroke-linejoin:round;">
</g>
<g style="fill:#C2C200; fill-opacity:0.0; 
stroke:#C2C200; stroke-width:59.0551; stroke-opacity:1; 
stroke-linecap:round; stroke-linejoin:round;">
<circle cx="58164.4" cy="40656.5" r="433.071" /> 
<circle cx="3789.37" cy="18156.5" r="433.071" /> 
<circle cx="31914.4" cy="18156.5" r="433.071" /> 
<circle cx="58164.4" cy="18156.5" r="433.071" /> 
<circle cx="7539.37" cy="40656.5" r="433.071" /> 
<circle cx="31914.4" cy="55656.5" r="433.071" /> 
<circle cx="58164.4" cy="55656.5" r="433.071" /> 
<circle cx="30039.6" cy="40656.5" r="433.071" /> 
<circle cx="9414.37" cy="55656.5" r="433.071" /> 
</g>
<g style="fill:#000000; fill-opacity:0.0; 
stroke:#000000; stroke-width:59.0551; stroke-opacity:1; 
stroke-linecap:round; stroke-linejoin:round;">
</g>
<g style="fill:#C2C200; fill-opacity:0.0; 
stroke:#C2C200; stroke-width:59.0551; stroke-opacity:1; 
stroke-linecap:round; stroke-linejoin:round;">
</g>
<g style="fill:#C2C200; fill-opacity:0.0; 
stroke:#C2C200; stroke-width:78.7402; stroke-opacity:1; 
stroke-linecap:round; stroke-linejoin:round;">
<path d="M1914.37 55656.5 A937.5 937.5 0.0 0 0 2851.87 56594 " />
<path d="M64726.9 56594 A937.5 937.5 0.0 0 0 65664.4 55656.5 " />
</g>
<g style="fill:#C2C200; fill-opacity:0.0; 
stroke:#C2C200; stroke-width:59.0551; stroke-opacity:1; 
stroke-linecap:round; stroke-linejoin:round;">
<path d="M2914.37 10656.5 A1000 1000 0.0 0 0 1914.37 11656.5 " />
<path d="M969.614 25658.9 A1000 1000 0.0 0 0 39.3705 26656.5 " />
<path d="M984.127 25654.1 A1000 1000 0.0 0 0 1914.37 24656.5 " />
<path d="M39.3705 32156.5 A1000 1000 0.0 0 0 1039.37 33156.5 " />
<path d="M3789.37 34156.5 A1000 1000 0.0 0 0 2789.37 33156.5 " />
<path d="M2789.37 40656.5 A1000 1000 0.0 0 0 3789.37 39656.5 " />
<path d="M1039.37 40656.5 A1000 1000 0.0 0 0 39.3705 41656.5 " />
<path d="M39.3705 47156.5 A1000 1000 0.0 0 0 969.614 48154.1 " />
<path d="M1914.37 49156.5 A1000 1000 0.0 0 0 984.127 48158.9 " />
<path d="M65664.4 11656.5 A1000 1000 0.0 0 0 64664.4 10656.5 " />
<path d="M1914 24656
L1914 11656
" />
</g>
<g style="fill:#C2C200; fill-opacity:0.0; 
stroke:#C2C200; stroke-width:78.7402; stroke-opacity:1; 
stroke-linecap:round; stroke-linejoin:round;">
<path d="M65664 55656
L65664 11656
" />
<path d="M2851 56593
L64726 56593
" />
<path d="M1914 49156
L1914 55656
" />
<path d="M39 41656
L39 47156
" />
<path d="M2789 40656
L1039 40656
" />
<path d="M3789 34156
L3789 39656
" />
<path d="M1039 33156
L2789 33156
" />
<path d="M39 26656
L39 32156
" />
<path d="M64664 10656
L2914 10656
" />
</g> 
</svg>
