<?xml version="1.0" encoding="UTF-8"?>
<!DOCTYPE svg PUBLIC "-//W3C//DTD SVG 1.1//EN" "http://www.w3.org/Graphics/SVG/1.1/DTD/svg11.dtd">
<!-- Creator: CorelDRAW 2017 -->
<svg xmlns="http://www.w3.org/2000/svg" xml:space="preserve" width="450mm" height="300mm" version="1.1" style="shape-rendering:geometricPrecision; text-rendering:geometricPrecision; image-rendering:optimizeQuality; fill-rule:evenodd; clip-rule:evenodd"
viewBox="0 0 45000 30000"
 xmlns:xlink="http://www.w3.org/1999/xlink">
 <defs>
  <style type="text/css">
   <![CDATA[
    .str2 {stroke:#C2C200;stroke-width:20;stroke-linecap:round;stroke-linejoin:round;stroke-miterlimit:22.9256}
    .str0 {stroke:#008400;stroke-width:15;stroke-linecap:round;stroke-linejoin:round;stroke-miterlimit:22.9256}
    .str1 {stroke:#C2C200;stroke-width:15;stroke-linecap:round;stroke-linejoin:round;stroke-miterlimit:22.9256}
    .fil1 {fill:none}
    .fil3 {fill:none}
    .fil0 {fill:#008400;fill-opacity:0.000000}
    .fil2 {fill:#C2C200;fill-opacity:0.000000}
   ]]>
  </style>
 </defs>
 <g id="レイヤ_x0020_1">
  <metadata id="CorelCorpID_0Corel-Layer"/>
  <g id="_2447478341136">
   <g>
    <path class="fil0" d="M11378.91 7145.17l0 -700.02m0 700.02l0 0 0 0z"/>
    <path class="fil1 str0" d="M11378.91 7145.17l0 -700.02m0 700.02l0 0 0 0z"/>
   </g>
   <g>
    <path class="fil0" d="M11378.91 6445.15l1400.05 0m-1400.05 0l0 0 0 0z"/>
    <path class="fil1 str0" d="M11378.91 6445.15l1400.05 0m-1400.05 0l0 0 0 0z"/>
   </g>
   <g>
    <path class="fil0" d="M12778.96 6445.15l0 1400.04m0 -1400.04l0 0 0 0z"/>
    <path class="fil1 str0" d="M12778.96 6445.15l0 1400.04m0 -1400.04l0 0 0 0z"/>
   </g>
   <g>
    <path class="fil0" d="M12778.96 7845.19l-1400.05 0m1400.05 0l0 0 0 0z"/>
    <path class="fil1 str0" d="M12778.96 7845.19l-1400.05 0m1400.05 0l0 0 0 0z"/>
   </g>
   <g>
    <path class="fil0" d="M11378.91 7845.19l0 -700.02m0 700.02l0 0 0 0z"/>
    <path class="fil1 str0" d="M11378.91 7845.19l0 -700.02m0 700.02l0 0 0 0z"/>
   </g>
   <g>
    <path class="fil0" d="M14474.66 7145.17l0 -700.02m0 700.02l0 0 0 0z"/>
    <path class="fil1 str0" d="M14474.66 7145.17l0 -700.02m0 700.02l0 0 0 0z"/>
   </g>
   <g>
    <path class="fil0" d="M14474.66 6445.15l1399.79 0m-1399.79 0l0 0 0 0z"/>
    <path class="fil1 str0" d="M14474.66 6445.15l1399.79 0m-1399.79 0l0 0 0 0z"/>
   </g>
   <g>
    <path class="fil0" d="M15874.45 6445.15l0 1400.04m0 -1400.04l0 0 0 0z"/>
    <path class="fil1 str0" d="M15874.45 6445.15l0 1400.04m0 -1400.04l0 0 0 0z"/>
   </g>
   <g>
    <path class="fil0" d="M15874.45 7845.19l-1399.79 0m1399.79 0l0 0 0 0z"/>
    <path class="fil1 str0" d="M15874.45 7845.19l-1399.79 0m1399.79 0l0 0 0 0z"/>
   </g>
   <g>
    <path class="fil0" d="M14474.66 7845.19l0 -700.02m0 700.02l0 0 0 0z"/>
    <path class="fil1 str0" d="M14474.66 7845.19l0 -700.02m0 700.02l0 0 0 0z"/>
   </g>
   <g>
    <path class="fil0" d="M2806.42 9050.17l0 -700.02m0 700.02l0 0 0 0z"/>
    <path class="fil1 str0" d="M2806.42 9050.17l0 -700.02m0 700.02l0 0 0 0z"/>
   </g>
   <g>
    <path class="fil0" d="M2806.42 8350.15l1400.05 0m-1400.05 0l0 0 0 0z"/>
    <path class="fil1 str0" d="M2806.42 8350.15l1400.05 0m-1400.05 0l0 0 0 0z"/>
   </g>
   <g>
    <path class="fil0" d="M4206.47 8350.15l0 1400.04m0 -1400.04l0 0 0 0z"/>
    <path class="fil1 str0" d="M4206.47 8350.15l0 1400.04m0 -1400.04l0 0 0 0z"/>
   </g>
   <g>
    <path class="fil0" d="M4206.47 9750.19l-1400.05 0m1400.05 0l0 0 0 0z"/>
    <path class="fil1 str0" d="M4206.47 9750.19l-1400.05 0m1400.05 0l0 0 0 0z"/>
   </g>
   <g>
    <path class="fil0" d="M2806.42 9750.19l0 -700.02m0 700.02l0 0 0 0z"/>
    <path class="fil1 str0" d="M2806.42 9750.19l0 -700.02m0 700.02l0 0 0 0z"/>
   </g>
   <g>
    <path class="fil0" d="M4711.42 9050.17l0 -700.02m0 700.02l0 0 0 0z"/>
    <path class="fil1 str0" d="M4711.42 9050.17l0 -700.02m0 700.02l0 0 0 0z"/>
   </g>
   <g>
    <path class="fil0" d="M4711.42 8350.15l1400.05 0m-1400.05 0l0 0 0 0z"/>
    <path class="fil1 str0" d="M4711.42 8350.15l1400.05 0m-1400.05 0l0 0 0 0z"/>
   </g>
   <g>
    <path class="fil0" d="M6111.47 8350.15l0 1400.04m0 -1400.04l0 0 0 0z"/>
    <path class="fil1 str0" d="M6111.47 8350.15l0 1400.04m0 -1400.04l0 0 0 0z"/>
   </g>
   <g>
    <path class="fil0" d="M6111.47 9750.19l-1400.05 0m1400.05 0l0 0 0 0z"/>
    <path class="fil1 str0" d="M6111.47 9750.19l-1400.05 0m1400.05 0l0 0 0 0z"/>
   </g>
   <g>
    <path class="fil0" d="M4711.42 9750.19l0 -700.02m0 700.02l0 0 0 0z"/>
    <path class="fil1 str0" d="M4711.42 9750.19l0 -700.02m0 700.02l0 0 0 0z"/>
   </g>
   <g>
    <path class="fil0" d="M6616.42 9050.17l0 -700.02m0 700.02l0 0 0 0z"/>
    <path class="fil1 str0" d="M6616.42 9050.17l0 -700.02m0 700.02l0 0 0 0z"/>
   </g>
   <g>
    <path class="fil0" d="M6616.42 8350.15l1400.04 0m-1400.04 0l0 0 0 0z"/>
    <path class="fil1 str0" d="M6616.42 8350.15l1400.04 0m-1400.04 0l0 0 0 0z"/>
   </g>
   <g>
    <path class="fil0" d="M8016.46 8350.15l0 1400.04m0 -1400.04l0 0 0 0z"/>
    <path class="fil1 str0" d="M8016.46 8350.15l0 1400.04m0 -1400.04l0 0 0 0z"/>
   </g>
   <g>
    <path class="fil0" d="M8016.46 9750.19l-1400.04 0m1400.04 0l0 0 0 0z"/>
    <path class="fil1 str0" d="M8016.46 9750.19l-1400.04 0m1400.04 0l0 0 0 0z"/>
   </g>
   <g>
    <path class="fil0" d="M6616.42 9750.19l0 -700.02m0 700.02l0 0 0 0z"/>
    <path class="fil1 str0" d="M6616.42 9750.19l0 -700.02m0 700.02l0 0 0 0z"/>
   </g>
   <g>
    <path class="fil0" d="M8521.42 9050.17l0 -700.02m0 700.02l0 0 0 0z"/>
    <path class="fil1 str0" d="M8521.42 9050.17l0 -700.02m0 700.02l0 0 0 0z"/>
   </g>
   <g>
    <path class="fil0" d="M8521.42 8350.15l1400.04 0m-1400.04 0l0 0 0 0z"/>
    <path class="fil1 str0" d="M8521.42 8350.15l1400.04 0m-1400.04 0l0 0 0 0z"/>
   </g>
   <g>
    <path class="fil0" d="M9921.46 8350.15l0 1400.04m0 -1400.04l0 0 0 0z"/>
    <path class="fil1 str0" d="M9921.46 8350.15l0 1400.04m0 -1400.04l0 0 0 0z"/>
   </g>
   <g>
    <path class="fil0" d="M9921.46 9750.19l-1400.04 0m1400.04 0l0 0 0 0z"/>
    <path class="fil1 str0" d="M9921.46 9750.19l-1400.04 0m1400.04 0l0 0 0 0z"/>
   </g>
   <g>
    <path class="fil0" d="M8521.42 9750.19l0 -700.02m0 700.02l0 0 0 0z"/>
    <path class="fil1 str0" d="M8521.42 9750.19l0 -700.02m0 700.02l0 0 0 0z"/>
   </g>
   <g>
    <path class="fil0" d="M10426.41 9050.17l0 -700.02m0 700.02l0 0 0 0z"/>
    <path class="fil1 str0" d="M10426.41 9050.17l0 -700.02m0 700.02l0 0 0 0z"/>
   </g>
   <g>
    <path class="fil0" d="M10426.41 8350.15l1400.05 0m-1400.05 0l0 0 0 0z"/>
    <path class="fil1 str0" d="M10426.41 8350.15l1400.05 0m-1400.05 0l0 0 0 0z"/>
   </g>
   <g>
    <path class="fil0" d="M11826.46 8350.15l0 1400.04m0 -1400.04l0 0 0 0z"/>
    <path class="fil1 str0" d="M11826.46 8350.15l0 1400.04m0 -1400.04l0 0 0 0z"/>
   </g>
   <g>
    <path class="fil0" d="M11826.46 9750.19l-1400.05 0m1400.05 0l0 0 0 0z"/>
    <path class="fil1 str0" d="M11826.46 9750.19l-1400.05 0m1400.05 0l0 0 0 0z"/>
   </g>
   <g>
    <path class="fil0" d="M10426.41 9750.19l0 -700.02m0 700.02l0 0 0 0z"/>
    <path class="fil1 str0" d="M10426.41 9750.19l0 -700.02m0 700.02l0 0 0 0z"/>
   </g>
   <g>
    <path class="fil0" d="M8997.66 10955.17l0 -700.03m0 700.03l0 0 0 0z"/>
    <path class="fil1 str0" d="M8997.66 10955.17l0 -700.03m0 700.03l0 0 0 0z"/>
   </g>
   <g>
    <path class="fil0" d="M8997.66 10255.14l1400.05 0m-1400.05 0l0 0 0 0z"/>
    <path class="fil1 str0" d="M8997.66 10255.14l1400.05 0m-1400.05 0l0 0 0 0z"/>
   </g>
   <g>
    <path class="fil0" d="M10397.71 10255.14l0 1400.05m0 -1400.05l0 0 0 0z"/>
    <path class="fil1 str0" d="M10397.71 10255.14l0 1400.05m0 -1400.05l0 0 0 0z"/>
   </g>
   <g>
    <path class="fil0" d="M10397.71 11655.19l-1400.05 0m1400.05 0l0 0 0 0z"/>
    <path class="fil1 str0" d="M10397.71 11655.19l-1400.05 0m1400.05 0l0 0 0 0z"/>
   </g>
   <g>
    <path class="fil0" d="M8997.66 11655.19l0 -700.02m0 700.02l0 0 0 0z"/>
    <path class="fil1 str0" d="M8997.66 11655.19l0 -700.02m0 700.02l0 0 0 0z"/>
   </g>
   <g>
    <path class="fil0" d="M13045.66 9050.17l0 -700.02m0 700.02l0 0 0 0z"/>
    <path class="fil1 str0" d="M13045.66 9050.17l0 -700.02m0 700.02l0 0 0 0z"/>
   </g>
   <g>
    <path class="fil0" d="M13045.66 8350.15l1400.04 0m-1400.04 0l0 0 0 0z"/>
    <path class="fil1 str0" d="M13045.66 8350.15l1400.04 0m-1400.04 0l0 0 0 0z"/>
   </g>
   <g>
    <path class="fil0" d="M14445.7 8350.15l0 1400.04m0 -1400.04l0 0 0 0z"/>
    <path class="fil1 str0" d="M14445.7 8350.15l0 1400.04m0 -1400.04l0 0 0 0z"/>
   </g>
   <g>
    <path class="fil0" d="M14445.7 9750.19l-1400.04 0m1400.04 0l0 0 0 0z"/>
    <path class="fil1 str0" d="M14445.7 9750.19l-1400.04 0m1400.04 0l0 0 0 0z"/>
   </g>
   <g>
    <path class="fil0" d="M13045.66 9750.19l0 -700.02m0 700.02l0 0 0 0z"/>
    <path class="fil1 str0" d="M13045.66 9750.19l0 -700.02m0 700.02l0 0 0 0z"/>
   </g>
   <g>
    <path class="fil0" d="M15665.16 9050.17l0 -700.02m0 700.02l0 0 0 0z"/>
    <path class="fil1 str0" d="M15665.16 9050.17l0 -700.02m0 700.02l0 0 0 0z"/>
   </g>
   <g>
    <path class="fil0" d="M15665.16 8350.15l1400.04 0m-1400.04 0l0 0 0 0z"/>
    <path class="fil1 str0" d="M15665.16 8350.15l1400.04 0m-1400.04 0l0 0 0 0z"/>
   </g>
   <g>
    <path class="fil0" d="M17065.2 8350.15l0 1400.04m0 -1400.04l0 0 0 0z"/>
    <path class="fil1 str0" d="M17065.2 8350.15l0 1400.04m0 -1400.04l0 0 0 0z"/>
   </g>
   <g>
    <path class="fil0" d="M17065.2 9750.19l-1400.04 0m1400.04 0l0 0 0 0z"/>
    <path class="fil1 str0" d="M17065.2 9750.19l-1400.04 0m1400.04 0l0 0 0 0z"/>
   </g>
   <g>
    <path class="fil0" d="M15665.16 9750.19l0 -700.02m0 700.02l0 0 0 0z"/>
    <path class="fil1 str0" d="M15665.16 9750.19l0 -700.02m0 700.02l0 0 0 0z"/>
   </g>
   <g>
    <path class="fil0" d="M1377.68 10955.17l0 -700.03m0 700.03l0 0 0 0z"/>
    <path class="fil1 str0" d="M1377.68 10955.17l0 -700.03m0 700.03l0 0 0 0z"/>
   </g>
   <g>
    <path class="fil0" d="M1377.68 10255.14l1400.04 0m-1400.04 0l0 0 0 0z"/>
    <path class="fil1 str0" d="M1377.68 10255.14l1400.04 0m-1400.04 0l0 0 0 0z"/>
   </g>
   <g>
    <path class="fil0" d="M2777.72 10255.14l0 1400.05m0 -1400.05l0 0 0 0z"/>
    <path class="fil1 str0" d="M2777.72 10255.14l0 1400.05m0 -1400.05l0 0 0 0z"/>
   </g>
   <g>
    <path class="fil0" d="M2777.72 11655.19l-1400.04 0m1400.04 0l0 0 0 0z"/>
    <path class="fil1 str0" d="M2777.72 11655.19l-1400.04 0m1400.04 0l0 0 0 0z"/>
   </g>
   <g>
    <path class="fil0" d="M1377.68 11655.19l0 -700.02m0 700.02l0 0 0 0z"/>
    <path class="fil1 str0" d="M1377.68 11655.19l0 -700.02m0 700.02l0 0 0 0z"/>
   </g>
   <g>
    <path class="fil0" d="M3282.67 10955.17l0 -700.03m0 700.03l0 0 0 0z"/>
    <path class="fil1 str0" d="M3282.67 10955.17l0 -700.03m0 700.03l0 0 0 0z"/>
   </g>
   <g>
    <path class="fil0" d="M3282.67 10255.14l1400.05 0m-1400.05 0l0 0 0 0z"/>
    <path class="fil1 str0" d="M3282.67 10255.14l1400.05 0m-1400.05 0l0 0 0 0z"/>
   </g>
   <g>
    <path class="fil0" d="M4682.72 10255.14l0 1400.05m0 -1400.05l0 0 0 0z"/>
    <path class="fil1 str0" d="M4682.72 10255.14l0 1400.05m0 -1400.05l0 0 0 0z"/>
   </g>
   <g>
    <path class="fil0" d="M4682.72 11655.19l-1400.05 0m1400.05 0l0 0 0 0z"/>
    <path class="fil1 str0" d="M4682.72 11655.19l-1400.05 0m1400.05 0l0 0 0 0z"/>
   </g>
   <g>
    <path class="fil0" d="M3282.67 11655.19l0 -700.02m0 700.02l0 0 0 0z"/>
    <path class="fil1 str0" d="M3282.67 11655.19l0 -700.02m0 700.02l0 0 0 0z"/>
   </g>
   <g>
    <path class="fil0" d="M5187.67 10955.17l0 -700.03m0 700.03l0 0 0 0z"/>
    <path class="fil1 str0" d="M5187.67 10955.17l0 -700.03m0 700.03l0 0 0 0z"/>
   </g>
   <g>
    <path class="fil0" d="M5187.67 10255.14l1400.05 0m-1400.05 0l0 0 0 0z"/>
    <path class="fil1 str0" d="M5187.67 10255.14l1400.05 0m-1400.05 0l0 0 0 0z"/>
   </g>
   <g>
    <path class="fil0" d="M6587.72 10255.14l0 1400.05m0 -1400.05l0 0 0 0z"/>
    <path class="fil1 str0" d="M6587.72 10255.14l0 1400.05m0 -1400.05l0 0 0 0z"/>
   </g>
   <g>
    <path class="fil0" d="M6587.72 11655.19l-1400.05 0m1400.05 0l0 0 0 0z"/>
    <path class="fil1 str0" d="M6587.72 11655.19l-1400.05 0m1400.05 0l0 0 0 0z"/>
   </g>
   <g>
    <path class="fil0" d="M5187.67 11655.19l0 -700.02m0 700.02l0 0 0 0z"/>
    <path class="fil1 str0" d="M5187.67 11655.19l0 -700.02m0 700.02l0 0 0 0z"/>
   </g>
   <g>
    <path class="fil0" d="M7092.67 10955.17l0 -700.03m0 700.03l0 0 0 0z"/>
    <path class="fil1 str0" d="M7092.67 10955.17l0 -700.03m0 700.03l0 0 0 0z"/>
   </g>
   <g>
    <path class="fil0" d="M7092.67 10255.14l1400.04 0m-1400.04 0l0 0 0 0z"/>
    <path class="fil1 str0" d="M7092.67 10255.14l1400.04 0m-1400.04 0l0 0 0 0z"/>
   </g>
   <g>
    <path class="fil0" d="M8492.71 10255.14l0 1400.05m0 -1400.05l0 0 0 0z"/>
    <path class="fil1 str0" d="M8492.71 10255.14l0 1400.05m0 -1400.05l0 0 0 0z"/>
   </g>
   <g>
    <path class="fil0" d="M8492.71 11655.19l-1400.04 0m1400.04 0l0 0 0 0z"/>
    <path class="fil1 str0" d="M8492.71 11655.19l-1400.04 0m1400.04 0l0 0 0 0z"/>
   </g>
   <g>
    <path class="fil0" d="M7092.67 11655.19l0 -700.02m0 700.02l0 0 0 0z"/>
    <path class="fil1 str0" d="M7092.67 11655.19l0 -700.02m0 700.02l0 0 0 0z"/>
   </g>
   <g>
    <path class="fil0" d="M10902.66 10955.17l0 -700.03m0 700.03l0 0 0 0z"/>
    <path class="fil1 str0" d="M10902.66 10955.17l0 -700.03m0 700.03l0 0 0 0z"/>
   </g>
   <g>
    <path class="fil0" d="M10902.66 10255.14l1400.05 0m-1400.05 0l0 0 0 0z"/>
    <path class="fil1 str0" d="M10902.66 10255.14l1400.05 0m-1400.05 0l0 0 0 0z"/>
   </g>
   <g>
    <path class="fil0" d="M12302.71 10255.14l0 1400.05m0 -1400.05l0 0 0 0z"/>
    <path class="fil1 str0" d="M12302.71 10255.14l0 1400.05m0 -1400.05l0 0 0 0z"/>
   </g>
   <g>
    <path class="fil0" d="M12302.71 11655.19l-1400.05 0m1400.05 0l0 0 0 0z"/>
    <path class="fil1 str0" d="M12302.71 11655.19l-1400.05 0m1400.05 0l0 0 0 0z"/>
   </g>
   <g>
    <path class="fil0" d="M10902.66 11655.19l0 -700.02m0 700.02l0 0 0 0z"/>
    <path class="fil1 str0" d="M10902.66 11655.19l0 -700.02m0 700.02l0 0 0 0z"/>
   </g>
   <g>
    <path class="fil0" d="M901.43 9050.17l0 -700.02m0 700.02l0 0 0 0z"/>
    <path class="fil1 str0" d="M901.43 9050.17l0 -700.02m0 700.02l0 0 0 0z"/>
   </g>
   <g>
    <path class="fil0" d="M901.43 8350.15l1400.04 0m-1400.04 0l0 0 0 0z"/>
    <path class="fil1 str0" d="M901.43 8350.15l1400.04 0m-1400.04 0l0 0 0 0z"/>
   </g>
   <g>
    <path class="fil0" d="M2301.47 8350.15l0 1400.04m0 -1400.04l0 0 0 0z"/>
    <path class="fil1 str0" d="M2301.47 8350.15l0 1400.04m0 -1400.04l0 0 0 0z"/>
   </g>
   <g>
    <path class="fil0" d="M2301.47 9750.19l-1400.04 0m1400.04 0l0 0 0 0z"/>
    <path class="fil1 str0" d="M2301.47 9750.19l-1400.04 0m1400.04 0l0 0 0 0z"/>
   </g>
   <g>
    <path class="fil0" d="M901.43 9750.19l0 -700.02m0 700.02l0 0 0 0z"/>
    <path class="fil1 str0" d="M901.43 9750.19l0 -700.02m0 700.02l0 0 0 0z"/>
   </g>
   <g>
    <path class="fil0" d="M4235.17 3335.18l0 -700.03m0 700.03l0 0 0 0z"/>
    <path class="fil1 str0" d="M4235.17 3335.18l0 -700.03m0 700.03l0 0 0 0z"/>
   </g>
   <g>
    <path class="fil0" d="M4235.17 2635.15l1400.05 0m-1400.05 0l0 0 0 0z"/>
    <path class="fil1 str0" d="M4235.17 2635.15l1400.05 0m-1400.05 0l0 0 0 0z"/>
   </g>
   <g>
    <path class="fil0" d="M5635.22 2635.15l0 1400.05m0 -1400.05l0 0 0 0z"/>
    <path class="fil1 str0" d="M5635.22 2635.15l0 1400.05m0 -1400.05l0 0 0 0z"/>
   </g>
   <g>
    <path class="fil0" d="M5635.22 4035.2l-1400.05 0m1400.05 0l0 0 0 0z"/>
    <path class="fil1 str0" d="M5635.22 4035.2l-1400.05 0m1400.05 0l0 0 0 0z"/>
   </g>
   <g>
    <path class="fil0" d="M4235.17 4035.2l0 -700.02m0 700.02l0 0 0 0z"/>
    <path class="fil1 str0" d="M4235.17 4035.2l0 -700.02m0 700.02l0 0 0 0z"/>
   </g>
   <g>
    <path class="fil0" d="M9473.91 7145.17l0 -700.02m0 700.02l0 0 0 0z"/>
    <path class="fil1 str0" d="M9473.91 7145.17l0 -700.02m0 700.02l0 0 0 0z"/>
   </g>
   <g>
    <path class="fil0" d="M9473.91 6445.15l1400.05 0m-1400.05 0l0 0 0 0z"/>
    <path class="fil1 str0" d="M9473.91 6445.15l1400.05 0m-1400.05 0l0 0 0 0z"/>
   </g>
   <g>
    <path class="fil0" d="M10873.96 6445.15l0 1400.04m0 -1400.04l0 0 0 0z"/>
    <path class="fil1 str0" d="M10873.96 6445.15l0 1400.04m0 -1400.04l0 0 0 0z"/>
   </g>
   <g>
    <path class="fil0" d="M10873.96 7845.19l-1400.05 0m1400.05 0l0 0 0 0z"/>
    <path class="fil1 str0" d="M10873.96 7845.19l-1400.05 0m1400.05 0l0 0 0 0z"/>
   </g>
   <g>
    <path class="fil0" d="M9473.91 7845.19l0 -700.02m0 700.02l0 0 0 0z"/>
    <path class="fil1 str0" d="M9473.91 7845.19l0 -700.02m0 700.02l0 0 0 0z"/>
   </g>
   <g>
    <path class="fil0" d="M6140.17 3335.18l0 -700.03m0 700.03l0 0 0 0z"/>
    <path class="fil1 str0" d="M6140.17 3335.18l0 -700.03m0 700.03l0 0 0 0z"/>
   </g>
   <g>
    <path class="fil0" d="M6140.17 2635.15l1400.04 0m-1400.04 0l0 0 0 0z"/>
    <path class="fil1 str0" d="M6140.17 2635.15l1400.04 0m-1400.04 0l0 0 0 0z"/>
   </g>
   <g>
    <path class="fil0" d="M7540.21 2635.15l0 1400.05m0 -1400.05l0 0 0 0z"/>
    <path class="fil1 str0" d="M7540.21 2635.15l0 1400.05m0 -1400.05l0 0 0 0z"/>
   </g>
   <g>
    <path class="fil0" d="M7540.21 4035.2l-1400.04 0m1400.04 0l0 0 0 0z"/>
    <path class="fil1 str0" d="M7540.21 4035.2l-1400.04 0m1400.04 0l0 0 0 0z"/>
   </g>
   <g>
    <path class="fil0" d="M6140.17 4035.2l0 -700.02m0 700.02l0 0 0 0z"/>
    <path class="fil1 str0" d="M6140.17 4035.2l0 -700.02m0 700.02l0 0 0 0z"/>
   </g>
   <g>
    <path class="fil0" d="M8045.17 3335.18l0 -700.03m0 700.03l0 0 0 0z"/>
    <path class="fil1 str0" d="M8045.17 3335.18l0 -700.03m0 700.03l0 0 0 0z"/>
   </g>
   <g>
    <path class="fil0" d="M8045.17 2635.15l1400.04 0m-1400.04 0l0 0 0 0z"/>
    <path class="fil1 str0" d="M8045.17 2635.15l1400.04 0m-1400.04 0l0 0 0 0z"/>
   </g>
   <g>
    <path class="fil0" d="M9445.21 2635.15l0 1400.05m0 -1400.05l0 0 0 0z"/>
    <path class="fil1 str0" d="M9445.21 2635.15l0 1400.05m0 -1400.05l0 0 0 0z"/>
   </g>
   <g>
    <path class="fil0" d="M9445.21 4035.2l-1400.04 0m1400.04 0l0 0 0 0z"/>
    <path class="fil1 str0" d="M9445.21 4035.2l-1400.04 0m1400.04 0l0 0 0 0z"/>
   </g>
   <g>
    <path class="fil0" d="M8045.17 4035.2l0 -700.02m0 700.02l0 0 0 0z"/>
    <path class="fil1 str0" d="M8045.17 4035.2l0 -700.02m0 700.02l0 0 0 0z"/>
   </g>
   <g>
    <path class="fil0" d="M9950.16 3335.18l0 -700.03m0 700.03l0 0 0 0z"/>
    <path class="fil1 str0" d="M9950.16 3335.18l0 -700.03m0 700.03l0 0 0 0z"/>
   </g>
   <g>
    <path class="fil0" d="M9950.16 2635.15l1400.05 0m-1400.05 0l0 0 0 0z"/>
    <path class="fil1 str0" d="M9950.16 2635.15l1400.05 0m-1400.05 0l0 0 0 0z"/>
   </g>
   <g>
    <path class="fil0" d="M11350.21 2635.15l0 1400.05m0 -1400.05l0 0 0 0z"/>
    <path class="fil1 str0" d="M11350.21 2635.15l0 1400.05m0 -1400.05l0 0 0 0z"/>
   </g>
   <g>
    <path class="fil0" d="M11350.21 4035.2l-1400.05 0m1400.05 0l0 0 0 0z"/>
    <path class="fil1 str0" d="M11350.21 4035.2l-1400.05 0m1400.05 0l0 0 0 0z"/>
   </g>
   <g>
    <path class="fil0" d="M9950.16 4035.2l0 -700.02m0 700.02l0 0 0 0z"/>
    <path class="fil1 str0" d="M9950.16 4035.2l0 -700.02m0 700.02l0 0 0 0z"/>
   </g>
   <g>
    <path class="fil0" d="M13760.16 3335.18l0 -700.03m0 700.03l0 0 0 0z"/>
    <path class="fil1 str0" d="M13760.16 3335.18l0 -700.03m0 700.03l0 0 0 0z"/>
   </g>
   <g>
    <path class="fil0" d="M13760.16 2635.15l1400.04 0m-1400.04 0l0 0 0 0z"/>
    <path class="fil1 str0" d="M13760.16 2635.15l1400.04 0m-1400.04 0l0 0 0 0z"/>
   </g>
   <g>
    <path class="fil0" d="M15160.2 2635.15l0 1400.05m0 -1400.05l0 0 0 0z"/>
    <path class="fil1 str0" d="M15160.2 2635.15l0 1400.05m0 -1400.05l0 0 0 0z"/>
   </g>
   <g>
    <path class="fil0" d="M15160.2 4035.2l-1400.04 0m1400.04 0l0 0 0 0z"/>
    <path class="fil1 str0" d="M15160.2 4035.2l-1400.04 0m1400.04 0l0 0 0 0z"/>
   </g>
   <g>
    <path class="fil0" d="M13760.16 4035.2l0 -700.02m0 700.02l0 0 0 0z"/>
    <path class="fil1 str0" d="M13760.16 4035.2l0 -700.02m0 700.02l0 0 0 0z"/>
   </g>
   <g>
    <path class="fil0" d="M15665.16 3335.18l0 -700.03m0 700.03l0 0 0 0z"/>
    <path class="fil1 str0" d="M15665.16 3335.18l0 -700.03m0 700.03l0 0 0 0z"/>
   </g>
   <g>
    <path class="fil0" d="M15665.16 2635.15l1400.04 0m-1400.04 0l0 0 0 0z"/>
    <path class="fil1 str0" d="M15665.16 2635.15l1400.04 0m-1400.04 0l0 0 0 0z"/>
   </g>
   <g>
    <path class="fil0" d="M17065.2 2635.15l0 1400.05m0 -1400.05l0 0 0 0z"/>
    <path class="fil1 str0" d="M17065.2 2635.15l0 1400.05m0 -1400.05l0 0 0 0z"/>
   </g>
   <g>
    <path class="fil0" d="M17065.2 4035.2l-1400.04 0m1400.04 0l0 0 0 0z"/>
    <path class="fil1 str0" d="M17065.2 4035.2l-1400.04 0m1400.04 0l0 0 0 0z"/>
   </g>
   <g>
    <path class="fil0" d="M15665.16 4035.2l0 -700.02m0 700.02l0 0 0 0z"/>
    <path class="fil1 str0" d="M15665.16 4035.2l0 -700.02m0 700.02l0 0 0 0z"/>
   </g>
   <g>
    <path class="fil0" d="M1377.68 5240.17l0 -700.02m0 700.02l0 0 0 0z"/>
    <path class="fil1 str0" d="M1377.68 5240.17l0 -700.02m0 700.02l0 0 0 0z"/>
   </g>
   <g>
    <path class="fil0" d="M1377.68 4540.15l1400.04 0m-1400.04 0l0 0 0 0z"/>
    <path class="fil1 str0" d="M1377.68 4540.15l1400.04 0m-1400.04 0l0 0 0 0z"/>
   </g>
   <g>
    <path class="fil0" d="M2777.72 4540.15l0 1400.05m0 -1400.05l0 0 0 0z"/>
    <path class="fil1 str0" d="M2777.72 4540.15l0 1400.05m0 -1400.05l0 0 0 0z"/>
   </g>
   <g>
    <path class="fil0" d="M2777.72 5940.2l-1400.04 0m1400.04 0l0 0 0 0z"/>
    <path class="fil1 str0" d="M2777.72 5940.2l-1400.04 0m1400.04 0l0 0 0 0z"/>
   </g>
   <g>
    <path class="fil0" d="M1377.68 5940.2l0 -700.03m0 700.03l0 0 0 0z"/>
    <path class="fil1 str0" d="M1377.68 5940.2l0 -700.03m0 700.03l0 0 0 0z"/>
   </g>
   <g>
    <path class="fil0" d="M7568.92 7145.17l0 -700.02m0 700.02l0 0 0 0z"/>
    <path class="fil1 str0" d="M7568.92 7145.17l0 -700.02m0 700.02l0 0 0 0z"/>
   </g>
   <g>
    <path class="fil0" d="M7568.92 6445.15l1400.04 0m-1400.04 0l0 0 0 0z"/>
    <path class="fil1 str0" d="M7568.92 6445.15l1400.04 0m-1400.04 0l0 0 0 0z"/>
   </g>
   <g>
    <path class="fil0" d="M8968.96 6445.15l0 1400.04m0 -1400.04l0 0 0 0z"/>
    <path class="fil1 str0" d="M8968.96 6445.15l0 1400.04m0 -1400.04l0 0 0 0z"/>
   </g>
   <g>
    <path class="fil0" d="M8968.96 7845.19l-1400.04 0m1400.04 0l0 0 0 0z"/>
    <path class="fil1 str0" d="M8968.96 7845.19l-1400.04 0m1400.04 0l0 0 0 0z"/>
   </g>
   <g>
    <path class="fil0" d="M7568.92 7845.19l0 -700.02m0 700.02l0 0 0 0z"/>
    <path class="fil1 str0" d="M7568.92 7845.19l0 -700.02m0 700.02l0 0 0 0z"/>
   </g>
   <g>
    <path class="fil0" d="M5187.67 5240.17l0 -700.02m0 700.02l0 0 0 0z"/>
    <path class="fil1 str0" d="M5187.67 5240.17l0 -700.02m0 700.02l0 0 0 0z"/>
   </g>
   <g>
    <path class="fil0" d="M5187.67 4540.15l1400.05 0m-1400.05 0l0 0 0 0z"/>
    <path class="fil1 str0" d="M5187.67 4540.15l1400.05 0m-1400.05 0l0 0 0 0z"/>
   </g>
   <g>
    <path class="fil0" d="M6587.72 4540.15l0 1400.05m0 -1400.05l0 0 0 0z"/>
    <path class="fil1 str0" d="M6587.72 4540.15l0 1400.05m0 -1400.05l0 0 0 0z"/>
   </g>
   <g>
    <path class="fil0" d="M6587.72 5940.2l-1400.05 0m1400.05 0l0 0 0 0z"/>
    <path class="fil1 str0" d="M6587.72 5940.2l-1400.05 0m1400.05 0l0 0 0 0z"/>
   </g>
   <g>
    <path class="fil0" d="M5187.67 5940.2l0 -700.03m0 700.03l0 0 0 0z"/>
    <path class="fil1 str0" d="M5187.67 5940.2l0 -700.03m0 700.03l0 0 0 0z"/>
   </g>
   <g>
    <path class="fil0" d="M7092.67 5240.17l0 -700.02m0 700.02l0 0 0 0z"/>
    <path class="fil1 str0" d="M7092.67 5240.17l0 -700.02m0 700.02l0 0 0 0z"/>
   </g>
   <g>
    <path class="fil0" d="M7092.67 4540.15l1400.04 0m-1400.04 0l0 0 0 0z"/>
    <path class="fil1 str0" d="M7092.67 4540.15l1400.04 0m-1400.04 0l0 0 0 0z"/>
   </g>
   <g>
    <path class="fil0" d="M8492.71 4540.15l0 1400.05m0 -1400.05l0 0 0 0z"/>
    <path class="fil1 str0" d="M8492.71 4540.15l0 1400.05m0 -1400.05l0 0 0 0z"/>
   </g>
   <g>
    <path class="fil0" d="M8492.71 5940.2l-1400.04 0m1400.04 0l0 0 0 0z"/>
    <path class="fil1 str0" d="M8492.71 5940.2l-1400.04 0m1400.04 0l0 0 0 0z"/>
   </g>
   <g>
    <path class="fil0" d="M7092.67 5940.2l0 -700.03m0 700.03l0 0 0 0z"/>
    <path class="fil1 str0" d="M7092.67 5940.2l0 -700.03m0 700.03l0 0 0 0z"/>
   </g>
   <g>
    <path class="fil0" d="M10902.66 5240.17l0 -700.02m0 700.02l0 0 0 0z"/>
    <path class="fil1 str0" d="M10902.66 5240.17l0 -700.02m0 700.02l0 0 0 0z"/>
   </g>
   <g>
    <path class="fil0" d="M10902.66 4540.15l1400.05 0m-1400.05 0l0 0 0 0z"/>
    <path class="fil1 str0" d="M10902.66 4540.15l1400.05 0m-1400.05 0l0 0 0 0z"/>
   </g>
   <g>
    <path class="fil0" d="M12302.71 4540.15l0 1400.05m0 -1400.05l0 0 0 0z"/>
    <path class="fil1 str0" d="M12302.71 4540.15l0 1400.05m0 -1400.05l0 0 0 0z"/>
   </g>
   <g>
    <path class="fil0" d="M12302.71 5940.2l-1400.05 0m1400.05 0l0 0 0 0z"/>
    <path class="fil1 str0" d="M12302.71 5940.2l-1400.05 0m1400.05 0l0 0 0 0z"/>
   </g>
   <g>
    <path class="fil0" d="M10902.66 5940.2l0 -700.03m0 700.03l0 0 0 0z"/>
    <path class="fil1 str0" d="M10902.66 5940.2l0 -700.03m0 700.03l0 0 0 0z"/>
   </g>
   <g>
    <path class="fil0" d="M12807.66 5240.17l0 -700.02m0 700.02l0 0 0 0z"/>
    <path class="fil1 str0" d="M12807.66 5240.17l0 -700.02m0 700.02l0 0 0 0z"/>
   </g>
   <g>
    <path class="fil0" d="M12807.66 4540.15l1400.05 0m-1400.05 0l0 0 0 0z"/>
    <path class="fil1 str0" d="M12807.66 4540.15l1400.05 0m-1400.05 0l0 0 0 0z"/>
   </g>
   <g>
    <path class="fil0" d="M14207.71 4540.15l0 1400.05m0 -1400.05l0 0 0 0z"/>
    <path class="fil1 str0" d="M14207.71 4540.15l0 1400.05m0 -1400.05l0 0 0 0z"/>
   </g>
   <g>
    <path class="fil0" d="M14207.71 5940.2l-1400.05 0m1400.05 0l0 0 0 0z"/>
    <path class="fil1 str0" d="M14207.71 5940.2l-1400.05 0m1400.05 0l0 0 0 0z"/>
   </g>
   <g>
    <path class="fil0" d="M12807.66 5940.2l0 -700.03m0 700.03l0 0 0 0z"/>
    <path class="fil1 str0" d="M12807.66 5940.2l0 -700.03m0 700.03l0 0 0 0z"/>
   </g>
   <g>
    <path class="fil0" d="M15188.91 5240.17l0 -700.02m0 700.02l0 0 0 0z"/>
    <path class="fil1 str0" d="M15188.91 5240.17l0 -700.02m0 700.02l0 0 0 0z"/>
   </g>
   <g>
    <path class="fil0" d="M15188.91 4540.15l1400.04 0m-1400.04 0l0 0 0 0z"/>
    <path class="fil1 str0" d="M15188.91 4540.15l1400.04 0m-1400.04 0l0 0 0 0z"/>
   </g>
   <g>
    <path class="fil0" d="M16588.95 4540.15l0 1400.05m0 -1400.05l0 0 0 0z"/>
    <path class="fil1 str0" d="M16588.95 4540.15l0 1400.05m0 -1400.05l0 0 0 0z"/>
   </g>
   <g>
    <path class="fil0" d="M16588.95 5940.2l-1400.04 0m1400.04 0l0 0 0 0z"/>
    <path class="fil1 str0" d="M16588.95 5940.2l-1400.04 0m1400.04 0l0 0 0 0z"/>
   </g>
   <g>
    <path class="fil0" d="M15188.91 5940.2l0 -700.03m0 700.03l0 0 0 0z"/>
    <path class="fil1 str0" d="M15188.91 5940.2l0 -700.03m0 700.03l0 0 0 0z"/>
   </g>
   <g>
    <path class="fil0" d="M1853.92 7145.17l0 -700.02m0 700.02l0 0 0 0z"/>
    <path class="fil1 str0" d="M1853.92 7145.17l0 -700.02m0 700.02l0 0 0 0z"/>
   </g>
   <g>
    <path class="fil0" d="M1853.92 6445.15l1400.05 0m-1400.05 0l0 0 0 0z"/>
    <path class="fil1 str0" d="M1853.92 6445.15l1400.05 0m-1400.05 0l0 0 0 0z"/>
   </g>
   <g>
    <path class="fil0" d="M3253.97 6445.15l0 1400.04m0 -1400.04l0 0 0 0z"/>
    <path class="fil1 str0" d="M3253.97 6445.15l0 1400.04m0 -1400.04l0 0 0 0z"/>
   </g>
   <g>
    <path class="fil0" d="M3253.97 7845.19l-1400.05 0m1400.05 0l0 0 0 0z"/>
    <path class="fil1 str0" d="M3253.97 7845.19l-1400.05 0m1400.05 0l0 0 0 0z"/>
   </g>
   <g>
    <path class="fil0" d="M1853.92 7845.19l0 -700.02m0 700.02l0 0 0 0z"/>
    <path class="fil1 str0" d="M1853.92 7845.19l0 -700.02m0 700.02l0 0 0 0z"/>
   </g>
   <g>
    <path class="fil0" d="M3758.92 7145.17l0 -700.02m0 700.02l0 0 0 0z"/>
    <path class="fil1 str0" d="M3758.92 7145.17l0 -700.02m0 700.02l0 0 0 0z"/>
   </g>
   <g>
    <path class="fil0" d="M3758.92 6445.15l1400.05 0m-1400.05 0l0 0 0 0z"/>
    <path class="fil1 str0" d="M3758.92 6445.15l1400.05 0m-1400.05 0l0 0 0 0z"/>
   </g>
   <g>
    <path class="fil0" d="M5158.97 6445.15l0 1400.04m0 -1400.04l0 0 0 0z"/>
    <path class="fil1 str0" d="M5158.97 6445.15l0 1400.04m0 -1400.04l0 0 0 0z"/>
   </g>
   <g>
    <path class="fil0" d="M5158.97 7845.19l-1400.05 0m1400.05 0l0 0 0 0z"/>
    <path class="fil1 str0" d="M5158.97 7845.19l-1400.05 0m1400.05 0l0 0 0 0z"/>
   </g>
   <g>
    <path class="fil0" d="M3758.92 7845.19l0 -700.02m0 700.02l0 0 0 0z"/>
    <path class="fil1 str0" d="M3758.92 7845.19l0 -700.02m0 700.02l0 0 0 0z"/>
   </g>
   <g>
    <path class="fil0" d="M5663.92 7145.17l0 -700.02m0 700.02l0 0 0 0z"/>
    <path class="fil1 str0" d="M5663.92 7145.17l0 -700.02m0 700.02l0 0 0 0z"/>
   </g>
   <g>
    <path class="fil0" d="M5663.92 6445.15l1400.05 0m-1400.05 0l0 0 0 0z"/>
    <path class="fil1 str0" d="M5663.92 6445.15l1400.05 0m-1400.05 0l0 0 0 0z"/>
   </g>
   <g>
    <path class="fil0" d="M7063.97 6445.15l0 1400.04m0 -1400.04l0 0 0 0z"/>
    <path class="fil1 str0" d="M7063.97 6445.15l0 1400.04m0 -1400.04l0 0 0 0z"/>
   </g>
   <g>
    <path class="fil0" d="M7063.97 7845.19l-1400.05 0m1400.05 0l0 0 0 0z"/>
    <path class="fil1 str0" d="M7063.97 7845.19l-1400.05 0m1400.05 0l0 0 0 0z"/>
   </g>
   <g>
    <path class="fil0" d="M5663.92 7845.19l0 -700.02m0 700.02l0 0 0 0z"/>
    <path class="fil1 str0" d="M5663.92 7845.19l0 -700.02m0 700.02l0 0 0 0z"/>
   </g>
   <g>
    <path class="fil0" d="M3282.67 5240.17l0 -700.02m0 700.02l0 0 0 0z"/>
    <path class="fil1 str0" d="M3282.67 5240.17l0 -700.02m0 700.02l0 0 0 0z"/>
   </g>
   <g>
    <path class="fil0" d="M3282.67 4540.15l1400.05 0m-1400.05 0l0 0 0 0z"/>
    <path class="fil1 str0" d="M3282.67 4540.15l1400.05 0m-1400.05 0l0 0 0 0z"/>
   </g>
   <g>
    <path class="fil0" d="M4682.72 4540.15l0 1400.05m0 -1400.05l0 0 0 0z"/>
    <path class="fil1 str0" d="M4682.72 4540.15l0 1400.05m0 -1400.05l0 0 0 0z"/>
   </g>
   <g>
    <path class="fil0" d="M4682.72 5940.2l-1400.05 0m1400.05 0l0 0 0 0z"/>
    <path class="fil1 str0" d="M4682.72 5940.2l-1400.05 0m1400.05 0l0 0 0 0z"/>
   </g>
   <g>
    <path class="fil0" d="M3282.67 5940.2l0 -700.03m0 700.03l0 0 0 0z"/>
    <path class="fil1 str0" d="M3282.67 5940.2l0 -700.03m0 700.03l0 0 0 0z"/>
   </g>
   <g>
    <path class="fil0" d="M2330.17 3335.18l0 -700.03m0 700.03l0 0 0 0z"/>
    <path class="fil1 str0" d="M2330.17 3335.18l0 -700.03m0 700.03l0 0 0 0z"/>
   </g>
   <g>
    <path class="fil0" d="M2330.17 2635.15l1400.05 0m-1400.05 0l0 0 0 0z"/>
    <path class="fil1 str0" d="M2330.17 2635.15l1400.05 0m-1400.05 0l0 0 0 0z"/>
   </g>
   <g>
    <path class="fil0" d="M3730.22 2635.15l0 1400.05m0 -1400.05l0 0 0 0z"/>
    <path class="fil1 str0" d="M3730.22 2635.15l0 1400.05m0 -1400.05l0 0 0 0z"/>
   </g>
   <g>
    <path class="fil0" d="M3730.22 4035.2l-1400.05 0m1400.05 0l0 0 0 0z"/>
    <path class="fil1 str0" d="M3730.22 4035.2l-1400.05 0m1400.05 0l0 0 0 0z"/>
   </g>
   <g>
    <path class="fil0" d="M2330.17 4035.2l0 -700.02m0 700.02l0 0 0 0z"/>
    <path class="fil1 str0" d="M2330.17 4035.2l0 -700.02m0 700.02l0 0 0 0z"/>
   </g>
   <g>
    <path class="fil0" d="M11855.16 3335.18l0 -700.03m0 700.03l0 0 0 0z"/>
    <path class="fil1 str0" d="M11855.16 3335.18l0 -700.03m0 700.03l0 0 0 0z"/>
   </g>
   <g>
    <path class="fil0" d="M11855.16 2635.15l1400.05 0m-1400.05 0l0 0 0 0z"/>
    <path class="fil1 str0" d="M11855.16 2635.15l1400.05 0m-1400.05 0l0 0 0 0z"/>
   </g>
   <g>
    <path class="fil0" d="M13255.21 2635.15l0 1400.05m0 -1400.05l0 0 0 0z"/>
    <path class="fil1 str0" d="M13255.21 2635.15l0 1400.05m0 -1400.05l0 0 0 0z"/>
   </g>
   <g>
    <path class="fil0" d="M13255.21 4035.2l-1400.05 0m1400.05 0l0 0 0 0z"/>
    <path class="fil1 str0" d="M13255.21 4035.2l-1400.05 0m1400.05 0l0 0 0 0z"/>
   </g>
   <g>
    <path class="fil0" d="M11855.16 4035.2l0 -700.02m0 700.02l0 0 0 0z"/>
    <path class="fil1 str0" d="M11855.16 4035.2l0 -700.02m0 700.02l0 0 0 0z"/>
   </g>
   <g>
    <path class="fil0" d="M8997.66 5240.17l0 -700.02m0 700.02l0 0 0 0z"/>
    <path class="fil1 str0" d="M8997.66 5240.17l0 -700.02m0 700.02l0 0 0 0z"/>
   </g>
   <g>
    <path class="fil0" d="M8997.66 4540.15l1400.05 0m-1400.05 0l0 0 0 0z"/>
    <path class="fil1 str0" d="M8997.66 4540.15l1400.05 0m-1400.05 0l0 0 0 0z"/>
   </g>
   <g>
    <path class="fil0" d="M10397.71 4540.15l0 1400.05m0 -1400.05l0 0 0 0z"/>
    <path class="fil1 str0" d="M10397.71 4540.15l0 1400.05m0 -1400.05l0 0 0 0z"/>
   </g>
   <g>
    <path class="fil0" d="M10397.71 5940.2l-1400.05 0m1400.05 0l0 0 0 0z"/>
    <path class="fil1 str0" d="M10397.71 5940.2l-1400.05 0m1400.05 0l0 0 0 0z"/>
   </g>
   <g>
    <path class="fil0" d="M8997.66 5940.2l0 -700.03m0 700.03l0 0 0 0z"/>
    <path class="fil1 str0" d="M8997.66 5940.2l0 -700.03m0 700.03l0 0 0 0z"/>
   </g>
  </g>
 </g>
 <g id="レイヤ_x0020_2">
  <metadata id="CorelCorpID_1Corel-Layer"/>
  <g id="_2447478322896">
   <g>
    <g>
     <path class="fil2" d="M15522.78 8097.8c0,-60.75 -49.25,-110 -110,-110 -60.75,0 -110,49.25 -110,110 0,60.75 49.25,110 110,110 60.75,0 110,-49.25 110,-110z"/>
     <path id="1" class="fil1 str1" d="M15522.78 8097.8c0,-60.75 -49.25,-110 -110,-110 -60.75,0 -110,49.25 -110,110 0,60.75 49.25,110 110,110 60.75,0 110,-49.25 110,-110z"/>
    </g>
    <g>
     <path class="fil2" d="M1711.54 2382.8c0,-60.75 -49.25,-110 -110,-110 -60.75,0 -110,49.25 -110,110 0,60.75 49.25,110 110,110 60.75,0 110,-49.25 110,-110z"/>
     <path id="1" class="fil1 str1" d="M1711.54 2382.8c0,-60.75 -49.25,-110 -110,-110 -60.75,0 -110,49.25 -110,110 0,60.75 49.25,110 110,110 60.75,0 110,-49.25 110,-110z"/>
    </g>
    <g>
     <path class="fil2" d="M8855.29 2382.8c0,-60.75 -49.25,-110 -110,-110 -60.75,0 -110,49.25 -110,110 0,60.75 49.25,110 110,110 60.75,0 110,-49.25 110,-110z"/>
     <path id="1" class="fil1 str1" d="M8855.29 2382.8c0,-60.75 -49.25,-110 -110,-110 -60.75,0 -110,49.25 -110,110 0,60.75 49.25,110 110,110 60.75,0 110,-49.25 110,-110z"/>
    </g>
    <g>
     <path class="fil2" d="M15522.78 2382.8c0,-60.75 -49.25,-110 -110,-110 -60.75,0 -110,49.25 -110,110 0,60.75 49.25,110 110,110 60.75,0 110,-49.25 110,-110z"/>
     <path id="1" class="fil1 str1" d="M15522.78 2382.8c0,-60.75 -49.25,-110 -110,-110 -60.75,0 -110,49.25 -110,110 0,60.75 49.25,110 110,110 60.75,0 110,-49.25 110,-110z"/>
    </g>
    <g>
     <path class="fil2" d="M2664.04 8097.8c0,-60.75 -49.25,-110 -110,-110 -60.75,0 -110,49.25 -110,110 0,60.75 49.25,110 110,110 60.75,0 110,-49.25 110,-110z"/>
     <path id="1" class="fil1 str1" d="M2664.04 8097.8c0,-60.75 -49.25,-110 -110,-110 -60.75,0 -110,49.25 -110,110 0,60.75 49.25,110 110,110 60.75,0 110,-49.25 110,-110z"/>
    </g>
    <g>
     <path class="fil2" d="M8855.29 11907.79c0,-60.75 -49.25,-110 -110,-110 -60.75,0 -110,49.25 -110,110 0,60.75 49.25,110 110,110 60.75,0 110,-49.25 110,-110z"/>
     <path id="1" class="fil1 str1" d="M8855.29 11907.79c0,-60.75 -49.25,-110 -110,-110 -60.75,0 -110,49.25 -110,110 0,60.75 49.25,110 110,110 60.75,0 110,-49.25 110,-110z"/>
    </g>
    <g>
     <path class="fil2" d="M15522.78 11907.79c0,-60.75 -49.25,-110 -110,-110 -60.75,0 -110,49.25 -110,110 0,60.75 49.25,110 110,110 60.75,0 110,-49.25 110,-110z"/>
     <path id="1" class="fil1 str1" d="M15522.78 11907.79c0,-60.75 -49.25,-110 -110,-110 -60.75,0 -110,49.25 -110,110 0,60.75 49.25,110 110,110 60.75,0 110,-49.25 110,-110z"/>
    </g>
    <g>
     <path class="fil2" d="M8379.09 8097.8c0,-60.75 -49.25,-110 -110,-110 -60.75,0 -110,49.25 -110,110 0,60.75 49.25,110 110,110 60.75,0 110,-49.25 110,-110z"/>
     <path id="1" class="fil1 str1" d="M8379.09 8097.8c0,-60.75 -49.25,-110 -110,-110 -60.75,0 -110,49.25 -110,110 0,60.75 49.25,110 110,110 60.75,0 110,-49.25 110,-110z"/>
    </g>
    <g>
     <path class="fil2" d="M3140.29 11907.79c0,-60.75 -49.25,-110 -110,-110 -60.75,0 -110,49.25 -110,110 0,60.75 49.25,110 110,110 60.75,0 110,-49.25 110,-110z"/>
     <path id="1" class="fil1 str1" d="M3140.29 11907.79c0,-60.75 -49.25,-110 -110,-110 -60.75,0 -110,49.25 -110,110 0,60.75 49.25,110 110,110 60.75,0 110,-49.25 110,-110z"/>
    </g>
   </g>
   <g>
    <g>
     <path class="fil2" d="M1046.71 11963.75c0.02,132.79 107.71,240.49 240.52,240.49m-240.52 -240.49l0 0 0 0z"/>
     <path class="fil1 str2" d="M1046.71 11963.75c0.02,132.79 107.71,240.49 240.52,240.49m-240.52 -240.49l0 0 0 0z"/>
    </g>
    <g>
     <path class="fil2" d="M17160.61 12204.26c132.81,-0.02 240.51,-107.72 240.51,-240.52m-240.51 240.52l0 0 0 0z"/>
     <path class="fil1 str2" d="M17160.61 12204.26c132.81,-0.02 240.51,-107.72 240.51,-240.52m-240.51 240.52l0 0 0 0z"/>
    </g>
    <g>
     <path class="fil2" d="M1303.25 419.47c-141.65,0 -256.53,114.88 -256.53,256.54m256.53 -256.54l0 0 0 0z"/>
     <path class="fil1 str1" d="M1303.25 419.47c-141.65,0 -256.53,114.88 -256.53,256.54m256.53 -256.54l0 0 0 0z"/>
    </g>
    <g>
     <path class="fil2" d="M804.35 4268.18c-134.38,9.36 -238.64,121.18 -238.64,255.91 0,0 0,0 0,0m238.64 -255.91l0 0 0 0z"/>
     <path class="fil1 str1" d="M804.35 4268.18c-134.38,9.36 -238.64,121.18 -238.64,255.91 0,0 0,0 0,0m238.64 -255.91l0 0 0 0z"/>
    </g>
    <g>
     <path class="fil2" d="M808.07 4266.94c134.39,-9.36 238.65,-121.18 238.65,-255.91 0,0 0,0 0,0m-238.65 255.91l0 0 0 0z"/>
     <path class="fil1 str1" d="M808.07 4266.94c134.39,-9.36 238.65,-121.18 238.65,-255.91 0,0 0,0 0,0m-238.65 255.91l0 0 0 0z"/>
    </g>
    <g>
     <path class="fil2" d="M565.7 5935.07c0.01,141.65 114.88,256.53 256.55,256.53m-256.55 -256.53l0 0 0 0z"/>
     <path class="fil1 str1" d="M565.7 5935.07c0.01,141.65 114.88,256.53 256.55,256.53m-256.55 -256.53l0 0 0 0z"/>
    </g>
    <g>
     <path class="fil2" d="M1527.72 6448.15c0.01,-141.67 -114.87,-256.55 -256.53,-256.55m256.53 256.55l0 0 0 0z"/>
     <path class="fil1 str1" d="M1527.72 6448.15c0.01,-141.67 -114.87,-256.55 -256.53,-256.55m256.53 256.55l0 0 0 0z"/>
    </g>
    <g>
     <path class="fil2" d="M1271.18 8115.66c141.67,-0.01 256.55,-114.89 256.55,-256.55m-256.55 256.55l0 0 0 0z"/>
     <path class="fil1 str1" d="M1271.18 8115.66c141.67,-0.01 256.55,-114.89 256.55,-256.55m-256.55 256.55l0 0 0 0z"/>
    </g>
    <g>
     <path class="fil2" d="M822.24 8115.66c-141.66,-0.01 -256.53,114.87 -256.53,256.53m256.53 -256.53l0 0 0 0z"/>
     <path class="fil1 str1" d="M822.24 8115.66c-141.66,-0.01 -256.53,114.87 -256.53,256.53m256.53 -256.53l0 0 0 0z"/>
    </g>
    <g>
     <path class="fil2" d="M565.7 9783.16c0.01,0 0.01,0 0.01,0 0,134.73 104.26,246.55 238.65,255.91m-238.66 -255.91l0 0 0 0z"/>
     <path class="fil1 str1" d="M565.7 9783.16c0.01,0 0.01,0 0.01,0 0,134.73 104.26,246.55 238.65,255.91m-238.66 -255.91l0 0 0 0z"/>
    </g>
    <g>
     <path class="fil2" d="M1046.71 10296.24c0.01,-0.02 0.01,-0.02 0.01,-0.02 0,-134.74 -104.26,-246.55 -238.65,-255.91m238.64 255.93l0 0 0 0z"/>
     <path class="fil1 str1" d="M1046.71 10296.24c0.01,-0.02 0.01,-0.02 0.01,-0.02 0,-134.74 -104.26,-246.55 -238.65,-255.91m238.64 255.93l0 0 0 0z"/>
    </g>
    <g>
     <path class="fil2" d="M17401.13 676.01c0,-141.66 -114.88,-256.54 -256.54,-256.54m256.54 256.54l0 0 0 0z"/>
     <path class="fil1 str1" d="M17401.13 676.01c0,-141.66 -114.88,-256.54 -256.54,-256.54m256.54 256.54l0 0 0 0z"/>
    </g>
    <g>
     <path class="fil2" d="M1046.62 4010.9l0 -3335.02m0 3335.02l0 0 0 0z"/>
     <path class="fil1 str1" d="M1046.62 4010.9l0 -3335.02m0 3335.02l0 0 0 0z"/>
    </g>
    <g>
     <path class="fil2" d="M17401.02 11963.62l0 -11287.74m0 11287.74l0 0 0 0z"/>
     <path class="fil1 str2" d="M17401.02 11963.62l0 -11287.74m0 11287.74l0 0 0 0z"/>
    </g>
    <g>
     <path class="fil2" d="M1287 12204l15873.39 0m-15873.39 0l0 0 0 0z"/>
     <path class="fil1 str2" d="M1287 12204l15873.39 0m-15873.39 0l0 0 0 0z"/>
    </g>
    <g>
     <path class="fil2" d="M1046.62 10296.12l0 1667.5m0 -1667.5l0 0 0 0z"/>
     <path class="fil1 str2" d="M1046.62 10296.12l0 1667.5m0 -1667.5l0 0 0 0z"/>
    </g>
    <g>
     <path class="fil2" d="M565.6 8372.07l0 1410.97m0 -1410.97l0 0 0 0z"/>
     <path class="fil1 str2" d="M565.6 8372.07l0 1410.97m0 -1410.97l0 0 0 0z"/>
    </g>
    <g>
     <path class="fil2" d="M1271.09 8115.53l-448.94 0m448.94 0l0 0 0 0z"/>
     <path class="fil1 str2" d="M1271.09 8115.53l-448.94 0m448.94 0l0 0 0 0z"/>
    </g>
    <g>
     <path class="fil2" d="M1527.63 6448.02l0 1410.97m0 -1410.97l0 0 0 0z"/>
     <path class="fil1 str2" d="M1527.63 6448.02l0 1410.97m0 -1410.97l0 0 0 0z"/>
    </g>
    <g>
     <path class="fil2" d="M822.15 6191.48l448.94 0m-448.94 0l0 0 0 0z"/>
     <path class="fil1 str2" d="M822.15 6191.48l448.94 0m-448.94 0l0 0 0 0z"/>
    </g>
    <g>
     <path class="fil2" d="M565.6 4523.97l0 1410.97m0 -1410.97l0 0 0 0z"/>
     <path class="fil1 str2" d="M565.6 4523.97l0 1410.97m0 -1410.97l0 0 0 0z"/>
    </g>
    <g>
     <path class="fil2" d="M17144.48 419.34l-15841.32 0m15841.32 0l0 0 0 0z"/>
     <path class="fil1 str2" d="M17144.48 419.34l-15841.32 0m15841.32 0l0 0 0 0z"/>
    </g>
   </g>
  </g>
 </g>
 <g id="レイヤ_x0020_3">
  <metadata id="CorelCorpID_2Corel-Layer"/>
  <g>
   <g>
    <g>
     <path class="fil2" d="M15522.69 19882.93c0,-60.75 -49.25,-110 -110,-110 -60.75,0 -110,49.25 -110,110 0,60.75 49.25,110 110,110 60.75,0 110,-49.25 110,-110z"/>
     <path id="1" class="fil1 str1" d="M15522.69 19882.93c0,-60.75 -49.25,-110 -110,-110 -60.75,0 -110,49.25 -110,110 0,60.75 49.25,110 110,110 60.75,0 110,-49.25 110,-110z"/>
    </g>
    <g>
     <path class="fil2" d="M1711.45 14167.93c0,-60.75 -49.25,-110 -110,-110 -60.75,0 -110,49.25 -110,110 0,60.75 49.25,110 110,110 60.75,0 110,-49.25 110,-110z"/>
     <path id="1" class="fil1 str1" d="M1711.45 14167.93c0,-60.75 -49.25,-110 -110,-110 -60.75,0 -110,49.25 -110,110 0,60.75 49.25,110 110,110 60.75,0 110,-49.25 110,-110z"/>
    </g>
    <g>
     <path class="fil2" d="M8855.2 14167.93c0,-60.75 -49.25,-110 -110,-110 -60.75,0 -110,49.25 -110,110 0,60.75 49.25,110 110,110 60.75,0 110,-49.25 110,-110z"/>
     <path id="1" class="fil1 str1" d="M8855.2 14167.93c0,-60.75 -49.25,-110 -110,-110 -60.75,0 -110,49.25 -110,110 0,60.75 49.25,110 110,110 60.75,0 110,-49.25 110,-110z"/>
    </g>
    <g>
     <path class="fil2" d="M15522.69 14167.93c0,-60.75 -49.25,-110 -110,-110 -60.75,0 -110,49.25 -110,110 0,60.75 49.25,110 110,110 60.75,0 110,-49.25 110,-110z"/>
     <path id="1" class="fil1 str1" d="M15522.69 14167.93c0,-60.75 -49.25,-110 -110,-110 -60.75,0 -110,49.25 -110,110 0,60.75 49.25,110 110,110 60.75,0 110,-49.25 110,-110z"/>
    </g>
    <g>
     <path class="fil2" d="M2663.95 19882.93c0,-60.75 -49.25,-110 -110,-110 -60.75,0 -110,49.25 -110,110 0,60.75 49.25,110 110,110 60.75,0 110,-49.25 110,-110z"/>
     <path id="1" class="fil1 str1" d="M2663.95 19882.93c0,-60.75 -49.25,-110 -110,-110 -60.75,0 -110,49.25 -110,110 0,60.75 49.25,110 110,110 60.75,0 110,-49.25 110,-110z"/>
    </g>
    <g>
     <path class="fil2" d="M8855.2 23692.92c0,-60.75 -49.25,-110 -110,-110 -60.75,0 -110,49.25 -110,110 0,60.75 49.25,110 110,110 60.75,0 110,-49.25 110,-110z"/>
     <path id="1" class="fil1 str1" d="M8855.2 23692.92c0,-60.75 -49.25,-110 -110,-110 -60.75,0 -110,49.25 -110,110 0,60.75 49.25,110 110,110 60.75,0 110,-49.25 110,-110z"/>
    </g>
    <g>
     <path class="fil2" d="M15522.69 23692.92c0,-60.75 -49.25,-110 -110,-110 -60.75,0 -110,49.25 -110,110 0,60.75 49.25,110 110,110 60.75,0 110,-49.25 110,-110z"/>
     <path id="1" class="fil1 str1" d="M15522.69 23692.92c0,-60.75 -49.25,-110 -110,-110 -60.75,0 -110,49.25 -110,110 0,60.75 49.25,110 110,110 60.75,0 110,-49.25 110,-110z"/>
    </g>
    <g>
     <path class="fil2" d="M8379 19882.93c0,-60.75 -49.25,-110 -110,-110 -60.75,0 -110,49.25 -110,110 0,60.75 49.25,110 110,110 60.75,0 110,-49.25 110,-110z"/>
     <path id="1" class="fil1 str1" d="M8379 19882.93c0,-60.75 -49.25,-110 -110,-110 -60.75,0 -110,49.25 -110,110 0,60.75 49.25,110 110,110 60.75,0 110,-49.25 110,-110z"/>
    </g>
    <g>
     <path class="fil2" d="M3140.2 23692.92c0,-60.75 -49.25,-110 -110,-110 -60.75,0 -110,49.25 -110,110 0,60.75 49.25,110 110,110 60.75,0 110,-49.25 110,-110z"/>
     <path id="1" class="fil1 str1" d="M3140.2 23692.92c0,-60.75 -49.25,-110 -110,-110 -60.75,0 -110,49.25 -110,110 0,60.75 49.25,110 110,110 60.75,0 110,-49.25 110,-110z"/>
    </g>
   </g>
   <g>
    <g>
     <path class="fil3" d="M1046.62 23748.88c0.02,132.79 107.71,240.49 240.52,240.49m-240.52 -240.49l0 0 0 0z"/>
     <path class="fil1 str2" d="M1046.62 23748.88c0.02,132.79 107.71,240.49 240.52,240.49m-240.52 -240.49l0 0 0 0z"/>
    </g>
    <g>
     <path class="fil3" d="M17160.52 23989.39c132.81,-0.02 240.51,-107.72 240.51,-240.52m-240.51 240.52l0 0 0 0z"/>
     <path class="fil1 str2" d="M17160.52 23989.39c132.81,-0.02 240.51,-107.72 240.51,-240.52m-240.51 240.52l0 0 0 0z"/>
    </g>
    <g>
     <path class="fil3" d="M1303.16 12204.6c-141.65,0 -256.53,114.88 -256.53,256.54m256.53 -256.54l0 0 0 0z"/>
     <path class="fil1 str1" d="M1303.16 12204.6c-141.65,0 -256.53,114.88 -256.53,256.54m256.53 -256.54l0 0 0 0z"/>
    </g>
    <g>
     <path class="fil3" d="M804.26 16053.31c-134.38,9.36 -238.64,121.18 -238.64,255.91 0,0 0,0 0,0m238.64 -255.91l0 0 0 0z"/>
     <path class="fil1 str1" d="M804.26 16053.31c-134.38,9.36 -238.64,121.18 -238.64,255.91 0,0 0,0 0,0m238.64 -255.91l0 0 0 0z"/>
    </g>
    <g>
     <path class="fil3" d="M807.98 16052.07c134.39,-9.36 238.65,-121.18 238.65,-255.91 0,0 0,0 0,0m-238.65 255.91l0 0 0 0z"/>
     <path class="fil1 str1" d="M807.98 16052.07c134.39,-9.36 238.65,-121.18 238.65,-255.91 0,0 0,0 0,0m-238.65 255.91l0 0 0 0z"/>
    </g>
    <g>
     <path class="fil3" d="M565.61 17720.2c0.01,141.65 114.88,256.53 256.55,256.53m-256.55 -256.53l0 0 0 0z"/>
     <path class="fil1 str1" d="M565.61 17720.2c0.01,141.65 114.88,256.53 256.55,256.53m-256.55 -256.53l0 0 0 0z"/>
    </g>
    <g>
     <path class="fil3" d="M1527.63 18233.28c0.01,-141.67 -114.87,-256.55 -256.53,-256.55m256.53 256.55l0 0 0 0z"/>
     <path class="fil1 str1" d="M1527.63 18233.28c0.01,-141.67 -114.87,-256.55 -256.53,-256.55m256.53 256.55l0 0 0 0z"/>
    </g>
    <g>
     <path class="fil3" d="M1271.09 19900.79c141.67,-0.01 256.55,-114.89 256.55,-256.55m-256.55 256.55l0 0 0 0z"/>
     <path class="fil1 str1" d="M1271.09 19900.79c141.67,-0.01 256.55,-114.89 256.55,-256.55m-256.55 256.55l0 0 0 0z"/>
    </g>
    <g>
     <path class="fil3" d="M822.15 19900.79c-141.66,-0.01 -256.53,114.87 -256.53,256.53m256.53 -256.53l0 0 0 0z"/>
     <path class="fil1 str1" d="M822.15 19900.79c-141.66,-0.01 -256.53,114.87 -256.53,256.53m256.53 -256.53l0 0 0 0z"/>
    </g>
    <g>
     <path class="fil3" d="M565.61 21568.29c0.01,0 0.01,0 0.01,0 0,134.73 104.26,246.55 238.65,255.91m-238.66 -255.91l0 0 0 0z"/>
     <path class="fil1 str1" d="M565.61 21568.29c0.01,0 0.01,0 0.01,0 0,134.73 104.26,246.55 238.65,255.91m-238.66 -255.91l0 0 0 0z"/>
    </g>
    <g>
     <path class="fil3" d="M1046.62 22081.37c0.01,-0.02 0.01,-0.02 0.01,-0.02 0,-134.74 -104.26,-246.55 -238.65,-255.91m238.64 255.93l0 0 0 0z"/>
     <path class="fil1 str1" d="M1046.62 22081.37c0.01,-0.02 0.01,-0.02 0.01,-0.02 0,-134.74 -104.26,-246.55 -238.65,-255.91m238.64 255.93l0 0 0 0z"/>
    </g>
    <g>
     <path class="fil3" d="M17401.04 12461.14c0,-141.66 -114.88,-256.54 -256.54,-256.54m256.54 256.54l0 0 0 0z"/>
     <path class="fil1 str1" d="M17401.04 12461.14c0,-141.66 -114.88,-256.54 -256.54,-256.54m256.54 256.54l0 0 0 0z"/>
    </g>
    <g>
     <path class="fil3" d="M1046.53 15796.03l0 -3335.02m0 3335.02l0 0 0 0z"/>
     <path class="fil1 str1" d="M1046.53 15796.03l0 -3335.02m0 3335.02l0 0 0 0z"/>
    </g>
    <g>
     <path class="fil3" d="M17400.93 23748.75l0 -11287.74m0 11287.74l0 0 0 0z"/>
     <path class="fil1 str2" d="M17400.93 23748.75l0 -11287.74m0 11287.74l0 0 0 0z"/>
    </g>
    <g>
     <path class="fil3" d="M1286.91 23989.13l15873.39 0m-15873.39 0l0 0 0 0z"/>
     <path class="fil1 str2" d="M1286.91 23989.13l15873.39 0m-15873.39 0l0 0 0 0z"/>
    </g>
    <g>
     <path class="fil3" d="M1046.53 22081.25l0 1667.5m0 -1667.5l0 0 0 0z"/>
     <path class="fil1 str2" d="M1046.53 22081.25l0 1667.5m0 -1667.5l0 0 0 0z"/>
    </g>
    <g>
     <path class="fil3" d="M565.51 20157.2l0 1410.97m0 -1410.97l0 0 0 0z"/>
     <path class="fil1 str2" d="M565.51 20157.2l0 1410.97m0 -1410.97l0 0 0 0z"/>
    </g>
    <g>
     <path class="fil3" d="M1271 19900.66l-448.94 0m448.94 0l0 0 0 0z"/>
     <path class="fil1 str2" d="M1271 19900.66l-448.94 0m448.94 0l0 0 0 0z"/>
    </g>
    <g>
     <path class="fil3" d="M1527.54 18233.15l0 1410.97m0 -1410.97l0 0 0 0z"/>
     <path class="fil1 str2" d="M1527.54 18233.15l0 1410.97m0 -1410.97l0 0 0 0z"/>
    </g>
    <g>
     <path class="fil3" d="M822.06 17976.61l448.94 0m-448.94 0l0 0 0 0z"/>
     <path class="fil1 str2" d="M822.06 17976.61l448.94 0m-448.94 0l0 0 0 0z"/>
    </g>
    <g>
     <path class="fil3" d="M565.51 16309.1l0 1410.97m0 -1410.97l0 0 0 0z"/>
     <path class="fil1 str2" d="M565.51 16309.1l0 1410.97m0 -1410.97l0 0 0 0z"/>
    </g>
    <g>
     <path class="fil3" d="M17144.39 12204.47l-15841.32 0m15841.32 0l0 0 0 0z"/>
     <path class="fil1 str2" d="M17144.39 12204.47l-15841.32 0m15841.32 0l0 0 0 0z"/>
    </g>
   </g>
  </g>
 </g>
 <g id="レイヤ_x0020_4">
  <metadata id="CorelCorpID_3Corel-Layer"/>
  <g>
   <g>
    <path class="fil0" d="M18915.73 9049.14l0 -700.02m0 700.02l0 0 0 0z"/>
    <path class="fil1 str0" d="M18915.73 9049.14l0 -700.02m0 700.02l0 0 0 0z"/>
   </g>
   <g>
    <path class="fil0" d="M18915.73 8349.12l1400.05 0m-1400.05 0l0 0 0 0z"/>
    <path class="fil1 str0" d="M18915.73 8349.12l1400.05 0m-1400.05 0l0 0 0 0z"/>
   </g>
   <g>
    <path class="fil0" d="M20315.78 8349.12l0 1400.05m0 -1400.05l0 0 0 0z"/>
    <path class="fil1 str0" d="M20315.78 8349.12l0 1400.05m0 -1400.05l0 0 0 0z"/>
   </g>
   <g>
    <path class="fil0" d="M20315.78 9749.17l-1400.05 0m1400.05 0l0 0 0 0z"/>
    <path class="fil1 str0" d="M20315.78 9749.17l-1400.05 0m1400.05 0l0 0 0 0z"/>
   </g>
   <g>
    <path class="fil0" d="M18915.73 9749.17l0 -700.03m0 700.03l0 0 0 0z"/>
    <path class="fil1 str0" d="M18915.73 9749.17l0 -700.03m0 700.03l0 0 0 0z"/>
   </g>
   <g>
    <path class="fil0" d="M22011.23 9049.14l0 -700.02m0 700.02l0 0 0 0z"/>
    <path class="fil1 str0" d="M22011.23 9049.14l0 -700.02m0 700.02l0 0 0 0z"/>
   </g>
   <g>
    <path class="fil0" d="M22011.23 8349.12l1400.04 0m-1400.04 0l0 0 0 0z"/>
    <path class="fil1 str0" d="M22011.23 8349.12l1400.04 0m-1400.04 0l0 0 0 0z"/>
   </g>
   <g>
    <path class="fil0" d="M23411.27 8349.12l0 1400.05m0 -1400.05l0 0 0 0z"/>
    <path class="fil1 str0" d="M23411.27 8349.12l0 1400.05m0 -1400.05l0 0 0 0z"/>
   </g>
   <g>
    <path class="fil0" d="M23411.27 9749.17l-1400.04 0m1400.04 0l0 0 0 0z"/>
    <path class="fil1 str0" d="M23411.27 9749.17l-1400.04 0m1400.04 0l0 0 0 0z"/>
   </g>
   <g>
    <path class="fil0" d="M22011.23 9749.17l0 -700.03m0 700.03l0 0 0 0z"/>
    <path class="fil1 str0" d="M22011.23 9749.17l0 -700.03m0 700.03l0 0 0 0z"/>
   </g>
   <g>
    <path class="fil0" d="M25821.23 9049.14l0 -700.02m0 700.02l0 0 0 0z"/>
    <path class="fil1 str0" d="M25821.23 9049.14l0 -700.02m0 700.02l0 0 0 0z"/>
   </g>
   <g>
    <path class="fil0" d="M25821.23 8349.12l1400.04 0m-1400.04 0l0 0 0 0z"/>
    <path class="fil1 str0" d="M25821.23 8349.12l1400.04 0m-1400.04 0l0 0 0 0z"/>
   </g>
   <g>
    <path class="fil0" d="M27221.27 8349.12l0 1400.05m0 -1400.05l0 0 0 0z"/>
    <path class="fil1 str0" d="M27221.27 8349.12l0 1400.05m0 -1400.05l0 0 0 0z"/>
   </g>
   <g>
    <path class="fil0" d="M27221.27 9749.17l-1400.04 0m1400.04 0l0 0 0 0z"/>
    <path class="fil1 str0" d="M27221.27 9749.17l-1400.04 0m1400.04 0l0 0 0 0z"/>
   </g>
   <g>
    <path class="fil0" d="M25821.23 9749.17l0 -700.03m0 700.03l0 0 0 0z"/>
    <path class="fil1 str0" d="M25821.23 9749.17l0 -700.03m0 700.03l0 0 0 0z"/>
   </g>
   <g>
    <path class="fil0" d="M27726.23 9049.14l0 -700.02m0 700.02l0 0 0 0z"/>
    <path class="fil1 str0" d="M27726.23 9049.14l0 -700.02m0 700.02l0 0 0 0z"/>
   </g>
   <g>
    <path class="fil0" d="M27726.23 8349.12l1400.04 0m-1400.04 0l0 0 0 0z"/>
    <path class="fil1 str0" d="M27726.23 8349.12l1400.04 0m-1400.04 0l0 0 0 0z"/>
   </g>
   <g>
    <path class="fil0" d="M29126.27 8349.12l0 1400.05m0 -1400.05l0 0 0 0z"/>
    <path class="fil1 str0" d="M29126.27 8349.12l0 1400.05m0 -1400.05l0 0 0 0z"/>
   </g>
   <g>
    <path class="fil0" d="M29126.27 9749.17l-1400.04 0m1400.04 0l0 0 0 0z"/>
    <path class="fil1 str0" d="M29126.27 9749.17l-1400.04 0m1400.04 0l0 0 0 0z"/>
   </g>
   <g>
    <path class="fil0" d="M27726.23 9749.17l0 -700.03m0 700.03l0 0 0 0z"/>
    <path class="fil1 str0" d="M27726.23 9749.17l0 -700.03m0 700.03l0 0 0 0z"/>
   </g>
   <g>
    <path class="fil0" d="M29631.23 9049.14l0 -700.02m0 700.02l0 0 0 0z"/>
    <path class="fil1 str0" d="M29631.23 9049.14l0 -700.02m0 700.02l0 0 0 0z"/>
   </g>
   <g>
    <path class="fil0" d="M29631.23 8349.12l1400.04 0m-1400.04 0l0 0 0 0z"/>
    <path class="fil1 str0" d="M29631.23 8349.12l1400.04 0m-1400.04 0l0 0 0 0z"/>
   </g>
   <g>
    <path class="fil0" d="M31031.27 8349.12l0 1400.05m0 -1400.05l0 0 0 0z"/>
    <path class="fil1 str0" d="M31031.27 8349.12l0 1400.05m0 -1400.05l0 0 0 0z"/>
   </g>
   <g>
    <path class="fil0" d="M31031.27 9749.17l-1400.04 0m1400.04 0l0 0 0 0z"/>
    <path class="fil1 str0" d="M31031.27 9749.17l-1400.04 0m1400.04 0l0 0 0 0z"/>
   </g>
   <g>
    <path class="fil0" d="M29631.23 9749.17l0 -700.03m0 700.03l0 0 0 0z"/>
    <path class="fil1 str0" d="M29631.23 9749.17l0 -700.03m0 700.03l0 0 0 0z"/>
   </g>
   <g>
    <path class="fil0" d="M18201.23 10954.14l0 -700.02m0 700.02l0 0 0 0z"/>
    <path class="fil1 str0" d="M18201.23 10954.14l0 -700.02m0 700.02l0 0 0 0z"/>
   </g>
   <g>
    <path class="fil0" d="M18201.23 10254.12l1400.04 0m-1400.04 0l0 0 0 0z"/>
    <path class="fil1 str0" d="M18201.23 10254.12l1400.04 0m-1400.04 0l0 0 0 0z"/>
   </g>
   <g>
    <path class="fil0" d="M19601.27 10254.12l0 1400.05m0 -1400.05l0 0 0 0z"/>
    <path class="fil1 str0" d="M19601.27 10254.12l0 1400.05m0 -1400.05l0 0 0 0z"/>
   </g>
   <g>
    <path class="fil0" d="M19601.27 11654.17l-1400.04 0m1400.04 0l0 0 0 0z"/>
    <path class="fil1 str0" d="M19601.27 11654.17l-1400.04 0m1400.04 0l0 0 0 0z"/>
   </g>
   <g>
    <path class="fil0" d="M18201.23 11654.17l0 -700.03m0 700.03l0 0 0 0z"/>
    <path class="fil1 str0" d="M18201.23 11654.17l0 -700.03m0 700.03l0 0 0 0z"/>
   </g>
   <g>
    <path class="fil0" d="M20582.48 10954.14l0 -700.02m0 700.02l0 0 0 0z"/>
    <path class="fil1 str0" d="M20582.48 10954.14l0 -700.02m0 700.02l0 0 0 0z"/>
   </g>
   <g>
    <path class="fil0" d="M20582.48 10254.12l1400.04 0m-1400.04 0l0 0 0 0z"/>
    <path class="fil1 str0" d="M20582.48 10254.12l1400.04 0m-1400.04 0l0 0 0 0z"/>
   </g>
   <g>
    <path class="fil0" d="M21982.52 10254.12l0 1400.05m0 -1400.05l0 0 0 0z"/>
    <path class="fil1 str0" d="M21982.52 10254.12l0 1400.05m0 -1400.05l0 0 0 0z"/>
   </g>
   <g>
    <path class="fil0" d="M21982.52 11654.17l-1400.04 0m1400.04 0l0 0 0 0z"/>
    <path class="fil1 str0" d="M21982.52 11654.17l-1400.04 0m1400.04 0l0 0 0 0z"/>
   </g>
   <g>
    <path class="fil0" d="M20582.48 11654.17l0 -700.03m0 700.03l0 0 0 0z"/>
    <path class="fil1 str0" d="M20582.48 11654.17l0 -700.03m0 700.03l0 0 0 0z"/>
   </g>
   <g>
    <path class="fil0" d="M24392.48 10954.14l0 -700.02m0 700.02l0 0 0 0z"/>
    <path class="fil1 str0" d="M24392.48 10954.14l0 -700.02m0 700.02l0 0 0 0z"/>
   </g>
   <g>
    <path class="fil0" d="M24392.48 10254.12l1400.04 0m-1400.04 0l0 0 0 0z"/>
    <path class="fil1 str0" d="M24392.48 10254.12l1400.04 0m-1400.04 0l0 0 0 0z"/>
   </g>
   <g>
    <path class="fil0" d="M25792.52 10254.12l0 1400.05m0 -1400.05l0 0 0 0z"/>
    <path class="fil1 str0" d="M25792.52 10254.12l0 1400.05m0 -1400.05l0 0 0 0z"/>
   </g>
   <g>
    <path class="fil0" d="M25792.52 11654.17l-1400.04 0m1400.04 0l0 0 0 0z"/>
    <path class="fil1 str0" d="M25792.52 11654.17l-1400.04 0m1400.04 0l0 0 0 0z"/>
   </g>
   <g>
    <path class="fil0" d="M24392.48 11654.17l0 -700.03m0 700.03l0 0 0 0z"/>
    <path class="fil1 str0" d="M24392.48 11654.17l0 -700.03m0 700.03l0 0 0 0z"/>
   </g>
   <g>
    <path class="fil0" d="M26297.48 10954.14l0 -700.02m0 700.02l0 0 0 0z"/>
    <path class="fil1 str0" d="M26297.48 10954.14l0 -700.02m0 700.02l0 0 0 0z"/>
   </g>
   <g>
    <path class="fil0" d="M26297.48 10254.12l1400.04 0m-1400.04 0l0 0 0 0z"/>
    <path class="fil1 str0" d="M26297.48 10254.12l1400.04 0m-1400.04 0l0 0 0 0z"/>
   </g>
   <g>
    <path class="fil0" d="M27697.52 10254.12l0 1400.05m0 -1400.05l0 0 0 0z"/>
    <path class="fil1 str0" d="M27697.52 10254.12l0 1400.05m0 -1400.05l0 0 0 0z"/>
   </g>
   <g>
    <path class="fil0" d="M27697.52 11654.17l-1400.04 0m1400.04 0l0 0 0 0z"/>
    <path class="fil1 str0" d="M27697.52 11654.17l-1400.04 0m1400.04 0l0 0 0 0z"/>
   </g>
   <g>
    <path class="fil0" d="M26297.48 11654.17l0 -700.03m0 700.03l0 0 0 0z"/>
    <path class="fil1 str0" d="M26297.48 11654.17l0 -700.03m0 700.03l0 0 0 0z"/>
   </g>
   <g>
    <path class="fil0" d="M28202.48 10954.14l0 -700.02m0 700.02l0 0 0 0z"/>
    <path class="fil1 str0" d="M28202.48 10954.14l0 -700.02m0 700.02l0 0 0 0z"/>
   </g>
   <g>
    <path class="fil0" d="M28202.48 10254.12l1400.04 0m-1400.04 0l0 0 0 0z"/>
    <path class="fil1 str0" d="M28202.48 10254.12l1400.04 0m-1400.04 0l0 0 0 0z"/>
   </g>
   <g>
    <path class="fil0" d="M29602.52 10254.12l0 1400.05m0 -1400.05l0 0 0 0z"/>
    <path class="fil1 str0" d="M29602.52 10254.12l0 1400.05m0 -1400.05l0 0 0 0z"/>
   </g>
   <g>
    <path class="fil0" d="M29602.52 11654.17l-1400.04 0m1400.04 0l0 0 0 0z"/>
    <path class="fil1 str0" d="M29602.52 11654.17l-1400.04 0m1400.04 0l0 0 0 0z"/>
   </g>
   <g>
    <path class="fil0" d="M28202.48 11654.17l0 -700.03m0 700.03l0 0 0 0z"/>
    <path class="fil1 str0" d="M28202.48 11654.17l0 -700.03m0 700.03l0 0 0 0z"/>
   </g>
   <g>
    <path class="fil0" d="M28678.98 7144.14l0 -700.02m0 700.02l0 0 0 0z"/>
    <path class="fil1 str0" d="M28678.98 7144.14l0 -700.02m0 700.02l0 0 0 0z"/>
   </g>
   <g>
    <path class="fil0" d="M28678.98 6444.12l1400.05 0m-1400.05 0l0 0 0 0z"/>
    <path class="fil1 str0" d="M28678.98 6444.12l1400.05 0m-1400.05 0l0 0 0 0z"/>
   </g>
   <g>
    <path class="fil0" d="M30079.03 6444.12l0 1400.05m0 -1400.05l0 0 0 0z"/>
    <path class="fil1 str0" d="M30079.03 6444.12l0 1400.05m0 -1400.05l0 0 0 0z"/>
   </g>
   <g>
    <path class="fil0" d="M30079.03 7844.17l-1400.05 0m1400.05 0l0 0 0 0z"/>
    <path class="fil1 str0" d="M30079.03 7844.17l-1400.05 0m1400.05 0l0 0 0 0z"/>
   </g>
   <g>
    <path class="fil0" d="M28678.98 7844.17l0 -700.03m0 700.03l0 0 0 0z"/>
    <path class="fil1 str0" d="M28678.98 7844.17l0 -700.03m0 700.03l0 0 0 0z"/>
   </g>
   <g>
    <path class="fil0" d="M23916.23 9049.14l0 -700.02m0 700.02l0 0 0 0z"/>
    <path class="fil1 str0" d="M23916.23 9049.14l0 -700.02m0 700.02l0 0 0 0z"/>
   </g>
   <g>
    <path class="fil0" d="M23916.23 8349.12l1400.04 0m-1400.04 0l0 0 0 0z"/>
    <path class="fil1 str0" d="M23916.23 8349.12l1400.04 0m-1400.04 0l0 0 0 0z"/>
   </g>
   <g>
    <path class="fil0" d="M25316.27 8349.12l0 1400.05m0 -1400.05l0 0 0 0z"/>
    <path class="fil1 str0" d="M25316.27 8349.12l0 1400.05m0 -1400.05l0 0 0 0z"/>
   </g>
   <g>
    <path class="fil0" d="M25316.27 9749.17l-1400.04 0m1400.04 0l0 0 0 0z"/>
    <path class="fil1 str0" d="M25316.27 9749.17l-1400.04 0m1400.04 0l0 0 0 0z"/>
   </g>
   <g>
    <path class="fil0" d="M23916.23 9749.17l0 -700.03m0 700.03l0 0 0 0z"/>
    <path class="fil1 str0" d="M23916.23 9749.17l0 -700.03m0 700.03l0 0 0 0z"/>
   </g>
   <g>
    <path class="fil0" d="M19629.98 3334.14l0 -700.02m0 700.02l0 0 0 0z"/>
    <path class="fil1 str0" d="M19629.98 3334.14l0 -700.02m0 700.02l0 0 0 0z"/>
   </g>
   <g>
    <path class="fil0" d="M19629.98 2634.12l1400.04 0m-1400.04 0l0 0 0 0z"/>
    <path class="fil1 str0" d="M19629.98 2634.12l1400.04 0m-1400.04 0l0 0 0 0z"/>
   </g>
   <g>
    <path class="fil0" d="M21030.02 2634.12l0 1400.05m0 -1400.05l0 0 0 0z"/>
    <path class="fil1 str0" d="M21030.02 2634.12l0 1400.05m0 -1400.05l0 0 0 0z"/>
   </g>
   <g>
    <path class="fil0" d="M21030.02 4034.17l-1400.04 0m1400.04 0l0 0 0 0z"/>
    <path class="fil1 str0" d="M21030.02 4034.17l-1400.04 0m1400.04 0l0 0 0 0z"/>
   </g>
   <g>
    <path class="fil0" d="M19629.98 4034.17l0 -700.03m0 700.03l0 0 0 0z"/>
    <path class="fil1 str0" d="M19629.98 4034.17l0 -700.03m0 700.03l0 0 0 0z"/>
   </g>
   <g>
    <path class="fil0" d="M26297.48 5239.14l0 -700.02m0 700.02l0 0 0 0z"/>
    <path class="fil1 str0" d="M26297.48 5239.14l0 -700.02m0 700.02l0 0 0 0z"/>
   </g>
   <g>
    <path class="fil0" d="M26297.48 4539.12l1400.04 0m-1400.04 0l0 0 0 0z"/>
    <path class="fil1 str0" d="M26297.48 4539.12l1400.04 0m-1400.04 0l0 0 0 0z"/>
   </g>
   <g>
    <path class="fil0" d="M27697.52 4539.12l0 1400.05m0 -1400.05l0 0 0 0z"/>
    <path class="fil1 str0" d="M27697.52 4539.12l0 1400.05m0 -1400.05l0 0 0 0z"/>
   </g>
   <g>
    <path class="fil0" d="M27697.52 5939.17l-1400.04 0m1400.04 0l0 0 0 0z"/>
    <path class="fil1 str0" d="M27697.52 5939.17l-1400.04 0m1400.04 0l0 0 0 0z"/>
   </g>
   <g>
    <path class="fil0" d="M26297.48 5939.17l0 -700.03m0 700.03l0 0 0 0z"/>
    <path class="fil1 str0" d="M26297.48 5939.17l0 -700.03m0 700.03l0 0 0 0z"/>
   </g>
   <g>
    <path class="fil0" d="M22487.48 10954.14l0 -700.02m0 700.02l0 0 0 0z"/>
    <path class="fil1 str0" d="M22487.48 10954.14l0 -700.02m0 700.02l0 0 0 0z"/>
   </g>
   <g>
    <path class="fil0" d="M22487.48 10254.12l1400.04 0m-1400.04 0l0 0 0 0z"/>
    <path class="fil1 str0" d="M22487.48 10254.12l1400.04 0m-1400.04 0l0 0 0 0z"/>
   </g>
   <g>
    <path class="fil0" d="M23887.52 10254.12l0 1400.05m0 -1400.05l0 0 0 0z"/>
    <path class="fil1 str0" d="M23887.52 10254.12l0 1400.05m0 -1400.05l0 0 0 0z"/>
   </g>
   <g>
    <path class="fil0" d="M23887.52 11654.17l-1400.04 0m1400.04 0l0 0 0 0z"/>
    <path class="fil1 str0" d="M23887.52 11654.17l-1400.04 0m1400.04 0l0 0 0 0z"/>
   </g>
   <g>
    <path class="fil0" d="M22487.48 11654.17l0 -700.03m0 700.03l0 0 0 0z"/>
    <path class="fil1 str0" d="M22487.48 11654.17l0 -700.03m0 700.03l0 0 0 0z"/>
   </g>
   <g>
    <path class="fil0" d="M21534.98 3334.14l0 -700.02m0 700.02l0 0 0 0z"/>
    <path class="fil1 str0" d="M21534.98 3334.14l0 -700.02m0 700.02l0 0 0 0z"/>
   </g>
   <g>
    <path class="fil0" d="M21534.98 2634.12l1400.04 0m-1400.04 0l0 0 0 0z"/>
    <path class="fil1 str0" d="M21534.98 2634.12l1400.04 0m-1400.04 0l0 0 0 0z"/>
   </g>
   <g>
    <path class="fil0" d="M22935.02 2634.12l0 1400.05m0 -1400.05l0 0 0 0z"/>
    <path class="fil1 str0" d="M22935.02 2634.12l0 1400.05m0 -1400.05l0 0 0 0z"/>
   </g>
   <g>
    <path class="fil0" d="M22935.02 4034.17l-1400.04 0m1400.04 0l0 0 0 0z"/>
    <path class="fil1 str0" d="M22935.02 4034.17l-1400.04 0m1400.04 0l0 0 0 0z"/>
   </g>
   <g>
    <path class="fil0" d="M21534.98 4034.17l0 -700.03m0 700.03l0 0 0 0z"/>
    <path class="fil1 str0" d="M21534.98 4034.17l0 -700.03m0 700.03l0 0 0 0z"/>
   </g>
   <g>
    <path class="fil0" d="M23439.98 3334.14l0 -700.02m0 700.02l0 0 0 0z"/>
    <path class="fil1 str0" d="M23439.98 3334.14l0 -700.02m0 700.02l0 0 0 0z"/>
   </g>
   <g>
    <path class="fil0" d="M23439.98 2634.12l1400.04 0m-1400.04 0l0 0 0 0z"/>
    <path class="fil1 str0" d="M23439.98 2634.12l1400.04 0m-1400.04 0l0 0 0 0z"/>
   </g>
   <g>
    <path class="fil0" d="M24840.02 2634.12l0 1400.05m0 -1400.05l0 0 0 0z"/>
    <path class="fil1 str0" d="M24840.02 2634.12l0 1400.05m0 -1400.05l0 0 0 0z"/>
   </g>
   <g>
    <path class="fil0" d="M24840.02 4034.17l-1400.04 0m1400.04 0l0 0 0 0z"/>
    <path class="fil1 str0" d="M24840.02 4034.17l-1400.04 0m1400.04 0l0 0 0 0z"/>
   </g>
   <g>
    <path class="fil0" d="M23439.98 4034.17l0 -700.03m0 700.03l0 0 0 0z"/>
    <path class="fil1 str0" d="M23439.98 4034.17l0 -700.03m0 700.03l0 0 0 0z"/>
   </g>
   <g>
    <path class="fil0" d="M25344.98 3334.14l0 -700.02m0 700.02l0 0 0 0z"/>
    <path class="fil1 str0" d="M25344.98 3334.14l0 -700.02m0 700.02l0 0 0 0z"/>
   </g>
   <g>
    <path class="fil0" d="M25344.98 2634.12l1400.04 0m-1400.04 0l0 0 0 0z"/>
    <path class="fil1 str0" d="M25344.98 2634.12l1400.04 0m-1400.04 0l0 0 0 0z"/>
   </g>
   <g>
    <path class="fil0" d="M26745.02 2634.12l0 1400.05m0 -1400.05l0 0 0 0z"/>
    <path class="fil1 str0" d="M26745.02 2634.12l0 1400.05m0 -1400.05l0 0 0 0z"/>
   </g>
   <g>
    <path class="fil0" d="M26745.02 4034.17l-1400.04 0m1400.04 0l0 0 0 0z"/>
    <path class="fil1 str0" d="M26745.02 4034.17l-1400.04 0m1400.04 0l0 0 0 0z"/>
   </g>
   <g>
    <path class="fil0" d="M25344.98 4034.17l0 -700.03m0 700.03l0 0 0 0z"/>
    <path class="fil1 str0" d="M25344.98 4034.17l0 -700.03m0 700.03l0 0 0 0z"/>
   </g>
   <g>
    <path class="fil0" d="M29154.98 3334.14l0 -700.02m0 700.02l0 0 0 0z"/>
    <path class="fil1 str0" d="M29154.98 3334.14l0 -700.02m0 700.02l0 0 0 0z"/>
   </g>
   <g>
    <path class="fil0" d="M29154.98 2634.12l1400.04 0m-1400.04 0l0 0 0 0z"/>
    <path class="fil1 str0" d="M29154.98 2634.12l1400.04 0m-1400.04 0l0 0 0 0z"/>
   </g>
   <g>
    <path class="fil0" d="M30555.02 2634.12l0 1400.05m0 -1400.05l0 0 0 0z"/>
    <path class="fil1 str0" d="M30555.02 2634.12l0 1400.05m0 -1400.05l0 0 0 0z"/>
   </g>
   <g>
    <path class="fil0" d="M30555.02 4034.17l-1400.04 0m1400.04 0l0 0 0 0z"/>
    <path class="fil1 str0" d="M30555.02 4034.17l-1400.04 0m1400.04 0l0 0 0 0z"/>
   </g>
   <g>
    <path class="fil0" d="M29154.98 4034.17l0 -700.03m0 700.03l0 0 0 0z"/>
    <path class="fil1 str0" d="M29154.98 4034.17l0 -700.03m0 700.03l0 0 0 0z"/>
   </g>
   <g>
    <path class="fil0" d="M18201.23 5239.14l0 -700.02m0 700.02l0 0 0 0z"/>
    <path class="fil1 str0" d="M18201.23 5239.14l0 -700.02m0 700.02l0 0 0 0z"/>
   </g>
   <g>
    <path class="fil0" d="M18201.23 4539.12l1400.04 0m-1400.04 0l0 0 0 0z"/>
    <path class="fil1 str0" d="M18201.23 4539.12l1400.04 0m-1400.04 0l0 0 0 0z"/>
   </g>
   <g>
    <path class="fil0" d="M19601.27 4539.12l0 1400.05m0 -1400.05l0 0 0 0z"/>
    <path class="fil1 str0" d="M19601.27 4539.12l0 1400.05m0 -1400.05l0 0 0 0z"/>
   </g>
   <g>
    <path class="fil0" d="M19601.27 5939.17l-1400.04 0m1400.04 0l0 0 0 0z"/>
    <path class="fil1 str0" d="M19601.27 5939.17l-1400.04 0m1400.04 0l0 0 0 0z"/>
   </g>
   <g>
    <path class="fil0" d="M18201.23 5939.17l0 -700.03m0 700.03l0 0 0 0z"/>
    <path class="fil1 str0" d="M18201.23 5939.17l0 -700.03m0 700.03l0 0 0 0z"/>
   </g>
   <g>
    <path class="fil0" d="M24868.98 7144.14l0 -700.02m0 700.02l0 0 0 0z"/>
    <path class="fil1 str0" d="M24868.98 7144.14l0 -700.02m0 700.02l0 0 0 0z"/>
   </g>
   <g>
    <path class="fil0" d="M24868.98 6444.12l1400.05 0m-1400.05 0l0 0 0 0z"/>
    <path class="fil1 str0" d="M24868.98 6444.12l1400.05 0m-1400.05 0l0 0 0 0z"/>
   </g>
   <g>
    <path class="fil0" d="M26269.03 6444.12l0 1400.05m0 -1400.05l0 0 0 0z"/>
    <path class="fil1 str0" d="M26269.03 6444.12l0 1400.05m0 -1400.05l0 0 0 0z"/>
   </g>
   <g>
    <path class="fil0" d="M26269.03 7844.17l-1400.05 0m1400.05 0l0 0 0 0z"/>
    <path class="fil1 str0" d="M26269.03 7844.17l-1400.05 0m1400.05 0l0 0 0 0z"/>
   </g>
   <g>
    <path class="fil0" d="M24868.98 7844.17l0 -700.03m0 700.03l0 0 0 0z"/>
    <path class="fil1 str0" d="M24868.98 7844.17l0 -700.03m0 700.03l0 0 0 0z"/>
   </g>
   <g>
    <path class="fil0" d="M22487.48 5239.14l0 -700.02m0 700.02l0 0 0 0z"/>
    <path class="fil1 str0" d="M22487.48 5239.14l0 -700.02m0 700.02l0 0 0 0z"/>
   </g>
   <g>
    <path class="fil0" d="M22487.48 4539.12l1400.04 0m-1400.04 0l0 0 0 0z"/>
    <path class="fil1 str0" d="M22487.48 4539.12l1400.04 0m-1400.04 0l0 0 0 0z"/>
   </g>
   <g>
    <path class="fil0" d="M23887.52 4539.12l0 1400.05m0 -1400.05l0 0 0 0z"/>
    <path class="fil1 str0" d="M23887.52 4539.12l0 1400.05m0 -1400.05l0 0 0 0z"/>
   </g>
   <g>
    <path class="fil0" d="M23887.52 5939.17l-1400.04 0m1400.04 0l0 0 0 0z"/>
    <path class="fil1 str0" d="M23887.52 5939.17l-1400.04 0m1400.04 0l0 0 0 0z"/>
   </g>
   <g>
    <path class="fil0" d="M22487.48 5939.17l0 -700.03m0 700.03l0 0 0 0z"/>
    <path class="fil1 str0" d="M22487.48 5939.17l0 -700.03m0 700.03l0 0 0 0z"/>
   </g>
   <g>
    <path class="fil0" d="M24392.48 5239.14l0 -700.02m0 700.02l0 0 0 0z"/>
    <path class="fil1 str0" d="M24392.48 5239.14l0 -700.02m0 700.02l0 0 0 0z"/>
   </g>
   <g>
    <path class="fil0" d="M24392.48 4539.12l1400.04 0m-1400.04 0l0 0 0 0z"/>
    <path class="fil1 str0" d="M24392.48 4539.12l1400.04 0m-1400.04 0l0 0 0 0z"/>
   </g>
   <g>
    <path class="fil0" d="M25792.52 4539.12l0 1400.05m0 -1400.05l0 0 0 0z"/>
    <path class="fil1 str0" d="M25792.52 4539.12l0 1400.05m0 -1400.05l0 0 0 0z"/>
   </g>
   <g>
    <path class="fil0" d="M25792.52 5939.17l-1400.04 0m1400.04 0l0 0 0 0z"/>
    <path class="fil1 str0" d="M25792.52 5939.17l-1400.04 0m1400.04 0l0 0 0 0z"/>
   </g>
   <g>
    <path class="fil0" d="M24392.48 5939.17l0 -700.03m0 700.03l0 0 0 0z"/>
    <path class="fil1 str0" d="M24392.48 5939.17l0 -700.03m0 700.03l0 0 0 0z"/>
   </g>
   <g>
    <path class="fil0" d="M28202.48 5239.14l0 -700.02m0 700.02l0 0 0 0z"/>
    <path class="fil1 str0" d="M28202.48 5239.14l0 -700.02m0 700.02l0 0 0 0z"/>
   </g>
   <g>
    <path class="fil0" d="M28202.48 4539.12l1400.04 0m-1400.04 0l0 0 0 0z"/>
    <path class="fil1 str0" d="M28202.48 4539.12l1400.04 0m-1400.04 0l0 0 0 0z"/>
   </g>
   <g>
    <path class="fil0" d="M29602.52 4539.12l0 1400.05m0 -1400.05l0 0 0 0z"/>
    <path class="fil1 str0" d="M29602.52 4539.12l0 1400.05m0 -1400.05l0 0 0 0z"/>
   </g>
   <g>
    <path class="fil0" d="M29602.52 5939.17l-1400.04 0m1400.04 0l0 0 0 0z"/>
    <path class="fil1 str0" d="M29602.52 5939.17l-1400.04 0m1400.04 0l0 0 0 0z"/>
   </g>
   <g>
    <path class="fil0" d="M28202.48 5939.17l0 -700.03m0 700.03l0 0 0 0z"/>
    <path class="fil1 str0" d="M28202.48 5939.17l0 -700.03m0 700.03l0 0 0 0z"/>
   </g>
   <g>
    <path class="fil0" d="M30107.48 5239.14l0 -700.02m0 700.02l0 0 0 0z"/>
    <path class="fil1 str0" d="M30107.48 5239.14l0 -700.02m0 700.02l0 0 0 0z"/>
   </g>
   <g>
    <path class="fil0" d="M30107.48 4539.12l1400.04 0m-1400.04 0l0 0 0 0z"/>
    <path class="fil1 str0" d="M30107.48 4539.12l1400.04 0m-1400.04 0l0 0 0 0z"/>
   </g>
   <g>
    <path class="fil0" d="M31507.52 4539.12l0 1400.05m0 -1400.05l0 0 0 0z"/>
    <path class="fil1 str0" d="M31507.52 4539.12l0 1400.05m0 -1400.05l0 0 0 0z"/>
   </g>
   <g>
    <path class="fil0" d="M31507.52 5939.17l-1400.04 0m1400.04 0l0 0 0 0z"/>
    <path class="fil1 str0" d="M31507.52 5939.17l-1400.04 0m1400.04 0l0 0 0 0z"/>
   </g>
   <g>
    <path class="fil0" d="M30107.48 5939.17l0 -700.03m0 700.03l0 0 0 0z"/>
    <path class="fil1 str0" d="M30107.48 5939.17l0 -700.03m0 700.03l0 0 0 0z"/>
   </g>
   <g>
    <path class="fil0" d="M18439.48 7144.14l0 -700.02m0 700.02l0 0 0 0z"/>
    <path class="fil1 str0" d="M18439.48 7144.14l0 -700.02m0 700.02l0 0 0 0z"/>
   </g>
   <g>
    <path class="fil0" d="M18439.48 6444.12l1400.05 0m-1400.05 0l0 0 0 0z"/>
    <path class="fil1 str0" d="M18439.48 6444.12l1400.05 0m-1400.05 0l0 0 0 0z"/>
   </g>
   <g>
    <path class="fil0" d="M19839.53 6444.12l0 1400.05m0 -1400.05l0 0 0 0z"/>
    <path class="fil1 str0" d="M19839.53 6444.12l0 1400.05m0 -1400.05l0 0 0 0z"/>
   </g>
   <g>
    <path class="fil0" d="M19839.53 7844.17l-1400.05 0m1400.05 0l0 0 0 0z"/>
    <path class="fil1 str0" d="M19839.53 7844.17l-1400.05 0m1400.05 0l0 0 0 0z"/>
   </g>
   <g>
    <path class="fil0" d="M18439.48 7844.17l0 -700.03m0 700.03l0 0 0 0z"/>
    <path class="fil1 str0" d="M18439.48 7844.17l0 -700.03m0 700.03l0 0 0 0z"/>
   </g>
   <g>
    <path class="fil0" d="M21058.73 7144.14l0 -700.02m0 700.02l0 0 0 0z"/>
    <path class="fil1 str0" d="M21058.73 7144.14l0 -700.02m0 700.02l0 0 0 0z"/>
   </g>
   <g>
    <path class="fil0" d="M21058.73 6444.12l1400.04 0m-1400.04 0l0 0 0 0z"/>
    <path class="fil1 str0" d="M21058.73 6444.12l1400.04 0m-1400.04 0l0 0 0 0z"/>
   </g>
   <g>
    <path class="fil0" d="M22458.77 6444.12l0 1400.05m0 -1400.05l0 0 0 0z"/>
    <path class="fil1 str0" d="M22458.77 6444.12l0 1400.05m0 -1400.05l0 0 0 0z"/>
   </g>
   <g>
    <path class="fil0" d="M22458.77 7844.17l-1400.04 0m1400.04 0l0 0 0 0z"/>
    <path class="fil1 str0" d="M22458.77 7844.17l-1400.04 0m1400.04 0l0 0 0 0z"/>
   </g>
   <g>
    <path class="fil0" d="M21058.73 7844.17l0 -700.03m0 700.03l0 0 0 0z"/>
    <path class="fil1 str0" d="M21058.73 7844.17l0 -700.03m0 700.03l0 0 0 0z"/>
   </g>
   <g>
    <path class="fil0" d="M22963.73 7144.14l0 -700.02m0 700.02l0 0 0 0z"/>
    <path class="fil1 str0" d="M22963.73 7144.14l0 -700.02m0 700.02l0 0 0 0z"/>
   </g>
   <g>
    <path class="fil0" d="M22963.73 6444.12l1400.04 0m-1400.04 0l0 0 0 0z"/>
    <path class="fil1 str0" d="M22963.73 6444.12l1400.04 0m-1400.04 0l0 0 0 0z"/>
   </g>
   <g>
    <path class="fil0" d="M24363.77 6444.12l0 1400.05m0 -1400.05l0 0 0 0z"/>
    <path class="fil1 str0" d="M24363.77 6444.12l0 1400.05m0 -1400.05l0 0 0 0z"/>
   </g>
   <g>
    <path class="fil0" d="M24363.77 7844.17l-1400.04 0m1400.04 0l0 0 0 0z"/>
    <path class="fil1 str0" d="M24363.77 7844.17l-1400.04 0m1400.04 0l0 0 0 0z"/>
   </g>
   <g>
    <path class="fil0" d="M22963.73 7844.17l0 -700.03m0 700.03l0 0 0 0z"/>
    <path class="fil1 str0" d="M22963.73 7844.17l0 -700.03m0 700.03l0 0 0 0z"/>
   </g>
   <g>
    <path class="fil0" d="M26773.98 7144.14l0 -700.02m0 700.02l0 0 0 0z"/>
    <path class="fil1 str0" d="M26773.98 7144.14l0 -700.02m0 700.02l0 0 0 0z"/>
   </g>
   <g>
    <path class="fil0" d="M26773.98 6444.12l1400.05 0m-1400.05 0l0 0 0 0z"/>
    <path class="fil1 str0" d="M26773.98 6444.12l1400.05 0m-1400.05 0l0 0 0 0z"/>
   </g>
   <g>
    <path class="fil0" d="M28174.03 6444.12l0 1400.05m0 -1400.05l0 0 0 0z"/>
    <path class="fil1 str0" d="M28174.03 6444.12l0 1400.05m0 -1400.05l0 0 0 0z"/>
   </g>
   <g>
    <path class="fil0" d="M28174.03 7844.17l-1400.05 0m1400.05 0l0 0 0 0z"/>
    <path class="fil1 str0" d="M28174.03 7844.17l-1400.05 0m1400.05 0l0 0 0 0z"/>
   </g>
   <g>
    <path class="fil0" d="M26773.98 7844.17l0 -700.03m0 700.03l0 0 0 0z"/>
    <path class="fil1 str0" d="M26773.98 7844.17l0 -700.03m0 700.03l0 0 0 0z"/>
   </g>
   <g>
    <path class="fil0" d="M20582.48 5239.14l0 -700.02m0 700.02l0 0 0 0z"/>
    <path class="fil1 str0" d="M20582.48 5239.14l0 -700.02m0 700.02l0 0 0 0z"/>
   </g>
   <g>
    <path class="fil0" d="M20582.48 4539.12l1400.04 0m-1400.04 0l0 0 0 0z"/>
    <path class="fil1 str0" d="M20582.48 4539.12l1400.04 0m-1400.04 0l0 0 0 0z"/>
   </g>
   <g>
    <path class="fil0" d="M21982.52 4539.12l0 1400.05m0 -1400.05l0 0 0 0z"/>
    <path class="fil1 str0" d="M21982.52 4539.12l0 1400.05m0 -1400.05l0 0 0 0z"/>
   </g>
   <g>
    <path class="fil0" d="M21982.52 5939.17l-1400.04 0m1400.04 0l0 0 0 0z"/>
    <path class="fil1 str0" d="M21982.52 5939.17l-1400.04 0m1400.04 0l0 0 0 0z"/>
   </g>
   <g>
    <path class="fil0" d="M20582.48 5939.17l0 -700.03m0 700.03l0 0 0 0z"/>
    <path class="fil1 str0" d="M20582.48 5939.17l0 -700.03m0 700.03l0 0 0 0z"/>
   </g>
   <g>
    <path class="fil0" d="M27249.98 3334.14l0 -700.02m0 700.02l0 0 0 0z"/>
    <path class="fil1 str0" d="M27249.98 3334.14l0 -700.02m0 700.02l0 0 0 0z"/>
   </g>
   <g>
    <path class="fil0" d="M27249.98 2634.12l1400.04 0m-1400.04 0l0 0 0 0z"/>
    <path class="fil1 str0" d="M27249.98 2634.12l1400.04 0m-1400.04 0l0 0 0 0z"/>
   </g>
   <g>
    <path class="fil0" d="M28650.02 2634.12l0 1400.05m0 -1400.05l0 0 0 0z"/>
    <path class="fil1 str0" d="M28650.02 2634.12l0 1400.05m0 -1400.05l0 0 0 0z"/>
   </g>
   <g>
    <path class="fil0" d="M28650.02 4034.17l-1400.04 0m1400.04 0l0 0 0 0z"/>
    <path class="fil1 str0" d="M28650.02 4034.17l-1400.04 0m1400.04 0l0 0 0 0z"/>
   </g>
   <g>
    <path class="fil0" d="M27249.98 4034.17l0 -700.03m0 700.03l0 0 0 0z"/>
    <path class="fil1 str0" d="M27249.98 4034.17l0 -700.03m0 700.03l0 0 0 0z"/>
   </g>
   <g>
    <path class="fil0" d="M17724.98 3334.14l0 -700.02m0 700.02l0 0 0 0z"/>
    <path class="fil1 str0" d="M17724.98 3334.14l0 -700.02m0 700.02l0 0 0 0z"/>
   </g>
   <g>
    <path class="fil0" d="M17724.98 2634.12l1400.04 0m-1400.04 0l0 0 0 0z"/>
    <path class="fil1 str0" d="M17724.98 2634.12l1400.04 0m-1400.04 0l0 0 0 0z"/>
   </g>
   <g>
    <path class="fil0" d="M19125.02 2634.12l0 1400.05m0 -1400.05l0 0 0 0z"/>
    <path class="fil1 str0" d="M19125.02 2634.12l0 1400.05m0 -1400.05l0 0 0 0z"/>
   </g>
   <g>
    <path class="fil0" d="M19125.02 4034.17l-1400.04 0m1400.04 0l0 0 0 0z"/>
    <path class="fil1 str0" d="M19125.02 4034.17l-1400.04 0m1400.04 0l0 0 0 0z"/>
   </g>
   <g>
    <path class="fil0" d="M17724.98 4034.17l0 -700.03m0 700.03l0 0 0 0z"/>
    <path class="fil1 str0" d="M17724.98 4034.17l0 -700.03m0 700.03l0 0 0 0z"/>
   </g>
  </g>
 </g>
 <g id="レイヤ_x0020_5">
  <metadata id="CorelCorpID_4Corel-Layer"/>
  <g>
   <g>
    <g>
     <path class="fil2" d="M19487.73 4286.77c0,-60.75 -49.25,-110 -110,-110 -60.75,0 -110,49.25 -110,110 0,60.75 49.25,110 110,110 60.75,0 110,-49.25 110,-110z"/>
     <path id="1" class="fil1 str1" d="M19487.73 4286.77c0,-60.75 -49.25,-110 -110,-110 -60.75,0 -110,49.25 -110,110 0,60.75 49.25,110 110,110 60.75,0 110,-49.25 110,-110z"/>
    </g>
    <g>
     <path class="fil2" d="M24250.23 4286.77c0,-60.75 -49.25,-110 -110,-110 -60.75,0 -110,49.25 -110,110 0,60.75 49.25,110 110,110 60.75,0 110,-49.25 110,-110z"/>
     <path id="1" class="fil1 str1" d="M24250.23 4286.77c0,-60.75 -49.25,-110 -110,-110 -60.75,0 -110,49.25 -110,110 0,60.75 49.25,110 110,110 60.75,0 110,-49.25 110,-110z"/>
    </g>
    <g>
     <path class="fil2" d="M29012.73 4286.77c0,-60.75 -49.25,-110 -110,-110 -60.75,0 -110,49.25 -110,110 0,60.75 49.25,110 110,110 60.75,0 110,-49.25 110,-110z"/>
     <path id="1" class="fil1 str1" d="M29012.73 4286.77c0,-60.75 -49.25,-110 -110,-110 -60.75,0 -110,49.25 -110,110 0,60.75 49.25,110 110,110 60.75,0 110,-49.25 110,-110z"/>
    </g>
    <g>
     <path class="fil2" d="M20440.23 8096.77c0,-60.75 -49.25,-110 -110,-110 -60.75,0 -110,49.25 -110,110 0,60.75 49.25,110 110,110 60.75,0 110,-49.25 110,-110z"/>
     <path id="1" class="fil1 str1" d="M20440.23 8096.77c0,-60.75 -49.25,-110 -110,-110 -60.75,0 -110,49.25 -110,110 0,60.75 49.25,110 110,110 60.75,0 110,-49.25 110,-110z"/>
    </g>
    <g>
     <path class="fil2" d="M24726.43 8096.77c0,-60.75 -49.25,-110 -110,-110 -60.75,0 -110,49.25 -110,110 0,60.75 49.25,110 110,110 60.75,0 110,-49.25 110,-110z"/>
     <path id="1" class="fil1 str1" d="M24726.43 8096.77c0,-60.75 -49.25,-110 -110,-110 -60.75,0 -110,49.25 -110,110 0,60.75 49.25,110 110,110 60.75,0 110,-49.25 110,-110z"/>
    </g>
    <g>
     <path class="fil2" d="M28536.43 8096.77c0,-60.75 -49.25,-110 -110,-110 -60.75,0 -110,49.25 -110,110 0,60.75 49.25,110 110,110 60.75,0 110,-49.25 110,-110z"/>
     <path id="1" class="fil1 str1" d="M28536.43 8096.77c0,-60.75 -49.25,-110 -110,-110 -60.75,0 -110,49.25 -110,110 0,60.75 49.25,110 110,110 60.75,0 110,-49.25 110,-110z"/>
    </g>
    <g>
     <path class="fil2" d="M20440.23 10001.77c0,-60.75 -49.25,-110 -110,-110 -60.75,0 -110,49.25 -110,110 0,60.75 49.25,110 110,110 60.75,0 110,-49.25 110,-110z"/>
     <path id="1" class="fil1 str1" d="M20440.23 10001.77c0,-60.75 -49.25,-110 -110,-110 -60.75,0 -110,49.25 -110,110 0,60.75 49.25,110 110,110 60.75,0 110,-49.25 110,-110z"/>
    </g>
    <g>
     <path class="fil2" d="M24250.23 10001.77c0,-60.75 -49.25,-110 -110,-110 -60.75,0 -110,49.25 -110,110 0,60.75 49.25,110 110,110 60.75,0 110,-49.25 110,-110z"/>
     <path id="1" class="fil1 str1" d="M24250.23 10001.77c0,-60.75 -49.25,-110 -110,-110 -60.75,0 -110,49.25 -110,110 0,60.75 49.25,110 110,110 60.75,0 110,-49.25 110,-110z"/>
    </g>
    <g>
     <path class="fil2" d="M28060.23 10001.77c0,-60.75 -49.25,-110 -110,-110 -60.75,0 -110,49.25 -110,110 0,60.75 49.25,110 110,110 60.75,0 110,-49.25 110,-110z"/>
     <path id="1" class="fil1 str1" d="M28060.23 10001.77c0,-60.75 -49.25,-110 -110,-110 -60.75,0 -110,49.25 -110,110 0,60.75 49.25,110 110,110 60.75,0 110,-49.25 110,-110z"/>
    </g>
   </g>
   <g>
    <g>
     <path class="fil2" d="M30869.65 676.16c0,-141.66 -114.88,-256.54 -256.54,-256.54m256.54 256.54l0 0 0 0z"/>
     <path class="fil1 str1" d="M30869.65 676.16c0,-141.66 -114.88,-256.54 -256.54,-256.54m256.54 256.54l0 0 0 0z"/>
    </g>
    <g>
     <path class="fil2" d="M30869.65 4011.18c0,141.66 114.87,256.54 256.54,256.54m-256.54 -256.54l0 0 0 0z"/>
     <path class="fil1 str1" d="M30869.65 4011.18c0,141.66 114.87,256.54 256.54,256.54m-256.54 -256.54l0 0 0 0z"/>
    </g>
    <g>
     <path class="fil2" d="M31831.67 4524.26c0,-141.66 -114.88,-256.54 -256.54,-256.54m256.54 256.54l0 0 0 0z"/>
     <path class="fil1 str1" d="M31831.67 4524.26c0,-141.66 -114.88,-256.54 -256.54,-256.54m256.54 256.54l0 0 0 0z"/>
    </g>
    <g>
     <path class="fil2" d="M31575.13 6191.77c141.66,-0.01 256.54,-114.89 256.54,-256.55m-256.54 256.55l0 0 0 0z"/>
     <path class="fil1 str1" d="M31575.13 6191.77c141.66,-0.01 256.54,-114.89 256.54,-256.55m-256.54 256.55l0 0 0 0z"/>
    </g>
    <g>
     <path class="fil2" d="M31126.19 6191.77c-141.67,-0.01 -256.54,114.87 -256.54,256.53m256.54 -256.53l0 0 0 0z"/>
     <path class="fil1 str1" d="M31126.19 6191.77c-141.67,-0.01 -256.54,114.87 -256.54,256.53m256.54 -256.53l0 0 0 0z"/>
    </g>
    <g>
     <path class="fil2" d="M30869.65 7859.28c0,141.65 114.87,256.53 256.54,256.53m-256.54 -256.53l0 0 0 0z"/>
     <path class="fil1 str1" d="M30869.65 7859.28c0,141.65 114.87,256.53 256.54,256.53m-256.54 -256.53l0 0 0 0z"/>
    </g>
    <g>
     <path class="fil2" d="M31831.67 8372.36c0,-141.67 -114.88,-256.55 -256.54,-256.55m256.54 256.55l0 0 0 0z"/>
     <path class="fil1 str1" d="M31831.67 8372.36c0,-141.67 -114.88,-256.55 -256.54,-256.55m256.54 256.55l0 0 0 0z"/>
    </g>
    <g>
     <path class="fil2" d="M31575.13 10039.87c141.66,-0.01 256.54,-114.89 256.54,-256.55m-256.54 256.55l0 0 0 0z"/>
     <path class="fil1 str1" d="M31575.13 10039.87c141.66,-0.01 256.54,-114.89 256.54,-256.55m-256.54 256.55l0 0 0 0z"/>
    </g>
    <g>
     <path class="fil2" d="M31126.19 10039.87c-141.67,-0.01 -256.54,114.87 -256.54,256.53m256.54 -256.53l0 0 0 0z"/>
     <path class="fil1 str1" d="M31126.19 10039.87c-141.67,-0.01 -256.54,114.87 -256.54,256.53m256.54 -256.53l0 0 0 0z"/>
    </g>
    <g>
     <path class="fil2" d="M30612.89 12204.02c141.66,-0.01 256.54,-114.89 256.54,-256.55m-256.54 256.55l0 0 0 0z"/>
     <path class="fil1 str1" d="M30612.89 12204.02c141.66,-0.01 256.54,-114.89 256.54,-256.55m-256.54 256.55l0 0 0 0z"/>
    </g>
    <g>
     <path class="fil2" d="M17401.04 11947.49c0.01,141.65 114.89,256.53 256.55,256.53m-256.55 -256.53l0 0 0 0z"/>
     <path class="fil1 str2" d="M17401.04 11947.49c0.01,141.65 114.89,256.53 256.55,256.53m-256.55 -256.53l0 0 0 0z"/>
    </g>
    <g>
     <path class="fil2" d="M17657.83 419.62c-141.65,0 -256.53,114.88 -256.53,256.54m256.53 -256.54l0 0 0 0z"/>
     <path class="fil1 str2" d="M17657.83 419.62c-141.65,0 -256.53,114.88 -256.53,256.54m256.53 -256.54l0 0 0 0z"/>
    </g>
    <g>
     <path class="fil2" d="M17401.06 11978.15l0 -4824.49m0 4824.49l0 0 0 0z"/>
     <path class="fil1 str1" d="M17401.06 11978.15l0 -4824.49m0 4824.49l0 0 0 0z"/>
    </g>
    <g>
     <path class="fil2" d="M30617.87 12204.43l-12955.27 0m12955.27 0l0 0 0 0z"/>
     <path class="fil1 str1" d="M30617.87 12204.43l-12955.27 0m12955.27 0l0 0 0 0z"/>
    </g>
    <g>
     <path class="fil2" d="M30869.41 10296.28l0 1651.19m0 -1651.19l0 0 0 0z"/>
     <path class="fil1 str1" d="M30869.41 10296.28l0 1651.19m0 -1651.19l0 0 0 0z"/>
    </g>
    <g>
     <path class="fil2" d="M31574.9 10039.74l-448.95 0m448.95 0l0 0 0 0z"/>
     <path class="fil1 str1" d="M31574.9 10039.74l-448.95 0m448.95 0l0 0 0 0z"/>
    </g>
    <g>
     <path class="fil2" d="M31831.44 8372.23l0 1410.97m0 -1410.97l0 0 0 0z"/>
     <path class="fil1 str1" d="M31831.44 8372.23l0 1410.97m0 -1410.97l0 0 0 0z"/>
    </g>
    <g>
     <path class="fil2" d="M31125.95 8115.69l448.95 0m-448.95 0l0 0 0 0z"/>
     <path class="fil1 str1" d="M31125.95 8115.69l448.95 0m-448.95 0l0 0 0 0z"/>
    </g>
    <g>
     <path class="fil2" d="M30869.41 6448.18l0 1410.97m0 -1410.97l0 0 0 0z"/>
     <path class="fil1 str1" d="M30869.41 6448.18l0 1410.97m0 -1410.97l0 0 0 0z"/>
    </g>
    <g>
     <path class="fil2" d="M31574.9 6191.64l-448.95 0m448.95 0l0 0 0 0z"/>
     <path class="fil1 str1" d="M31574.9 6191.64l-448.95 0m448.95 0l0 0 0 0z"/>
    </g>
    <g>
     <path class="fil2" d="M31831.44 4524.13l0 1410.97m0 -1410.97l0 0 0 0z"/>
     <path class="fil1 str1" d="M31831.44 4524.13l0 1410.97m0 -1410.97l0 0 0 0z"/>
    </g>
    <g>
     <path class="fil2" d="M31125.95 4267.59l448.95 0m-448.95 0l0 0 0 0z"/>
     <path class="fil1 str1" d="M31125.95 4267.59l448.95 0m-448.95 0l0 0 0 0z"/>
    </g>
    <g>
     <path class="fil2" d="M30869.41 676.03l0 3335.02m0 -3335.02l0 0 0 0z"/>
     <path class="fil1 str1" d="M30869.41 676.03l0 3335.02m0 -3335.02l0 0 0 0z"/>
    </g>
    <g>
     <path class="fil2" d="M17657.6 419.49l12955.27 0m-12955.27 0l0 0 0 0z"/>
     <path class="fil1 str1" d="M17657.6 419.49l12955.27 0m-12955.27 0l0 0 0 0z"/>
    </g>
    <g>
     <path class="fil2" d="M17401.06 7153.66l0 -6477.63m0 6477.63l0 0 0 0z"/>
     <path class="fil1 str1" d="M17401.06 7153.66l0 -6477.63m0 6477.63l0 0 0 0z"/>
    </g>
   </g>
  </g>
 </g>
 <g id="レイヤ_x0020_6">
  <metadata id="CorelCorpID_5Corel-Layer"/>
  <g>
   <g>
    <g>
     <path class="fil2" d="M19487.73 16071.75c0,-60.75 -49.25,-110 -110,-110 -60.75,0 -110,49.25 -110,110 0,60.75 49.25,110 110,110 60.75,0 110,-49.25 110,-110z"/>
     <path id="1" class="fil1 str1" d="M19487.73 16071.75c0,-60.75 -49.25,-110 -110,-110 -60.75,0 -110,49.25 -110,110 0,60.75 49.25,110 110,110 60.75,0 110,-49.25 110,-110z"/>
    </g>
    <g>
     <path class="fil2" d="M24250.23 16071.75c0,-60.75 -49.25,-110 -110,-110 -60.75,0 -110,49.25 -110,110 0,60.75 49.25,110 110,110 60.75,0 110,-49.25 110,-110z"/>
     <path id="1" class="fil1 str1" d="M24250.23 16071.75c0,-60.75 -49.25,-110 -110,-110 -60.75,0 -110,49.25 -110,110 0,60.75 49.25,110 110,110 60.75,0 110,-49.25 110,-110z"/>
    </g>
    <g>
     <path class="fil2" d="M29012.73 16071.75c0,-60.75 -49.25,-110 -110,-110 -60.75,0 -110,49.25 -110,110 0,60.75 49.25,110 110,110 60.75,0 110,-49.25 110,-110z"/>
     <path id="1" class="fil1 str1" d="M29012.73 16071.75c0,-60.75 -49.25,-110 -110,-110 -60.75,0 -110,49.25 -110,110 0,60.75 49.25,110 110,110 60.75,0 110,-49.25 110,-110z"/>
    </g>
    <g>
     <path class="fil2" d="M20440.23 19881.75c0,-60.75 -49.25,-110 -110,-110 -60.75,0 -110,49.25 -110,110 0,60.75 49.25,110 110,110 60.75,0 110,-49.25 110,-110z"/>
     <path id="1" class="fil1 str1" d="M20440.23 19881.75c0,-60.75 -49.25,-110 -110,-110 -60.75,0 -110,49.25 -110,110 0,60.75 49.25,110 110,110 60.75,0 110,-49.25 110,-110z"/>
    </g>
    <g>
     <path class="fil2" d="M24726.43 19881.75c0,-60.75 -49.25,-110 -110,-110 -60.75,0 -110,49.25 -110,110 0,60.75 49.25,110 110,110 60.75,0 110,-49.25 110,-110z"/>
     <path id="1" class="fil1 str1" d="M24726.43 19881.75c0,-60.75 -49.25,-110 -110,-110 -60.75,0 -110,49.25 -110,110 0,60.75 49.25,110 110,110 60.75,0 110,-49.25 110,-110z"/>
    </g>
    <g>
     <path class="fil2" d="M28536.43 19881.75c0,-60.75 -49.25,-110 -110,-110 -60.75,0 -110,49.25 -110,110 0,60.75 49.25,110 110,110 60.75,0 110,-49.25 110,-110z"/>
     <path id="1" class="fil1 str1" d="M28536.43 19881.75c0,-60.75 -49.25,-110 -110,-110 -60.75,0 -110,49.25 -110,110 0,60.75 49.25,110 110,110 60.75,0 110,-49.25 110,-110z"/>
    </g>
    <g>
     <path class="fil2" d="M20440.23 21786.75c0,-60.75 -49.25,-110 -110,-110 -60.75,0 -110,49.25 -110,110 0,60.75 49.25,110 110,110 60.75,0 110,-49.25 110,-110z"/>
     <path id="1" class="fil1 str1" d="M20440.23 21786.75c0,-60.75 -49.25,-110 -110,-110 -60.75,0 -110,49.25 -110,110 0,60.75 49.25,110 110,110 60.75,0 110,-49.25 110,-110z"/>
    </g>
    <g>
     <path class="fil2" d="M24250.23 21786.75c0,-60.75 -49.25,-110 -110,-110 -60.75,0 -110,49.25 -110,110 0,60.75 49.25,110 110,110 60.75,0 110,-49.25 110,-110z"/>
     <path id="1" class="fil1 str1" d="M24250.23 21786.75c0,-60.75 -49.25,-110 -110,-110 -60.75,0 -110,49.25 -110,110 0,60.75 49.25,110 110,110 60.75,0 110,-49.25 110,-110z"/>
    </g>
    <g>
     <path class="fil2" d="M28060.23 21786.75c0,-60.75 -49.25,-110 -110,-110 -60.75,0 -110,49.25 -110,110 0,60.75 49.25,110 110,110 60.75,0 110,-49.25 110,-110z"/>
     <path id="1" class="fil1 str1" d="M28060.23 21786.75c0,-60.75 -49.25,-110 -110,-110 -60.75,0 -110,49.25 -110,110 0,60.75 49.25,110 110,110 60.75,0 110,-49.25 110,-110z"/>
    </g>
   </g>
   <g>
    <g>
     <path class="fil2" d="M30869.65 12461.14c0,-141.66 -114.88,-256.54 -256.54,-256.54m256.54 256.54l0 0 0 0z"/>
     <path class="fil1 str1" d="M30869.65 12461.14c0,-141.66 -114.88,-256.54 -256.54,-256.54m256.54 256.54l0 0 0 0z"/>
    </g>
    <g>
     <path class="fil2" d="M30869.65 15796.16c0,141.66 114.87,256.54 256.54,256.54m-256.54 -256.54l0 0 0 0z"/>
     <path class="fil1 str1" d="M30869.65 15796.16c0,141.66 114.87,256.54 256.54,256.54m-256.54 -256.54l0 0 0 0z"/>
    </g>
    <g>
     <path class="fil2" d="M31831.67 16309.24c0,-141.66 -114.88,-256.54 -256.54,-256.54m256.54 256.54l0 0 0 0z"/>
     <path class="fil1 str1" d="M31831.67 16309.24c0,-141.66 -114.88,-256.54 -256.54,-256.54m256.54 256.54l0 0 0 0z"/>
    </g>
    <g>
     <path class="fil2" d="M31575.13 17976.75c141.66,-0.01 256.54,-114.89 256.54,-256.55m-256.54 256.55l0 0 0 0z"/>
     <path class="fil1 str1" d="M31575.13 17976.75c141.66,-0.01 256.54,-114.89 256.54,-256.55m-256.54 256.55l0 0 0 0z"/>
    </g>
    <g>
     <path class="fil2" d="M31126.19 17976.75c-141.67,-0.01 -256.54,114.87 -256.54,256.53m256.54 -256.53l0 0 0 0z"/>
     <path class="fil1 str1" d="M31126.19 17976.75c-141.67,-0.01 -256.54,114.87 -256.54,256.53m256.54 -256.53l0 0 0 0z"/>
    </g>
    <g>
     <path class="fil2" d="M30869.65 19644.26c0,141.65 114.87,256.53 256.54,256.53m-256.54 -256.53l0 0 0 0z"/>
     <path class="fil1 str1" d="M30869.65 19644.26c0,141.65 114.87,256.53 256.54,256.53m-256.54 -256.53l0 0 0 0z"/>
    </g>
    <g>
     <path class="fil2" d="M31831.67 20157.34c0,-141.67 -114.88,-256.55 -256.54,-256.55m256.54 256.55l0 0 0 0z"/>
     <path class="fil1 str1" d="M31831.67 20157.34c0,-141.67 -114.88,-256.55 -256.54,-256.55m256.54 256.55l0 0 0 0z"/>
    </g>
    <g>
     <path class="fil2" d="M31575.13 21824.85c141.66,-0.01 256.54,-114.89 256.54,-256.55m-256.54 256.55l0 0 0 0z"/>
     <path class="fil1 str1" d="M31575.13 21824.85c141.66,-0.01 256.54,-114.89 256.54,-256.55m-256.54 256.55l0 0 0 0z"/>
    </g>
    <g>
     <path class="fil2" d="M31126.19 21824.85c-141.67,-0.01 -256.54,114.87 -256.54,256.53m256.54 -256.53l0 0 0 0z"/>
     <path class="fil1 str1" d="M31126.19 21824.85c-141.67,-0.01 -256.54,114.87 -256.54,256.53m256.54 -256.53l0 0 0 0z"/>
    </g>
    <g>
     <path class="fil2" d="M30612.89 23989c141.66,-0.01 256.54,-114.89 256.54,-256.55m-256.54 256.55l0 0 0 0z"/>
     <path class="fil1 str1" d="M30612.89 23989c141.66,-0.01 256.54,-114.89 256.54,-256.55m-256.54 256.55l0 0 0 0z"/>
    </g>
    <g>
     <path class="fil2" d="M17401.04 23732.47c0.01,141.65 114.89,256.53 256.55,256.53m-256.55 -256.53l0 0 0 0z"/>
     <path class="fil1 str2" d="M17401.04 23732.47c0.01,141.65 114.89,256.53 256.55,256.53m-256.55 -256.53l0 0 0 0z"/>
    </g>
    <g>
     <path class="fil2" d="M17657.83 12204.6c-141.65,0 -256.53,114.88 -256.53,256.54m256.53 -256.54l0 0 0 0z"/>
     <path class="fil1 str2" d="M17657.83 12204.6c-141.65,0 -256.53,114.88 -256.53,256.54m256.53 -256.54l0 0 0 0z"/>
    </g>
    <g>
     <path class="fil2" d="M17401.06 23763.13l0 -4824.49m0 4824.49l0 0 0 0z"/>
     <path class="fil1 str1" d="M17401.06 23763.13l0 -4824.49m0 4824.49l0 0 0 0z"/>
    </g>
    <g>
     <path class="fil2" d="M30617.87 23989.41l-12955.27 0m12955.27 0l0 0 0 0z"/>
     <path class="fil1 str1" d="M30617.87 23989.41l-12955.27 0m12955.27 0l0 0 0 0z"/>
    </g>
    <g>
     <path class="fil2" d="M30869.41 22081.26l0 1651.19m0 -1651.19l0 0 0 0z"/>
     <path class="fil1 str1" d="M30869.41 22081.26l0 1651.19m0 -1651.19l0 0 0 0z"/>
    </g>
    <g>
     <path class="fil2" d="M31574.9 21824.72l-448.95 0m448.95 0l0 0 0 0z"/>
     <path class="fil1 str1" d="M31574.9 21824.72l-448.95 0m448.95 0l0 0 0 0z"/>
    </g>
    <g>
     <path class="fil2" d="M31831.44 20157.21l0 1410.97m0 -1410.97l0 0 0 0z"/>
     <path class="fil1 str1" d="M31831.44 20157.21l0 1410.97m0 -1410.97l0 0 0 0z"/>
    </g>
    <g>
     <path class="fil2" d="M31125.95 19900.67l448.95 0m-448.95 0l0 0 0 0z"/>
     <path class="fil1 str1" d="M31125.95 19900.67l448.95 0m-448.95 0l0 0 0 0z"/>
    </g>
    <g>
     <path class="fil2" d="M30869.41 18233.16l0 1410.97m0 -1410.97l0 0 0 0z"/>
     <path class="fil1 str1" d="M30869.41 18233.16l0 1410.97m0 -1410.97l0 0 0 0z"/>
    </g>
    <g>
     <path class="fil2" d="M31574.9 17976.62l-448.95 0m448.95 0l0 0 0 0z"/>
     <path class="fil1 str1" d="M31574.9 17976.62l-448.95 0m448.95 0l0 0 0 0z"/>
    </g>
    <g>
     <path class="fil2" d="M31831.44 16309.11l0 1410.97m0 -1410.97l0 0 0 0z"/>
     <path class="fil1 str1" d="M31831.44 16309.11l0 1410.97m0 -1410.97l0 0 0 0z"/>
    </g>
    <g>
     <path class="fil2" d="M31125.95 16052.57l448.95 0m-448.95 0l0 0 0 0z"/>
     <path class="fil1 str1" d="M31125.95 16052.57l448.95 0m-448.95 0l0 0 0 0z"/>
    </g>
    <g>
     <path class="fil2" d="M30869.41 12461.01l0 3335.02m0 -3335.02l0 0 0 0z"/>
     <path class="fil1 str1" d="M30869.41 12461.01l0 3335.02m0 -3335.02l0 0 0 0z"/>
    </g>
    <g>
     <path class="fil2" d="M17657.6 12204.47l12955.27 0m-12955.27 0l0 0 0 0z"/>
     <path class="fil1 str1" d="M17657.6 12204.47l12955.27 0m-12955.27 0l0 0 0 0z"/>
    </g>
    <g>
     <path class="fil2" d="M17401.06 18938.64l0 -6477.63m0 6477.63l0 0 0 0z"/>
     <path class="fil1 str1" d="M17401.06 18938.64l0 -6477.63m0 6477.63l0 0 0 0z"/>
    </g>
   </g>
  </g>
 </g>
</svg>
